<svg width="19" height="19" viewBox="0 0 19 19" fill="none" xmlns="http://www.w3.org/2000/svg">
<g clip-path="url(#clip0_236_326)">
<path d="M11.305 1.58337C11.6373 1.58346 11.9612 1.6881 12.2307 1.88247C12.5002 2.07684 12.7018 2.35109 12.8068 2.66637L13.2367 3.95837H15.8333C16.0433 3.95837 16.2447 4.04178 16.3931 4.19025C16.5416 4.33871 16.625 4.54008 16.625 4.75004C16.625 4.96 16.5416 5.16137 16.3931 5.30983C16.2447 5.4583 16.0433 5.54171 15.8333 5.54171L15.831 5.59792L15.1446 15.2111C15.1017 15.8101 14.8336 16.3706 14.3941 16.7799C13.9546 17.1891 13.3764 17.4166 12.7759 17.4167H6.22408C5.62357 17.4166 5.04538 17.1891 4.60589 16.7799C4.1664 16.3706 3.89825 15.8101 3.85542 15.2111L3.16904 5.59712C3.16761 5.57869 3.16682 5.5602 3.16667 5.54171C2.9567 5.54171 2.75534 5.4583 2.60687 5.30983C2.45841 5.16137 2.375 4.96 2.375 4.75004C2.375 4.54008 2.45841 4.33871 2.60687 4.19025C2.75534 4.04178 2.9567 3.95837 3.16667 3.95837H5.76333L6.19321 2.66637C6.29826 2.35097 6.49993 2.07662 6.76962 1.88224C7.03931 1.68786 7.36335 1.58329 7.69579 1.58337H11.305ZM15.1446 5.59792L4 5.5L4.60589 15.0979C4.6201 15.2976 4.85355 15.8635 5 16C5.14645 16.1365 6.08753 16.7798 6.2877 16.7799H9.62461H12.7759C12.9761 16.7798 13.8536 16.1365 14 16C14.1464 15.8635 14.4858 15.1997 14.5 15L15.1446 5.59792ZM7.91667 7.91671C8.11057 7.91673 8.29773 7.98792 8.44263 8.11677C8.58753 8.24562 8.6801 8.42318 8.70279 8.61575L8.70833 8.70837V12.6667C8.70811 12.8685 8.63085 13.0626 8.49233 13.2093C8.35381 13.356 8.1645 13.4443 7.96306 13.4561C7.76163 13.468 7.56328 13.4024 7.40855 13.2729C7.25382 13.1434 7.15437 12.9597 7.13054 12.7593L7.125 12.6667V8.70837C7.125 8.49841 7.20841 8.29705 7.35687 8.14858C7.50534 8.00012 7.7067 7.91671 7.91667 7.91671ZM11.0833 7.91671C11.2933 7.91671 11.4947 8.00012 11.6431 8.14858C11.7916 8.29705 11.875 8.49841 11.875 8.70837V12.6667C11.875 12.8767 11.7916 13.078 11.6431 13.2265C11.4947 13.375 11.2933 13.4584 11.0833 13.4584C10.8734 13.4584 10.672 13.375 10.5235 13.2265C10.3751 13.078 10.2917 12.8767 10.2917 12.6667V8.70837C10.2917 8.49841 10.3751 8.29705 10.5235 8.14858C10.672 8.00012 10.8734 7.91671 11.0833 7.91671ZM11.305 3.16671H7.695L7.43138 3.95837H11.5686L11.305 3.16671Z" fill="white"/>
</g>
<defs>
<clipPath id="clip0_236_326">
<rect width="19" height="19" fill="white"/>
</clipPath>
</defs>
</svg>
