<svg width="20" height="20" viewBox="0 0 20 20" fill="none" xmlns="http://www.w3.org/2000/svg">
<path d="M5.8335 14.1775L9.511 14.165L17.5377 6.21496C17.8527 5.89996 18.026 5.48163 18.026 5.03663C18.026 4.59163 17.8527 4.17329 17.5377 3.85829L16.216 2.53663C15.586 1.90663 14.4868 1.90996 13.8618 2.53413L5.8335 10.4858V14.1775ZM15.0377 3.71496L16.3618 5.03413L15.031 6.35246L13.7093 5.03163L15.0377 3.71496ZM6.5 11L12 5.5L14.5 8L9 13.5H6.5V11Z" fill="white"/>
<path d="M4.16667 17.5H15.8333C16.7525 17.5 17.5 16.7525 17.5 15.8333V8.61L16.5 10V13.5V16L15.8333 16.5H11H6.7325C6.71083 16.5 6.7325 17.1583 6.7325 16.5C6.7325 17.1583 6.81583 17.1667 6.7325 16.5H4L3.5 15.8333V10.5V4.16667L4 3.5H6.7325H10L11.5392 2.5H4.16667C3.2475 2.5 2.5 3.2475 2.5 4.16667V15.8333C2.5 16.7525 3.2475 17.5 4.16667 17.5Z" fill="white"/>
</svg>
