<svg width="47" height="50" viewBox="0 0 47 50" fill="none" xmlns="http://www.w3.org/2000/svg">
<g clip-path="url(#clip0_120_2701)">
<g filter="url(#filter0_d_120_2701)">
<path d="M22.641 3.94727C22.0741 3.94727 21.507 4.08242 21.0679 4.35273L7.04562 12.9816C6.16713 13.5223 6.16713 14.3771 7.04562 14.9178L21.0679 23.5467C21.9464 24.0873 23.3355 24.0873 24.2139 23.5467L38.2362 14.9178C39.1147 14.3772 39.1147 13.5223 38.2362 12.9817L24.2139 4.35283C23.7747 4.08232 23.2078 3.94727 22.641 3.94727ZM22.5654 9.13379C23.3927 9.14326 24.1366 9.34492 24.7969 9.73848C25.2486 10.0078 25.5444 10.3149 25.6842 10.6602C25.8195 11.0026 25.8274 11.4541 25.7081 12.0142L25.5612 12.5714C25.4639 12.9701 25.4437 13.2569 25.5006 13.4317C25.553 13.604 25.6827 13.7519 25.8901 13.8755L26.2012 14.0608L23.1504 15.8792L22.8114 15.6773C22.4333 15.4521 22.1923 15.1977 22.0877 14.9137C21.9787 14.6271 21.9969 14.1712 22.1423 13.546L22.2822 12.9847C22.3636 12.6504 22.3715 12.3763 22.306 12.1626C22.2461 11.9454 22.1101 11.7736 21.8981 11.6473C21.5754 11.4549 21.1889 11.3859 20.7387 11.4399C20.2837 11.4913 19.8141 11.6614 19.3296 11.9502C18.8732 12.2222 18.4587 12.5627 18.0858 12.9717C17.7083 13.3781 17.3844 13.8432 17.1139 14.367L14.9429 13.0729C15.4311 12.5514 15.9107 12.0953 16.3819 11.7044C16.8532 11.3138 17.3507 10.9622 17.8747 10.6497C19.2495 9.83037 20.5279 9.34307 21.71 9.18809C21.9937 9.1493 22.2795 9.13112 22.5655 9.13369L22.5654 9.13379ZM27.2247 14.6709L29.6862 16.1381L26.6354 17.9564L24.1737 16.4894L27.2247 14.6709ZM6.10929 16.5523C5.58119 16.5372 5.22217 16.9758 5.22217 17.7516V33.1516C5.22217 34.2309 5.91707 35.5112 6.79557 36.051L20.2833 44.3369C21.1618 44.8766 21.8567 44.4498 21.8567 43.3706V27.9703C21.8567 26.891 21.1618 25.6109 20.2833 25.0711L6.79557 16.7853C6.54863 16.6334 6.31593 16.558 6.10929 16.5521V16.5523ZM39.2271 16.5525C39.0206 16.5584 38.7881 16.6336 38.541 16.7854L25.0529 25.0713C24.1744 25.611 23.4795 26.8914 23.4795 27.9707V43.3711C23.4795 44.4502 24.1744 44.8768 25.0529 44.3369L38.5411 36.0514C39.4196 35.5116 40.1143 34.2314 40.1143 33.1521V17.7518C40.1143 16.9762 39.7553 16.5377 39.2271 16.5527V16.5525ZM9.7103 22.7783C10.3118 22.9117 10.8613 23.075 11.3584 23.2679C11.8568 23.4614 12.3384 23.7008 12.7978 23.9832C14.0107 24.7283 14.9354 25.5773 15.5717 26.5303C16.2081 27.4775 16.5262 28.4879 16.5262 29.5615C16.5262 30.1123 16.4294 30.5473 16.2354 30.8666C16.0415 31.1803 15.7109 31.4437 15.2436 31.657L14.7663 31.8445C14.4283 31.9854 14.207 32.1305 14.1026 32.2801C13.9982 32.4238 13.9461 32.6221 13.9461 32.875V33.2544L11.2541 31.6008V31.1877C11.2541 30.7268 11.336 30.3697 11.5002 30.1164C11.6642 29.8574 12.0098 29.6145 12.5367 29.3872L13.0141 29.1913C13.2974 29.0731 13.5037 28.9245 13.633 28.7453C13.767 28.5692 13.8342 28.352 13.8342 28.0934C13.8342 27.7001 13.7148 27.3204 13.4762 26.9547C13.2375 26.5832 12.9046 26.2662 12.477 26.0035C12.0743 25.7562 11.6392 25.5846 11.1719 25.4887C10.7046 25.3871 10.2174 25.3662 9.7103 25.4257V22.7783ZM34.4532 23.6188C34.5929 23.6188 34.7224 23.635 34.8417 23.667C35.4781 23.8326 35.7962 24.4521 35.7962 25.5258C35.7962 26.0766 35.6993 26.6307 35.5054 27.1882C35.3115 27.7399 34.9809 28.4096 34.5136 29.1968L34.0363 29.9706C33.6983 30.5268 33.477 30.9436 33.3726 31.2213C33.2682 31.4933 33.2161 31.7558 33.2161 32.0087V32.3881L30.5241 34.0416V33.6285C30.5241 33.1676 30.6062 32.7096 30.7702 32.2548C30.9345 31.7943 31.2798 31.1269 31.8067 30.2524L32.2841 29.4702C32.5674 29.0038 32.7737 28.6017 32.903 28.2638C33.037 27.9228 33.1042 27.6229 33.1042 27.3644C33.1042 26.971 32.9848 26.738 32.7464 26.6653C32.5077 26.5872 32.1745 26.6792 31.747 26.9417C31.3443 27.1891 30.9094 27.5521 30.4421 28.0301C29.9748 28.5027 29.4876 29.0801 28.9805 29.7625V27.115C29.582 26.5096 30.1312 25.9979 30.6282 25.5801C31.1255 25.1623 31.6054 24.8115 32.0676 24.5276C33.0533 23.9222 33.8485 23.6192 34.4534 23.6187L34.4532 23.6188ZM11.254 32.8488L13.9461 34.5021V37.5037L11.2541 35.8504V32.8489L11.254 32.8488ZM33.2161 33.6359V36.6374L30.5241 38.2907V35.2895L33.2161 33.6359Z" fill="white"/>
</g>
</g>
<defs>
<filter id="filter0_d_120_2701" x="1.22217" y="-0.0527344" width="42.8921" height="48.623" filterUnits="userSpaceOnUse" color-interpolation-filters="sRGB">
<feFlood flood-opacity="0" result="BackgroundImageFix"/>
<feColorMatrix in="SourceAlpha" type="matrix" values="0 0 0 0 0 0 0 0 0 0 0 0 0 0 0 0 0 0 127 0" result="hardAlpha"/>
<feOffset/>
<feGaussianBlur stdDeviation="2"/>
<feComposite in2="hardAlpha" operator="out"/>
<feColorMatrix type="matrix" values="0 0 0 0 0.877296 0 0 0 0 0.675 0 0 0 0 1 0 0 0 1 0"/>
<feBlend mode="normal" in2="BackgroundImageFix" result="effect1_dropShadow_120_2701"/>
<feBlend mode="normal" in="SourceGraphic" in2="effect1_dropShadow_120_2701" result="shape"/>
</filter>
<clipPath id="clip0_120_2701">
<rect width="47" height="50" fill="white"/>
</clipPath>
</defs>
</svg>
