<svg width="100" height="100" viewBox="0 0 100 100" fill="none" xmlns="http://www.w3.org/2000/svg">
<rect x="18.75" y="20.5" width="65.625" height="65.625" fill="#9A4FC5"/>
<rect x="12.5005" y="14.25" width="65.625" height="65.625" fill="#25E1DE"/>
<rect x="15.625" y="17.375" width="65.625" height="65.625" fill="#FBFDFE"/>
<line x1="75" y1="28.3752" x2="87.5" y2="28.3752" stroke="#9A4FC5" stroke-width="3"/>
<line x1="75" y1="28.3752" x2="87.5" y2="28.3752" stroke="#9A4FC5" stroke-width="3"/>
<line x1="68.75" y1="37.7502" x2="78.125" y2="37.7502" stroke="#9A4FC5" stroke-width="3"/>
<line x1="68.75" y1="37.7502" x2="78.125" y2="37.7502" stroke="#9A4FC5" stroke-width="3"/>
<line x1="81.25" y1="44" x2="90.625" y2="44" stroke="#9A4FC5" stroke-width="3"/>
<line x1="81.25" y1="44" x2="90.625" y2="44" stroke="#9A4FC5" stroke-width="3"/>
<line x1="81.25" y1="50.25" x2="100" y2="50.25" stroke="#9A4FC5" stroke-width="3"/>
<line x1="81.25" y1="50.25" x2="100" y2="50.25" stroke="#9A4FC5" stroke-width="3"/>
<line x1="71.875" y1="69" x2="87.5" y2="69" stroke="#9A4FC5" stroke-width="3"/>
<line x1="71.875" y1="69" x2="87.5" y2="69" stroke="#9A4FC5" stroke-width="3"/>
<line x1="62.5005" y1="75.2502" x2="75.0005" y2="75.2502" stroke="#9A4FC5" stroke-width="3"/>
<line x1="62.5005" y1="75.2502" x2="75.0005" y2="75.2502" stroke="#9A4FC5" stroke-width="3"/>
<line x1="37.5" y1="22" x2="6.25" y2="22" stroke="#25E1DE" stroke-width="3"/>
<line x1="37.5" y1="22" x2="6.25" y2="22" stroke="#25E1DE" stroke-width="3"/>
<line x1="18.75" y1="47" x2="3.125" y2="47" stroke="#25E1DE" stroke-width="3"/>
<line x1="18.75" y1="47" x2="3.125" y2="47" stroke="#25E1DE" stroke-width="3"/>
<line x1="18.75" y1="40.7502" x2="-1.90735e-06" y2="40.7502" stroke="#25E1DE" stroke-width="3"/>
<line x1="18.75" y1="40.7502" x2="-1.90735e-06" y2="40.7502" stroke="#25E1DE" stroke-width="3"/>
<line x1="21.8755" y1="72" x2="6.25049" y2="72" stroke="#25E1DE" stroke-width="3"/>
<line x1="21.8755" y1="72" x2="6.25049" y2="72" stroke="#25E1DE" stroke-width="3"/>
<path d="M81.271 36.1242C78.7846 36.1242 76.4 35.1365 74.6419 33.3783C72.8837 31.6202 71.896 29.2356 71.896 26.7492C71.896 19.968 77.9585 10.468 78.646 9.40547C78.9306 8.97354 79.318 8.61902 79.7735 8.37371C80.2289 8.12841 80.7381 8 81.2554 8C81.7727 8 82.2819 8.12841 82.7373 8.37371C83.1927 8.61902 83.5801 8.97354 83.8647 9.40547C84.5835 10.468 90.646 19.968 90.646 26.7492C90.646 29.2356 89.6583 31.6202 87.9001 33.3783C86.142 35.1365 83.7574 36.1242 81.271 36.1242ZM81.271 17.3742C79.6018 20.2538 78.5384 23.444 78.146 26.7492C78.146 27.578 78.4752 28.3729 79.0613 28.9589C79.6473 29.545 80.4422 29.8742 81.271 29.8742C82.0998 29.8742 82.8947 29.545 83.4807 28.9589C84.0668 28.3729 84.396 27.578 84.396 26.7492C84.0036 23.444 82.9402 20.2538 81.271 17.3742Z" fill="#25E1DE"/>
<path d="M81.272 11.1243C81.272 11.1243 87.522 20.6868 87.522 26.7493C87.522 28.4069 86.8635 29.9966 85.6914 31.1687C84.5193 32.3408 82.9296 32.9993 81.272 32.9993C79.6144 32.9993 78.0247 32.3408 76.8526 31.1687C75.6805 29.9966 75.022 28.4069 75.022 26.7493C75.022 20.6868 81.272 11.1243 81.272 11.1243Z" fill="#C7E7F5"/>
<path d="M62.5207 67.3743C61.7354 67.38 60.9767 67.09 60.3957 66.5618C56.6211 63.3058 51.8733 61.3935 46.8957 61.1243C41.9128 61.412 37.1608 63.3216 33.3644 66.5618C32.7511 67.1212 31.9407 67.4141 31.1114 67.376C30.2821 67.3379 29.502 66.972 28.9425 66.3586C28.3831 65.7453 28.0902 64.9349 28.1283 64.1056C28.1664 63.2764 28.5323 62.4962 29.1457 61.9368C34.0936 57.6433 40.3506 55.1537 46.8957 54.8743C53.4504 55.1351 59.7166 57.6394 64.6457 61.968C65.1026 62.3958 65.4205 62.9509 65.5583 63.5615C65.696 64.1721 65.6473 64.8099 65.4183 65.3925C65.1893 65.975 64.7907 66.4754 64.2741 66.8287C63.7574 67.182 63.1466 67.3721 62.5207 67.3743Z" fill="#26292F"/>
<path d="M40.6465 39.2493H31.2715C30.4427 39.2493 29.6478 38.92 29.0618 38.334C28.4757 37.7479 28.1465 36.9531 28.1465 36.1243C28.1465 35.2955 28.4757 34.5006 29.0618 33.9146C29.6478 33.3285 30.4427 32.9993 31.2715 32.9993H40.6465C41.4753 32.9993 42.2701 33.3285 42.8562 33.9146C43.4422 34.5006 43.7715 35.2955 43.7715 36.1243C43.7715 36.9531 43.4422 37.7479 42.8562 38.334C42.2701 38.92 41.4753 39.2493 40.6465 39.2493Z" fill="#26292F"/>
<path d="M62.5215 39.2493H53.1465C52.3177 39.2493 51.5228 38.92 50.9368 38.334C50.3507 37.7479 50.0215 36.9531 50.0215 36.1243C50.0215 35.2955 50.3507 34.5006 50.9368 33.9146C51.5228 33.3285 52.3177 32.9993 53.1465 32.9993H62.5215C63.3503 32.9993 64.1451 33.3285 64.7312 33.9146C65.3172 34.5006 65.6465 35.2955 65.6465 36.1243C65.6465 36.9531 65.3172 37.7479 64.7312 38.334C64.1451 38.92 63.3503 39.2493 62.5215 39.2493Z" fill="#26292F"/>
</svg>
