<svg width="100" height="100" viewBox="0 0 100 100" fill="none" xmlns="http://www.w3.org/2000/svg">
<rect x="19.9756" y="19.3252" width="66.4146" height="66.4146" fill="#9A4FC5"/>
<rect x="13.6509" y="13" width="66.4146" height="66.4146" fill="#25E1DE"/>
<rect x="16.8135" y="16.1626" width="66.4146" height="66.4146" fill="#FBFDFE"/>
<line x1="76.9023" y1="27.313" x2="89.5527" y2="27.313" stroke="#9A4FC5" stroke-width="3"/>
<line x1="76.9023" y1="27.313" x2="89.5527" y2="27.313" stroke="#9A4FC5" stroke-width="3"/>
<line x1="70.5771" y1="36.801" x2="80.0649" y2="36.801" stroke="#9A4FC5" stroke-width="3"/>
<line x1="70.5771" y1="36.801" x2="80.0649" y2="36.801" stroke="#9A4FC5" stroke-width="3"/>
<line x1="84.0752" y1="43.7529" x2="90.9167" y2="43.7529" stroke="#9A4FC5" stroke-width="3"/>
<line x1="84.0752" y1="43.7529" x2="90.9167" y2="43.7529" stroke="#9A4FC5" stroke-width="3"/>
<line x1="83.0977" y1="49.6169" x2="94.8259" y2="49.6169" stroke="#9A4FC5" stroke-width="3"/>
<line x1="83.0977" y1="49.6169" x2="94.8259" y2="49.6169" stroke="#9A4FC5" stroke-width="3"/>
<line x1="70.3921" y1="68.427" x2="86.2051" y2="68.427" stroke="#9A4FC5" stroke-width="3"/>
<line x1="70.3921" y1="68.427" x2="86.2051" y2="68.427" stroke="#9A4FC5" stroke-width="3"/>
<path d="M59.6411 77.0166H72.2915" stroke="#9A4FC5" stroke-width="3"/>
<path d="M59.6411 77.0166H72.2915" stroke="#9A4FC5" stroke-width="3"/>
<line x1="38.9512" y1="20.8252" x2="7.3252" y2="20.8252" stroke="#25E1DE" stroke-width="3"/>
<line x1="38.9512" y1="20.8252" x2="7.3252" y2="20.8252" stroke="#25E1DE" stroke-width="3"/>
<line x1="19.9756" y1="46.1257" x2="4.1626" y2="46.1257" stroke="#25E1DE" stroke-width="3"/>
<line x1="19.9756" y1="46.1257" x2="4.1626" y2="46.1257" stroke="#25E1DE" stroke-width="3"/>
<line x1="19.9756" y1="39.8008" x2="0.999998" y2="39.8008" stroke="#25E1DE" stroke-width="3"/>
<line x1="19.9756" y1="39.8008" x2="0.999998" y2="39.8008" stroke="#25E1DE" stroke-width="3"/>
<line x1="23.1382" y1="71.4268" x2="7.3252" y2="71.4268" stroke="#25E1DE" stroke-width="3"/>
<line x1="23.1382" y1="71.4268" x2="7.3252" y2="71.4268" stroke="#25E1DE" stroke-width="3"/>
<path d="M82.2786 73.2479C81.449 73.2444 80.6539 72.915 80.0648 72.3308L70.577 62.843C66.3708 58.5102 63.7458 51.2362 67.0033 46.2393C67.891 44.8357 69.1056 43.668 70.5431 42.8364C71.9807 42.0047 73.5983 41.5337 75.2577 41.4638C77.7772 41.3776 80.2518 42.1467 82.2786 43.646C84.3066 42.149 86.7803 41.3801 89.2996 41.4638C90.9615 41.5252 92.5836 41.989 94.0269 42.8152C95.4701 43.6415 96.6913 44.8056 97.5856 46.2077C100.748 51.2362 98.1865 58.4786 94.0435 62.7797L84.5557 72.2675C84.2617 72.5759 83.9085 72.8217 83.5172 72.9901C83.1259 73.1586 82.7046 73.2463 82.2786 73.2479ZM75.6688 47.789H75.5107C74.8696 47.8271 74.2473 48.0195 73.6966 48.3499C73.146 48.6803 72.6833 49.1388 72.3481 49.6866C71.0514 51.679 72.7592 56.0118 75.1312 58.4153L82.3419 65.6261L89.5526 58.3521C91.8929 55.9169 93.6007 51.679 92.3041 49.6549C91.9688 49.1072 91.5062 48.6486 90.9555 48.3182C90.4049 47.9879 89.7825 47.7954 89.1415 47.7574C88.3095 47.7659 87.4908 47.9675 86.75 48.3462C86.0091 48.7248 85.3662 49.2703 84.872 49.9396C84.5768 50.3264 84.1964 50.6399 83.7603 50.8557C83.3242 51.0714 82.8442 51.1837 82.3577 51.1837C81.8711 51.1837 81.3911 51.0714 80.9551 50.8557C80.519 50.6399 80.1386 50.3264 79.8434 49.9396C79.3606 49.2834 78.7325 48.7479 78.0083 48.3748C77.2841 48.0017 76.4834 47.8012 75.6688 47.789Z" fill="white"/>
<path d="M82.2784 48.0416C82.9757 47.0045 83.9173 46.1547 85.0203 45.5672C86.1233 44.9797 87.3538 44.6724 88.6036 44.6724C89.8533 44.6724 91.0839 44.9797 92.1869 45.5672C93.2899 46.1547 94.2315 47.0045 94.9288 48.0416C97.364 51.7735 94.739 57.5294 91.7662 60.692L82.2784 70.1798L72.7906 60.692C69.8177 57.5294 67.1928 51.7735 69.628 48.0416C70.3253 47.0045 71.2669 46.1547 72.3699 45.5672C73.4729 44.9797 74.7034 44.6724 75.9532 44.6724C77.2029 44.6724 78.4335 44.9797 79.5365 45.5672C80.6395 46.1547 81.5811 47.0045 82.2784 48.0416Z" fill="#D894FF"/>
<path d="M35.7886 38.3008C34.111 38.3008 32.5022 37.6344 31.316 36.4482C30.1298 35.262 29.4634 33.6531 29.4634 31.9756C29.4634 31.1368 29.7966 30.3324 30.3897 29.7393C30.9828 29.1462 31.7872 28.813 32.626 28.813C33.4647 28.813 34.2692 29.1462 34.8623 29.7393C35.4554 30.3324 35.7886 31.1368 35.7886 31.9756C35.7886 31.1368 36.1218 30.3324 36.7149 29.7393C37.308 29.1462 38.1124 28.813 38.9512 28.813C39.7899 28.813 40.5944 29.1462 41.1875 29.7393C41.7806 30.3324 42.1138 31.1368 42.1138 31.9756C42.1138 33.6531 41.4474 35.262 40.2612 36.4482C39.075 37.6344 37.4661 38.3008 35.7886 38.3008Z" fill="#26292F"/>
<path d="M61.0898 38.3008C59.4123 38.3008 57.8035 37.6344 56.6173 36.4482C55.4311 35.262 54.7646 33.6531 54.7646 31.9756C54.7646 31.1368 55.0978 30.3324 55.6909 29.7393C56.2841 29.1462 57.0885 28.813 57.9272 28.813C58.766 28.813 59.5704 29.1462 60.1635 29.7393C60.7566 30.3324 61.0898 31.1368 61.0898 31.9756C61.0898 31.1368 61.423 30.3324 62.0161 29.7393C62.6092 29.1462 63.4137 28.813 64.2524 28.813C65.0912 28.813 65.8956 29.1462 66.4887 29.7393C67.0818 30.3324 67.415 31.1368 67.415 31.9756C67.415 33.6531 66.7486 35.262 65.5624 36.4482C64.3762 37.6344 62.7674 38.3008 61.0898 38.3008Z" fill="#26292F"/>
<path d="M57.9272 49.3699C57.9272 47.2729 57.0942 45.2619 55.6115 43.7791C54.1287 42.2964 52.1177 41.4634 50.0208 41.4634H48.4395C47.6007 41.4634 46.7963 41.7966 46.2032 42.3897C45.6101 42.9828 45.2769 43.7872 45.2769 44.626C45.2769 45.4647 45.6101 46.2692 46.2032 46.8623C46.7963 47.4554 47.6007 47.7886 48.4395 47.7886H50.0208C50.4401 47.7886 50.8423 47.9552 51.1389 48.2517C51.4355 48.5483 51.6021 48.9505 51.6021 49.3699C51.6021 49.7893 51.4355 50.1915 51.1389 50.488C50.8423 50.7846 50.4401 50.9512 50.0208 50.9512C49.182 50.9512 48.3776 51.2844 47.7845 51.8775C47.1914 52.4706 46.8582 53.275 46.8582 54.1138C46.8582 54.9525 47.1914 55.757 47.7845 56.3501C48.3776 56.9432 49.182 57.2764 50.0208 57.2764C50.4401 57.2764 50.8423 57.443 51.1389 57.7395C51.4355 58.0361 51.6021 58.4383 51.6021 58.8577C51.6021 59.2771 51.4355 59.6793 51.1389 59.9758C50.8423 60.2724 50.4401 60.439 50.0208 60.439H48.4395C47.6007 60.439 46.7963 60.7722 46.2032 61.3653C45.6101 61.9584 45.2769 62.7628 45.2769 63.6016C45.2769 64.4403 45.6101 65.2448 46.2032 65.8379C46.7963 66.431 47.6007 66.7642 48.4395 66.7642H50.0208C52.1177 66.7642 54.1287 65.9312 55.6115 64.4484C57.0942 62.9656 57.9272 60.9546 57.9272 58.8577C57.9228 57.1425 57.3562 55.4762 56.3143 54.1138C57.3562 52.7514 57.9228 51.085 57.9272 49.3699Z" fill="#26292F"/>
</svg>
