<svg width="100" height="100" viewBox="0 0 100 100" fill="none" xmlns="http://www.w3.org/2000/svg">
<rect x="19.375" y="20.1875" width="64.3125" height="64.3125" fill="#9A4FC5"/>
<rect x="13.25" y="14.0625" width="64.3125" height="64.3125" fill="#25E1DE"/>
<rect x="16.3125" y="17.125" width="64.3125" height="64.3125" fill="#FBFDFE"/>
<line x1="74.5" y1="27.875" x2="86.75" y2="27.875" stroke="#9A4FC5" stroke-width="3"/>
<line x1="74.5" y1="27.875" x2="86.75" y2="27.875" stroke="#9A4FC5" stroke-width="3"/>
<line x1="68.375" y1="37.0625" x2="77.5625" y2="37.0625" stroke="#9A4FC5" stroke-width="3"/>
<line x1="68.375" y1="37.0625" x2="77.5625" y2="37.0625" stroke="#9A4FC5" stroke-width="3"/>
<line x1="80.625" y1="43.1875" x2="89.8125" y2="43.1875" stroke="#9A4FC5" stroke-width="3"/>
<line x1="80.625" y1="43.1875" x2="89.8125" y2="43.1875" stroke="#9A4FC5" stroke-width="3"/>
<line x1="80.625" y1="49.3125" x2="99" y2="49.3125" stroke="#9A4FC5" stroke-width="3"/>
<line x1="80.625" y1="49.3125" x2="99" y2="49.3125" stroke="#9A4FC5" stroke-width="3"/>
<line x1="71.4375" y1="67.6875" x2="86.75" y2="67.6875" stroke="#9A4FC5" stroke-width="3"/>
<line x1="71.4375" y1="67.6875" x2="86.75" y2="67.6875" stroke="#9A4FC5" stroke-width="3"/>
<line x1="62.25" y1="73.8125" x2="74.5" y2="73.8125" stroke="#9A4FC5" stroke-width="3"/>
<line x1="62.25" y1="73.8125" x2="74.5" y2="73.8125" stroke="#9A4FC5" stroke-width="3"/>
<line x1="37.75" y1="21.6875" x2="7.125" y2="21.6875" stroke="#25E1DE" stroke-width="3"/>
<line x1="37.75" y1="21.6875" x2="7.125" y2="21.6875" stroke="#25E1DE" stroke-width="3"/>
<line x1="19.375" y1="46.1875" x2="4.0625" y2="46.1875" stroke="#25E1DE" stroke-width="3"/>
<line x1="19.375" y1="46.1875" x2="4.0625" y2="46.1875" stroke="#25E1DE" stroke-width="3"/>
<line x1="19.375" y1="40.0625" x2="1" y2="40.0625" stroke="#25E1DE" stroke-width="3"/>
<line x1="19.375" y1="40.0625" x2="1" y2="40.0625" stroke="#25E1DE" stroke-width="3"/>
<line x1="22.4375" y1="70.6875" x2="7.125" y2="70.6875" stroke="#25E1DE" stroke-width="3"/>
<line x1="22.4375" y1="70.6875" x2="7.125" y2="70.6875" stroke="#25E1DE" stroke-width="3"/>
<path d="M62.9558 65.237L59.0051 61.2557L55.0545 65.2064C54.4807 65.7768 53.7045 66.0969 52.8955 66.0969C52.0864 66.0969 51.3102 65.7768 50.7364 65.2064L46.7551 61.2557L42.8045 65.2064C42.2307 65.7768 41.4545 66.0969 40.6455 66.0969C39.8364 66.0969 39.0602 65.7768 38.4864 65.2064L34.5052 61.2557L30.5545 65.237C29.9687 65.7387 29.2151 66.0009 28.4443 65.9711C27.6735 65.9413 26.9424 65.6218 26.397 65.0764C25.8516 64.531 25.5321 63.7999 25.5023 63.0291C25.4725 62.2583 25.7347 61.5047 26.2364 60.9189L32.3614 54.7939C32.9352 54.2235 33.7114 53.9033 34.5205 53.9033C35.3295 53.9033 36.1057 54.2235 36.6795 54.7939L40.6302 58.7445L44.5808 54.7939C45.1546 54.2235 45.9308 53.9033 46.7398 53.9033C47.5489 53.9033 48.3251 54.2235 48.8989 54.7939L52.8801 58.7445L56.8308 54.7939C57.4046 54.2235 58.1808 53.9033 58.9898 53.9033C59.7989 53.9033 60.5751 54.2235 61.1489 54.7939L67.2739 60.9189C67.7756 61.5047 68.0378 62.2583 68.008 63.0291C67.9782 63.7999 67.6587 64.531 67.1133 65.0764C66.5679 65.6218 65.8368 65.9413 65.066 65.9711C64.2952 66.0009 63.5416 65.7387 62.9558 65.237Z" fill="#26292F"/>
<path d="M31.4429 41.625L37.5679 35.5" stroke="#26292F" stroke-width="5" stroke-linecap="round" stroke-linejoin="round"/>
<path d="M31.4429 35.5L37.5679 41.625" stroke="#26292F" stroke-width="5" stroke-linecap="round" stroke-linejoin="round"/>
<path d="M55.9429 41.625L62.0679 35.5" stroke="#26292F" stroke-width="5" stroke-linecap="round" stroke-linejoin="round"/>
<path d="M55.9429 35.5L62.0679 41.625" stroke="#26292F" stroke-width="5" stroke-linecap="round" stroke-linejoin="round"/>
<path d="M55.9429 14.0625V23.25M68.1929 11V26.3125" stroke="#26292F" stroke-width="5" stroke-linecap="round"/>
</svg>
