<svg width="100" height="100" viewBox="0 0 100 100" fill="none" xmlns="http://www.w3.org/2000/svg">
<rect x="19.375" y="20.1252" width="64.3125" height="64.3125" fill="#9A4FC5"/>
<rect x="13.25" y="14" width="64.3125" height="64.3125" fill="#25E1DE"/>
<rect x="16.3125" y="17.0625" width="64.3125" height="64.3125" fill="#FBFDFE"/>
<line x1="74.5" y1="27.8125" x2="86.75" y2="27.8125" stroke="#9A4FC5" stroke-width="3"/>
<line x1="74.5" y1="27.8125" x2="86.75" y2="27.8125" stroke="#9A4FC5" stroke-width="3"/>
<line x1="68.375" y1="37.0002" x2="77.5625" y2="37.0002" stroke="#9A4FC5" stroke-width="3"/>
<line x1="68.375" y1="37.0002" x2="77.5625" y2="37.0002" stroke="#9A4FC5" stroke-width="3"/>
<line x1="80.625" y1="43.125" x2="89.8125" y2="43.125" stroke="#9A4FC5" stroke-width="3"/>
<line x1="80.625" y1="43.125" x2="89.8125" y2="43.125" stroke="#9A4FC5" stroke-width="3"/>
<line x1="80.625" y1="49.25" x2="99" y2="49.25" stroke="#9A4FC5" stroke-width="3"/>
<line x1="80.625" y1="49.25" x2="99" y2="49.25" stroke="#9A4FC5" stroke-width="3"/>
<line x1="71.4375" y1="67.625" x2="86.75" y2="67.625" stroke="#9A4FC5" stroke-width="3"/>
<line x1="71.4375" y1="67.625" x2="86.75" y2="67.625" stroke="#9A4FC5" stroke-width="3"/>
<line x1="62.2495" y1="73.7502" x2="74.4995" y2="73.7502" stroke="#9A4FC5" stroke-width="3"/>
<line x1="62.2495" y1="73.7502" x2="74.4995" y2="73.7502" stroke="#9A4FC5" stroke-width="3"/>
<line x1="37.75" y1="21.6252" x2="7.125" y2="21.6252" stroke="#25E1DE" stroke-width="3"/>
<line x1="37.75" y1="21.6252" x2="7.125" y2="21.6252" stroke="#25E1DE" stroke-width="3"/>
<line x1="19.375" y1="46.125" x2="4.0625" y2="46.125" stroke="#25E1DE" stroke-width="3"/>
<line x1="19.375" y1="46.125" x2="4.0625" y2="46.125" stroke="#25E1DE" stroke-width="3"/>
<line x1="19.375" y1="40.0002" x2="1" y2="40.0002" stroke="#25E1DE" stroke-width="3"/>
<line x1="19.375" y1="40.0002" x2="1" y2="40.0002" stroke="#25E1DE" stroke-width="3"/>
<line x1="22.437" y1="70.625" x2="7.12451" y2="70.625" stroke="#25E1DE" stroke-width="3"/>
<line x1="22.437" y1="70.625" x2="7.12451" y2="70.625" stroke="#25E1DE" stroke-width="3"/>
<path d="M62.25 63C61.4378 63 60.6588 62.6773 60.0845 62.103C59.5102 61.5287 59.1875 60.7497 59.1875 59.9375C59.1875 54.8844 53.7056 50.75 46.9375 50.75C40.1694 50.75 34.6875 54.8844 34.6875 59.9375C34.6875 60.7497 34.3648 61.5287 33.7905 62.103C33.2162 62.6773 32.4372 63 31.625 63C30.8128 63 30.0338 62.6773 29.4595 62.103C28.8852 61.5287 28.5625 60.7497 28.5625 59.9375C28.5625 51.485 36.8006 44.625 46.9375 44.625C57.0744 44.625 65.3125 51.485 65.3125 59.9375C65.3125 60.7497 64.9898 61.5287 64.4155 62.103C63.8412 62.6773 63.0622 63 62.25 63Z" fill="#26292F"/>
<path d="M37.75 38.5C36.9378 38.5 36.1588 38.1773 35.5845 37.603C35.0102 37.0287 34.6875 36.2497 34.6875 35.4375C34.6875 36.2497 34.3648 37.0287 33.7905 37.603C33.2162 38.1773 32.4372 38.5 31.625 38.5C30.8128 38.5 30.0338 38.1773 29.4595 37.603C28.8852 37.0287 28.5625 36.2497 28.5625 35.4375C28.5625 33.813 29.2078 32.2551 30.3565 31.1065C31.5051 29.9578 33.063 29.3125 34.6875 29.3125C36.312 29.3125 37.8699 29.9578 39.0185 31.1065C40.1672 32.2551 40.8125 33.813 40.8125 35.4375C40.8125 36.2497 40.4898 37.0287 39.9155 37.603C39.3412 38.1773 38.5622 38.5 37.75 38.5Z" fill="#26292F"/>
<path d="M62.25 38.5C61.4378 38.5 60.6588 38.1773 60.0845 37.603C59.5102 37.0287 59.1875 36.2497 59.1875 35.4375C59.1875 36.2497 58.8648 37.0287 58.2905 37.603C57.7162 38.1773 56.9372 38.5 56.125 38.5C55.3128 38.5 54.5338 38.1773 53.9595 37.603C53.3852 37.0287 53.0625 36.2497 53.0625 35.4375C53.0625 33.813 53.7078 32.2551 54.8565 31.1065C56.0051 29.9578 57.563 29.3125 59.1875 29.3125C60.812 29.3125 62.3699 29.9578 63.5185 31.1065C64.6672 32.2551 65.3125 33.813 65.3125 35.4375C65.3125 36.2497 64.9898 37.0287 64.4155 37.603C63.8412 38.1773 63.0622 38.5 62.25 38.5Z" fill="#26292F"/>
</svg>
