<svg width="100" height="100" viewBox="0 0 100 100" fill="none" xmlns="http://www.w3.org/2000/svg">
<rect x="19.415" y="18.4719" width="67.9535" height="67.9535" fill="#9A4FC5"/>
<rect x="12.9434" y="12" width="67.9535" height="67.9535" fill="#25E1DE"/>
<rect x="16.1792" y="15.2358" width="67.9535" height="67.9535" fill="#FBFDFE"/>
<line x1="77.6611" y1="26.6794" x2="90.6047" y2="26.6794" stroke="#9A4FC5" stroke-width="3"/>
<line x1="77.6611" y1="26.6794" x2="90.6047" y2="26.6794" stroke="#9A4FC5" stroke-width="3"/>
<line x1="71.1895" y1="36.3872" x2="80.8971" y2="36.3872" stroke="#9A4FC5" stroke-width="3"/>
<line x1="71.1895" y1="36.3872" x2="80.8971" y2="36.3872" stroke="#9A4FC5" stroke-width="3"/>
<line x1="84.1328" y1="42.8589" x2="93.8405" y2="42.8589" stroke="#9A4FC5" stroke-width="3"/>
<line x1="84.1328" y1="42.8589" x2="93.8405" y2="42.8589" stroke="#9A4FC5" stroke-width="3"/>
<path d="M84.1328 49.3306L99.5 49.3306" stroke="#9A4FC5" stroke-width="3"/>
<path d="M84.1328 49.3306L99.5 49.3306" stroke="#9A4FC5" stroke-width="3"/>
<line x1="74.4253" y1="68.7458" x2="90.6047" y2="68.7458" stroke="#9A4FC5" stroke-width="3"/>
<line x1="74.4253" y1="68.7458" x2="90.6047" y2="68.7458" stroke="#9A4FC5" stroke-width="3"/>
<line x1="64.7178" y1="75.2178" x2="77.6613" y2="75.2178" stroke="#9A4FC5" stroke-width="3"/>
<line x1="64.7178" y1="75.2178" x2="77.6613" y2="75.2178" stroke="#9A4FC5" stroke-width="3"/>
<line x1="38.8306" y1="19.9719" x2="6.47176" y2="19.9719" stroke="#25E1DE" stroke-width="3"/>
<line x1="38.8306" y1="19.9719" x2="6.47176" y2="19.9719" stroke="#25E1DE" stroke-width="3"/>
<line x1="19.415" y1="45.8589" x2="3.23564" y2="45.8589" stroke="#25E1DE" stroke-width="3"/>
<line x1="19.415" y1="45.8589" x2="3.23564" y2="45.8589" stroke="#25E1DE" stroke-width="3"/>
<line x1="19.415" y1="39.3872" x2="-0.000244141" y2="39.3872" stroke="#25E1DE" stroke-width="3"/>
<line x1="19.415" y1="39.3872" x2="-0.000244141" y2="39.3872" stroke="#25E1DE" stroke-width="3"/>
<line x1="22.6514" y1="71.7458" x2="6.47197" y2="71.7458" stroke="#25E1DE" stroke-width="3"/>
<line x1="22.6514" y1="71.7458" x2="6.47197" y2="71.7458" stroke="#25E1DE" stroke-width="3"/>
<path d="M55.01 54.0663C42.4548 54.0663 41.2898 54.5841 39.8013 53.1279C39.0846 54.6079 38.7555 56.2456 38.8449 57.8875C38.9344 59.5294 39.4395 61.1217 40.3128 62.515C41.1861 63.9083 42.399 65.0569 43.8377 65.8531C45.2764 66.6493 46.8939 67.067 48.5382 67.067C50.1826 67.067 51.8 66.6493 53.2387 65.8531C54.6774 65.0569 55.8904 63.9083 56.7637 62.515C57.6369 61.1217 58.142 59.5294 58.2315 57.8875C58.3209 56.2456 57.9918 54.6079 57.2751 53.1279C56.6724 53.7257 55.8589 54.0628 55.01 54.0663Z" fill="#26292F"/>
<path d="M48.5383 44.3589C45.9783 44.3589 43.4758 45.118 41.3472 46.5403C39.2187 47.9625 37.5597 49.984 36.58 52.3491C35.6003 54.7143 35.344 57.3168 35.8434 59.8276C36.3429 62.3384 37.5756 64.6447 39.3858 66.4549C41.196 68.265 43.5023 69.4978 46.0131 69.9972C48.5239 70.4967 51.1264 70.2403 53.4915 69.2607C55.8566 68.281 57.8781 66.622 59.3004 64.4934C60.7227 62.3649 61.4818 59.8624 61.4818 57.3024C61.4818 53.8696 60.1181 50.5773 57.6907 48.15C55.2633 45.7226 51.9711 44.3589 48.5383 44.3589ZM48.5383 63.7742C47.4055 63.7674 46.2944 63.4634 45.316 62.8926C44.3376 62.3218 43.5261 61.5042 42.9627 60.5215C42.3993 59.5388 42.1037 58.4254 42.1054 57.2927C42.1072 56.1599 42.4061 55.0475 42.9725 54.0665H54.104C54.6704 55.0475 54.9694 56.1599 54.9711 57.2927C54.9728 58.4254 54.6772 59.5388 54.1138 60.5215C53.5504 61.5042 52.7389 62.3218 51.7605 62.8926C50.7821 63.4634 49.671 63.7674 48.5383 63.7742Z" fill="#26292F"/>
<path d="M32.3589 37.887L38.8306 31.4153" stroke="#26292F" stroke-width="5" stroke-linecap="round" stroke-linejoin="round"/>
<path d="M32.3589 31.4153L38.8306 37.887" stroke="#26292F" stroke-width="5" stroke-linecap="round" stroke-linejoin="round"/>
<path d="M58.2456 37.887L64.7174 31.4153" stroke="#26292F" stroke-width="5" stroke-linecap="round" stroke-linejoin="round"/>
<path d="M58.2456 31.4153L64.7174 37.887" stroke="#26292F" stroke-width="5" stroke-linecap="round" stroke-linejoin="round"/>
</svg>
