<svg width="100" height="100" viewBox="0 0 100 100" fill="none" xmlns="http://www.w3.org/2000/svg">
<rect x="19.522" y="20.1741" width="64.8261" height="64.8261" fill="#9A4FC5"/>
<rect x="13.3481" y="14" width="64.8261" height="64.8261" fill="#25E1DE"/>
<rect x="16.4351" y="17.0869" width="64.8261" height="64.8261" fill="#FBFDFE"/>
<line x1="75.0874" y1="27.9348" x2="87.4352" y2="27.9348" stroke="#9A4FC5" stroke-width="3"/>
<line x1="75.0874" y1="27.9348" x2="87.4352" y2="27.9348" stroke="#9A4FC5" stroke-width="3"/>
<line x1="68.9136" y1="37.1958" x2="78.1744" y2="37.1958" stroke="#9A4FC5" stroke-width="3"/>
<line x1="68.9136" y1="37.1958" x2="78.1744" y2="37.1958" stroke="#9A4FC5" stroke-width="3"/>
<line x1="81.2612" y1="43.3696" x2="90.5221" y2="43.3696" stroke="#9A4FC5" stroke-width="3"/>
<line x1="81.2612" y1="43.3696" x2="90.5221" y2="43.3696" stroke="#9A4FC5" stroke-width="3"/>
<line x1="81.2612" y1="49.5435" x2="99.783" y2="49.5435" stroke="#9A4FC5" stroke-width="3"/>
<line x1="81.2612" y1="49.5435" x2="99.783" y2="49.5435" stroke="#9A4FC5" stroke-width="3"/>
<line x1="72.0005" y1="68.0652" x2="87.4353" y2="68.0652" stroke="#9A4FC5" stroke-width="3"/>
<line x1="72.0005" y1="68.0652" x2="87.4353" y2="68.0652" stroke="#9A4FC5" stroke-width="3"/>
<line x1="62.7397" y1="74.2393" x2="75.0876" y2="74.2393" stroke="#9A4FC5" stroke-width="3"/>
<line x1="62.7397" y1="74.2393" x2="75.0876" y2="74.2393" stroke="#9A4FC5" stroke-width="3"/>
<line x1="38.0439" y1="21.6741" x2="7.17438" y2="21.6741" stroke="#25E1DE" stroke-width="3"/>
<line x1="38.0439" y1="21.6741" x2="7.17438" y2="21.6741" stroke="#25E1DE" stroke-width="3"/>
<line x1="19.522" y1="46.3696" x2="4.08719" y2="46.3696" stroke="#25E1DE" stroke-width="3"/>
<line x1="19.522" y1="46.3696" x2="4.08719" y2="46.3696" stroke="#25E1DE" stroke-width="3"/>
<line x1="19.522" y1="40.1958" x2="1.00023" y2="40.1958" stroke="#25E1DE" stroke-width="3"/>
<line x1="19.522" y1="40.1958" x2="1.00023" y2="40.1958" stroke="#25E1DE" stroke-width="3"/>
<line x1="22.6089" y1="71.0652" x2="7.1741" y2="71.0652" stroke="#25E1DE" stroke-width="3"/>
<line x1="22.6089" y1="71.0652" x2="7.1741" y2="71.0652" stroke="#25E1DE" stroke-width="3"/>
<path d="M56.5657 63.3914H38.044C37.2253 63.3914 36.4401 63.0662 35.8612 62.4873C35.2823 61.9084 34.957 61.1232 34.957 60.3045C34.957 59.4858 35.2823 58.7006 35.8612 58.1217C36.4401 57.5428 37.2253 57.2175 38.044 57.2175H56.5657C57.3844 57.2175 58.1696 57.5428 58.7485 58.1217C59.3275 58.7006 59.6527 59.4858 59.6527 60.3045C59.6527 61.1232 59.3275 61.9084 58.7485 62.4873C58.1696 63.0662 57.3844 63.3914 56.5657 63.3914Z" fill="#26292F"/>
<path d="M31.8698 47.9566C36.9844 47.9566 41.1306 43.8103 41.1306 38.6957C41.1306 33.581 36.9844 29.4348 31.8698 29.4348C26.7551 29.4348 22.6089 33.581 22.6089 38.6957C22.6089 43.8103 26.7551 47.9566 31.8698 47.9566Z" fill="white"/>
<path d="M31.8698 51.0436C29.4276 51.0436 27.0403 50.3194 25.0097 48.9626C22.9791 47.6058 21.3965 45.6773 20.4619 43.421C19.5273 41.1648 19.2828 38.682 19.7592 36.2868C20.2357 33.8915 21.4117 31.6914 23.1386 29.9645C24.8654 28.2376 27.0656 27.0616 29.4609 26.5852C31.8561 26.1087 34.3388 26.3533 36.5951 27.2878C38.8514 28.2224 40.7799 29.8051 42.1366 31.8356C43.4934 33.8662 44.2176 36.2536 44.2176 38.6957C44.2176 41.9706 42.9167 45.1113 40.601 47.427C38.2854 49.7426 35.1447 51.0436 31.8698 51.0436ZM31.8698 32.5218C30.6487 32.5218 29.4551 32.8839 28.4398 33.5623C27.4245 34.2407 26.6331 35.2049 26.1659 36.3331C25.6986 37.4612 25.5763 38.7026 25.8145 39.9002C26.0527 41.0978 26.6408 42.1979 27.5042 43.0613C28.3676 43.9248 29.4677 44.5128 30.6653 44.751C31.863 44.9892 33.1043 44.867 34.2325 44.3997C35.3606 43.9324 36.3248 43.1411 37.0032 42.1258C37.6816 41.1105 38.0437 39.9168 38.0437 38.6957C38.0437 37.0583 37.3933 35.488 36.2354 34.3301C35.0776 33.1723 33.5072 32.5218 31.8698 32.5218Z" fill="#26292F"/>
<path d="M62.7394 47.9566C67.854 47.9566 72.0003 43.8103 72.0003 38.6957C72.0003 33.581 67.854 29.4348 62.7394 29.4348C57.6247 29.4348 53.4785 33.581 53.4785 38.6957C53.4785 43.8103 57.6247 47.9566 62.7394 47.9566Z" fill="white"/>
<path d="M62.7394 51.0436C60.2973 51.0436 57.9099 50.3194 55.8794 48.9626C53.8488 47.6058 52.2661 45.6773 51.3315 43.421C50.397 41.1648 50.1524 38.682 50.6289 36.2868C51.1053 33.8915 52.2813 31.6914 54.0082 29.9645C55.7351 28.2376 57.9352 27.0616 60.3305 26.5852C62.7257 26.1087 65.2085 26.3533 67.4647 27.2878C69.721 28.2224 71.6495 29.8051 73.0063 31.8356C74.3631 33.8662 75.0873 36.2536 75.0873 38.6957C75.0873 41.9706 73.7863 45.1113 71.4707 47.427C69.155 49.7426 66.0143 51.0436 62.7394 51.0436ZM62.7394 32.5218C61.5184 32.5218 60.3247 32.8839 59.3094 33.5623C58.2941 34.2407 57.5028 35.2049 57.0355 36.3331C56.5682 37.4612 56.4459 38.7026 56.6842 39.9002C56.9224 41.0978 57.5104 42.1979 58.3738 43.0613C59.2373 43.9248 60.3373 44.5128 61.535 44.751C62.7326 44.9892 63.974 44.867 65.1021 44.3997C66.2302 43.9324 67.1945 43.1411 67.8729 42.1258C68.5513 41.1105 68.9133 39.9168 68.9133 38.6957C68.9133 37.0583 68.2629 35.488 67.105 34.3301C65.9472 33.1723 64.3769 32.5218 62.7394 32.5218Z" fill="#26292F"/>
<path d="M31.8706 41.7825C31.4643 41.7848 31.0616 41.707 30.6855 41.5533C30.3094 41.3997 29.9673 41.1734 29.6788 40.8873C29.0976 40.306 28.771 39.5176 28.771 38.6955C28.771 37.8735 29.0976 37.0851 29.6788 36.5038C30.2601 35.9225 31.0485 35.5959 31.8706 35.5959C32.6926 35.5959 33.481 35.9225 34.0623 36.5038C34.3484 36.7922 34.5748 37.1343 34.7284 37.5104C34.882 37.8865 34.9599 38.2893 34.9575 38.6955C34.9462 39.5129 34.6264 40.2957 34.0623 40.8873C33.7739 41.1734 33.4318 41.3997 33.0557 41.5533C32.6796 41.707 32.2768 41.7848 31.8706 41.7825Z" fill="#26292F"/>
<path d="M62.7397 41.7825C62.1265 41.7861 61.5262 41.6069 61.0153 41.268C60.5043 40.929 60.1059 40.4456 59.8707 39.8793C59.6356 39.313 59.5745 38.6896 59.6951 38.0884C59.8157 37.4872 60.1126 36.9356 60.5479 36.5038C61.1292 35.9225 61.9176 35.5959 62.7397 35.5959C63.5617 35.5959 64.3501 35.9225 64.9314 36.5038C65.5127 37.0851 65.8393 37.8735 65.8393 38.6955C65.8393 39.5176 65.5127 40.306 64.9314 40.8873C64.3398 41.4514 63.557 41.7711 62.7397 41.7825Z" fill="#26292F"/>
</svg>
