<svg width="100" height="100" viewBox="0 0 100 100" fill="none" xmlns="http://www.w3.org/2000/svg">
<rect x="19.8696" y="20.0872" width="63.913" height="63.913" fill="#9A4FC5"/>
<rect x="13.7832" y="14" width="63.913" height="63.913" fill="#25E1DE"/>
<rect x="16.8267" y="17.0435" width="63.913" height="63.913" fill="#FBFDFE"/>
<line x1="74.6523" y1="27.7173" x2="86.8263" y2="27.7173" stroke="#9A4FC5" stroke-width="3"/>
<line x1="74.6523" y1="27.7173" x2="86.8263" y2="27.7173" stroke="#9A4FC5" stroke-width="3"/>
<line x1="68.5654" y1="36.8481" x2="77.6959" y2="36.8481" stroke="#9A4FC5" stroke-width="3"/>
<line x1="68.5654" y1="36.8481" x2="77.6959" y2="36.8481" stroke="#9A4FC5" stroke-width="3"/>
<line x1="80.7397" y1="42.9348" x2="89.8702" y2="42.9348" stroke="#9A4FC5" stroke-width="3"/>
<line x1="80.7397" y1="42.9348" x2="89.8702" y2="42.9348" stroke="#9A4FC5" stroke-width="3"/>
<line x1="80.7397" y1="49.0217" x2="99.0006" y2="49.0217" stroke="#9A4FC5" stroke-width="3"/>
<line x1="80.7397" y1="49.0217" x2="99.0006" y2="49.0217" stroke="#9A4FC5" stroke-width="3"/>
<line x1="71.6089" y1="67.2827" x2="86.8263" y2="67.2827" stroke="#9A4FC5" stroke-width="3"/>
<line x1="71.6089" y1="67.2827" x2="86.8263" y2="67.2827" stroke="#9A4FC5" stroke-width="3"/>
<line x1="62.478" y1="73.3699" x2="74.6519" y2="73.3699" stroke="#9A4FC5" stroke-width="3"/>
<line x1="62.478" y1="73.3699" x2="74.6519" y2="73.3699" stroke="#9A4FC5" stroke-width="3"/>
<line x1="38.1304" y1="21.5872" x2="7.69559" y2="21.5872" stroke="#25E1DE" stroke-width="3"/>
<line x1="38.1304" y1="21.5872" x2="7.69559" y2="21.5872" stroke="#25E1DE" stroke-width="3"/>
<line x1="19.8696" y1="45.9348" x2="4.65224" y2="45.9348" stroke="#25E1DE" stroke-width="3"/>
<line x1="19.8696" y1="45.9348" x2="4.65224" y2="45.9348" stroke="#25E1DE" stroke-width="3"/>
<line x1="19.8696" y1="39.8481" x2="1.60876" y2="39.8481" stroke="#25E1DE" stroke-width="3"/>
<line x1="19.8696" y1="39.8481" x2="1.60876" y2="39.8481" stroke="#25E1DE" stroke-width="3"/>
<line x1="22.9131" y1="70.2827" x2="7.69569" y2="70.2827" stroke="#25E1DE" stroke-width="3"/>
<line x1="22.9131" y1="70.2827" x2="7.69569" y2="70.2827" stroke="#25E1DE" stroke-width="3"/>
<path d="M62.4783 65.7391C61.6711 65.7391 60.897 65.4185 60.3262 64.8477C59.7554 64.277 59.4348 63.5028 59.4348 62.6957C59.4348 57.6739 53.987 53.5652 47.2609 53.5652C40.5348 53.5652 35.087 57.6739 35.087 62.6957C35.087 63.5028 34.7663 64.277 34.1955 64.8477C33.6248 65.4185 32.8507 65.7391 32.0435 65.7391C31.2363 65.7391 30.4622 65.4185 29.8914 64.8477C29.3207 64.277 29 63.5028 29 62.6957C29 54.2957 37.187 47.4783 47.2609 47.4783C57.3348 47.4783 65.5217 54.2957 65.5217 62.6957C65.5217 63.5028 65.2011 64.277 64.6303 64.8477C64.0596 65.4185 63.2854 65.7391 62.4783 65.7391Z" fill="#26292F"/>
<path d="M32.0435 35.3045L38.1304 32.261" stroke="#26292F" stroke-width="5" stroke-linecap="round" stroke-linejoin="round"/>
<path d="M56.3911 32.261L62.4781 35.3045" stroke="#26292F" stroke-width="5" stroke-linecap="round" stroke-linejoin="round"/>
</svg>
