<svg width="100" height="100" viewBox="0 0 100 100" fill="none" xmlns="http://www.w3.org/2000/svg">
<rect x="19.375" y="20.2498" width="64.3125" height="64.3125" fill="#9A4FC5"/>
<rect x="13.25" y="14.125" width="64.3125" height="64.3125" fill="#25E1DE"/>
<rect x="16.3125" y="17.1875" width="64.3125" height="64.3125" fill="#FBFDFE"/>
<line x1="74.5" y1="27.9373" x2="86.75" y2="27.9373" stroke="#9A4FC5" stroke-width="3"/>
<line x1="74.5" y1="27.9373" x2="86.75" y2="27.9373" stroke="#9A4FC5" stroke-width="3"/>
<line x1="68.375" y1="37.1248" x2="77.5625" y2="37.1248" stroke="#9A4FC5" stroke-width="3"/>
<line x1="68.375" y1="37.1248" x2="77.5625" y2="37.1248" stroke="#9A4FC5" stroke-width="3"/>
<line x1="80.625" y1="43.2498" x2="89.8125" y2="43.2498" stroke="#9A4FC5" stroke-width="3"/>
<line x1="80.625" y1="43.2498" x2="89.8125" y2="43.2498" stroke="#9A4FC5" stroke-width="3"/>
<line x1="80.625" y1="49.375" x2="99" y2="49.375" stroke="#9A4FC5" stroke-width="3"/>
<line x1="80.625" y1="49.375" x2="99" y2="49.375" stroke="#9A4FC5" stroke-width="3"/>
<line x1="71.4375" y1="67.75" x2="86.75" y2="67.75" stroke="#9A4FC5" stroke-width="3"/>
<line x1="71.4375" y1="67.75" x2="86.75" y2="67.75" stroke="#9A4FC5" stroke-width="3"/>
<line x1="62.25" y1="73.8748" x2="74.5" y2="73.8748" stroke="#9A4FC5" stroke-width="3"/>
<line x1="62.25" y1="73.8748" x2="74.5" y2="73.8748" stroke="#9A4FC5" stroke-width="3"/>
<line x1="37.75" y1="21.7498" x2="7.125" y2="21.7498" stroke="#25E1DE" stroke-width="3"/>
<line x1="37.75" y1="21.7498" x2="7.125" y2="21.7498" stroke="#25E1DE" stroke-width="3"/>
<line x1="19.375" y1="46.2498" x2="4.0625" y2="46.2498" stroke="#25E1DE" stroke-width="3"/>
<line x1="19.375" y1="46.2498" x2="4.0625" y2="46.2498" stroke="#25E1DE" stroke-width="3"/>
<line x1="19.375" y1="40.1248" x2="1" y2="40.1248" stroke="#25E1DE" stroke-width="3"/>
<line x1="19.375" y1="40.1248" x2="1" y2="40.1248" stroke="#25E1DE" stroke-width="3"/>
<line x1="22.4375" y1="70.75" x2="7.125" y2="70.75" stroke="#25E1DE" stroke-width="3"/>
<line x1="22.4375" y1="70.75" x2="7.125" y2="70.75" stroke="#25E1DE" stroke-width="3"/>
<path d="M80.625 35.5617C78.1883 35.5617 75.8514 34.5938 74.1285 32.8708C72.4055 31.1478 71.4375 28.8109 71.4375 26.3742C71.4375 19.7286 77.3787 10.4186 78.0525 9.37736C78.3314 8.95406 78.7111 8.60663 79.1574 8.36624C79.6037 8.12584 80.1027 8 80.6097 8C81.1166 8 81.6156 8.12584 82.062 8.36624C82.5083 8.60663 82.8879 8.95406 83.1669 9.37736C83.8713 10.4186 89.8125 19.7286 89.8125 26.3742C89.8125 28.8109 88.8445 31.1478 87.1215 32.8708C85.3986 34.5938 83.0617 35.5617 80.625 35.5617ZM80.625 17.1867C78.9891 20.0087 77.947 23.1351 77.5625 26.3742C77.5625 27.1865 77.8852 27.9654 78.4595 28.5397C79.0338 29.1141 79.8128 29.4367 80.625 29.4367C81.4372 29.4367 82.2162 29.1141 82.7905 28.5397C83.3648 27.9654 83.6875 27.1865 83.6875 26.3742C83.303 23.1351 82.2609 20.0087 80.625 17.1867Z" fill="#25E1DE"/>
<path d="M80.625 11.0618C80.625 11.0618 86.75 20.433 86.75 26.3743C86.75 27.9987 86.1047 29.5566 84.956 30.7053C83.8074 31.854 82.2495 32.4993 80.625 32.4993C79.0005 32.4993 77.4426 31.854 76.294 30.7053C75.1453 29.5566 74.5 27.9987 74.5 26.3743C74.5 20.433 80.625 11.0618 80.625 11.0618Z" fill="#C7E7F5"/>
<path d="M62.25 50.8743C62.25 57.6424 55.39 63.1243 46.9375 63.1243C38.485 63.1243 31.625 57.6424 31.625 50.8743V47.8118H62.25V50.8743Z" fill="white"/>
<path d="M46.9375 66.1868C36.8006 66.1868 28.5625 59.3268 28.5625 50.8743V47.8118C28.5625 46.9995 28.8852 46.2206 29.4595 45.6463C30.0338 45.0719 30.8128 44.7493 31.625 44.7493H62.25C63.0622 44.7493 63.8412 45.0719 64.4155 45.6463C64.9898 46.2206 65.3125 46.9995 65.3125 47.8118V50.8743C65.3125 59.3268 57.0744 66.1868 46.9375 66.1868ZM34.6875 50.8743C34.6875 55.9274 40.1694 60.0618 46.9375 60.0618C53.7056 60.0618 59.1875 55.9274 59.1875 50.8743H34.6875Z" fill="#26292F"/>
<path d="M62.25 38.6243C61.4378 38.6243 60.6588 38.3016 60.0845 37.7273C59.5102 37.153 59.1875 36.374 59.1875 35.5618C59.1875 36.374 58.8648 37.153 58.2905 37.7273C57.7162 38.3016 56.9372 38.6243 56.125 38.6243C55.3128 38.6243 54.5338 38.3016 53.9595 37.7273C53.3852 37.153 53.0625 36.374 53.0625 35.5618C53.0625 33.9373 53.7078 32.3794 54.8565 31.2307C56.0051 30.0821 57.563 29.4368 59.1875 29.4368C60.812 29.4368 62.3699 30.0821 63.5185 31.2307C64.6672 32.3794 65.3125 33.9373 65.3125 35.5618C65.3125 36.374 64.9898 37.153 64.4155 37.7273C63.8412 38.3016 63.0622 38.6243 62.25 38.6243Z" fill="#26292F"/>
<path d="M37.75 38.6243C36.9378 38.6243 36.1588 38.3016 35.5845 37.7273C35.0102 37.153 34.6875 36.374 34.6875 35.5618C34.6875 36.374 34.3648 37.153 33.7905 37.7273C33.2162 38.3016 32.4372 38.6243 31.625 38.6243C30.8128 38.6243 30.0338 38.3016 29.4595 37.7273C28.8852 37.153 28.5625 36.374 28.5625 35.5618C28.5625 33.9373 29.2078 32.3794 30.3565 31.2307C31.5051 30.0821 33.063 29.4368 34.6875 29.4368C36.312 29.4368 37.8699 30.0821 39.0185 31.2307C40.1672 32.3794 40.8125 33.9373 40.8125 35.5618C40.8125 36.374 40.4898 37.153 39.9155 37.7273C39.3412 38.3016 38.5622 38.6243 37.75 38.6243Z" fill="#26292F"/>
</svg>
