<svg width="100" height="100" viewBox="0 0 100 100" fill="none" xmlns="http://www.w3.org/2000/svg">
<rect x="20.188" y="21.0625" width="63.6562" height="63.6562" fill="#9A4FC5"/>
<rect x="14.125" y="15" width="63.6562" height="63.6562" fill="#25E1DE"/>
<rect x="17.1567" y="18.0315" width="63.6562" height="63.6562" fill="#FBFDFE"/>
<line x1="74.75" y1="28.6562" x2="86.875" y2="28.6562" stroke="#9A4FC5" stroke-width="3"/>
<line x1="74.75" y1="28.6562" x2="86.875" y2="28.6562" stroke="#9A4FC5" stroke-width="3"/>
<line x1="68.6875" y1="37.75" x2="77.7812" y2="37.75" stroke="#9A4FC5" stroke-width="3"/>
<line x1="68.6875" y1="37.75" x2="77.7812" y2="37.75" stroke="#9A4FC5" stroke-width="3"/>
<line x1="80.8125" y1="43.8125" x2="89.9062" y2="43.8125" stroke="#9A4FC5" stroke-width="3"/>
<line x1="80.8125" y1="43.8125" x2="89.9062" y2="43.8125" stroke="#9A4FC5" stroke-width="3"/>
<line x1="80.8125" y1="49.875" x2="99" y2="49.875" stroke="#9A4FC5" stroke-width="3"/>
<line x1="80.8125" y1="49.875" x2="99" y2="49.875" stroke="#9A4FC5" stroke-width="3"/>
<line x1="71.7188" y1="68.0627" x2="86.875" y2="68.0627" stroke="#9A4FC5" stroke-width="3"/>
<line x1="71.7188" y1="68.0627" x2="86.875" y2="68.0627" stroke="#9A4FC5" stroke-width="3"/>
<line x1="62.625" y1="74.125" x2="74.75" y2="74.125" stroke="#9A4FC5" stroke-width="3"/>
<line x1="62.625" y1="74.125" x2="74.75" y2="74.125" stroke="#9A4FC5" stroke-width="3"/>
<line x1="38.375" y1="22.5625" x2="8.06252" y2="22.5625" stroke="#25E1DE" stroke-width="3"/>
<line x1="38.375" y1="22.5625" x2="8.06252" y2="22.5625" stroke="#25E1DE" stroke-width="3"/>
<line x1="20.188" y1="46.8125" x2="5.03175" y2="46.8125" stroke="#25E1DE" stroke-width="3"/>
<line x1="20.188" y1="46.8125" x2="5.03175" y2="46.8125" stroke="#25E1DE" stroke-width="3"/>
<line x1="20.188" y1="40.75" x2="2.0005" y2="40.75" stroke="#25E1DE" stroke-width="3"/>
<line x1="20.188" y1="40.75" x2="2.0005" y2="40.75" stroke="#25E1DE" stroke-width="3"/>
<line x1="23.2188" y1="71.0625" x2="8.06251" y2="71.0625" stroke="#25E1DE" stroke-width="3"/>
<line x1="23.2188" y1="71.0625" x2="8.06251" y2="71.0625" stroke="#25E1DE" stroke-width="3"/>
<path d="M47.4692 66.4629C37.4358 66.4629 29.2817 59.6729 29.2817 51.3066C29.2817 50.5027 29.6011 49.7317 30.1696 49.1632C30.738 48.5948 31.509 48.2754 32.313 48.2754C33.1169 48.2754 33.8879 48.5948 34.4564 49.1632C35.0249 49.7317 35.3442 50.5027 35.3442 51.3066C35.3442 56.3082 40.7702 60.4004 47.4692 60.4004C54.1683 60.4004 59.5942 56.3082 59.5942 51.3066C59.5942 50.5027 59.9136 49.7317 60.4821 49.1632C61.0505 48.5948 61.8215 48.2754 62.6255 48.2754C63.4294 48.2754 64.2004 48.5948 64.7689 49.1632C65.3374 49.7317 65.6567 50.5027 65.6567 51.3066C65.6567 59.6729 57.5027 66.4629 47.4692 66.4629Z" fill="#26292F"/>
<path d="M62.6246 42.2127H53.5309C53.0141 42.2112 52.5064 42.0776 52.0559 41.8246C51.6053 41.5716 51.2269 41.2076 50.9566 40.7672C50.6863 40.3268 50.5331 39.8246 50.5114 39.3084C50.4898 38.7921 50.6005 38.2789 50.8331 37.8174L53.8643 31.7549C54.2366 31.0607 54.8645 30.5387 55.6151 30.2994C56.3656 30.0602 57.1798 30.1225 57.8852 30.4732C58.5906 30.824 59.1317 31.4355 59.394 32.1783C59.6563 32.9212 59.619 33.7369 59.2902 34.4527L58.4415 36.1502H62.6246C63.4285 36.1502 64.1996 36.4696 64.768 37.0381C65.3365 37.6065 65.6559 38.3776 65.6559 39.1815C65.6559 39.9854 65.3365 40.7564 64.768 41.3249C64.1996 41.8934 63.4285 42.2127 62.6246 42.2127Z" fill="#26292F"/>
<path d="M41.4067 42.2132H32.313C31.509 42.2132 30.738 41.8938 30.1696 41.3254C29.6011 40.7569 29.2817 39.9859 29.2817 39.1819C29.2817 38.378 29.6011 37.607 30.1696 37.0385C30.738 36.4701 31.509 36.1507 32.313 36.1507H36.4961L35.6474 34.4835C35.3185 33.7677 35.2813 32.9519 35.5436 32.2091C35.8059 31.4663 36.347 30.8547 37.0524 30.504C37.7578 30.1533 38.572 30.0909 39.3225 30.3302C40.0731 30.5694 40.701 31.0915 41.0733 31.7857L44.1045 37.8482C44.3301 38.3085 44.4352 38.8185 44.4102 39.3304C44.3851 39.8424 44.2305 40.3397 43.961 40.7757C43.6916 41.2117 43.3159 41.5723 42.8692 41.8237C42.4225 42.0751 41.9193 42.2091 41.4067 42.2132Z" fill="#26292F"/>
</svg>
