<svg width="100" height="100" viewBox="0 0 100 100" fill="none" xmlns="http://www.w3.org/2000/svg">
<rect x="19.2446" y="21.0869" width="64.3125" height="63.913" fill="#9A4FC5"/>
<rect x="13.1196" y="15" width="64.3125" height="63.913" fill="#25E1DE"/>
<rect x="16.1821" y="18.0435" width="64.3125" height="63.913" fill="#FBFDFE"/>
<line x1="74.3696" y1="28.7173" x2="86.6196" y2="28.7173" stroke="#9A4FC5" stroke-width="3"/>
<line x1="74.3696" y1="28.7173" x2="86.6196" y2="28.7173" stroke="#9A4FC5" stroke-width="3"/>
<line x1="68.2446" y1="37.8479" x2="77.4321" y2="37.8479" stroke="#9A4FC5" stroke-width="3"/>
<line x1="68.2446" y1="37.8479" x2="77.4321" y2="37.8479" stroke="#9A4FC5" stroke-width="3"/>
<line x1="80.4946" y1="43.9348" x2="89.6821" y2="43.9348" stroke="#9A4FC5" stroke-width="3"/>
<line x1="80.4946" y1="43.9348" x2="89.6821" y2="43.9348" stroke="#9A4FC5" stroke-width="3"/>
<line x1="80.4946" y1="50.0217" x2="98.8696" y2="50.0217" stroke="#9A4FC5" stroke-width="3"/>
<line x1="80.4946" y1="50.0217" x2="98.8696" y2="50.0217" stroke="#9A4FC5" stroke-width="3"/>
<line x1="71.3071" y1="68.2827" x2="86.6196" y2="68.2827" stroke="#9A4FC5" stroke-width="3"/>
<line x1="71.3071" y1="68.2827" x2="86.6196" y2="68.2827" stroke="#9A4FC5" stroke-width="3"/>
<line x1="62.1196" y1="74.3696" x2="74.3696" y2="74.3696" stroke="#9A4FC5" stroke-width="3"/>
<line x1="62.1196" y1="74.3696" x2="74.3696" y2="74.3696" stroke="#9A4FC5" stroke-width="3"/>
<line x1="37.6196" y1="22.5869" x2="6.99463" y2="22.5869" stroke="#25E1DE" stroke-width="3"/>
<line x1="37.6196" y1="22.5869" x2="6.99463" y2="22.5869" stroke="#25E1DE" stroke-width="3"/>
<line x1="19.2446" y1="46.9348" x2="3.93213" y2="46.9348" stroke="#25E1DE" stroke-width="3"/>
<line x1="19.2446" y1="46.9348" x2="3.93213" y2="46.9348" stroke="#25E1DE" stroke-width="3"/>
<line x1="19.2446" y1="40.8479" x2="0.869629" y2="40.8479" stroke="#25E1DE" stroke-width="3"/>
<line x1="19.2446" y1="40.8479" x2="0.869629" y2="40.8479" stroke="#25E1DE" stroke-width="3"/>
<line x1="22.3071" y1="71.2827" x2="6.99463" y2="71.2827" stroke="#25E1DE" stroke-width="3"/>
<line x1="22.3071" y1="71.2827" x2="6.99463" y2="71.2827" stroke="#25E1DE" stroke-width="3"/>
<path d="M59.0571 42.3912C57.8457 42.3912 56.6615 42.0342 55.6543 41.3654C54.647 40.6965 53.862 39.7459 53.3984 38.6336C52.9348 37.5214 52.8135 36.2975 53.0498 35.1167C53.2862 33.936 53.8695 32.8514 54.7261 32.0001C55.5827 31.1488 56.6741 30.5691 57.8622 30.3342C59.0503 30.0994 60.2819 30.2199 61.4011 30.6806C62.5203 31.1413 63.4769 31.9215 64.1499 32.9225C64.8229 33.9235 65.1821 35.1004 65.1821 36.3042C65.1821 37.9186 64.5368 39.4668 63.3882 40.6084C62.2395 41.7499 60.6816 42.3912 59.0571 42.3912Z" fill="#26292F"/>
<path d="M34.5571 42.3912C33.3457 42.3912 32.1615 42.0342 31.1543 41.3654C30.147 40.6965 29.362 39.7459 28.8984 38.6336C28.4348 37.5214 28.3135 36.2975 28.5498 35.1167C28.7862 33.936 29.3695 32.8514 30.2261 32.0001C31.0827 31.1488 32.1741 30.5691 33.3622 30.3342C34.5503 30.0994 35.7819 30.2199 36.9011 30.6806C38.0203 31.1413 38.9769 31.9215 39.6499 32.9225C40.3229 33.9235 40.6821 35.1004 40.6821 36.3042C40.6821 37.9186 40.0368 39.4668 38.8882 40.6084C37.7395 41.7499 36.1816 42.3912 34.5571 42.3912Z" fill="#26292F"/>
<path d="M62.1196 54.5652C62.1196 61.2913 55.2596 66.7391 46.8071 66.7391C38.3546 66.7391 31.4946 61.2913 31.4946 54.5652V51.5217H62.1196V54.5652Z" fill="#26292F"/>
<path d="M46.8071 69.7826C36.6703 69.7826 28.4321 62.9652 28.4321 54.5652V51.5217C28.4321 50.7146 28.7548 49.9404 29.3291 49.3697C29.9034 48.7989 30.6824 48.4783 31.4946 48.4783H62.1196C62.9319 48.4783 63.7108 48.7989 64.2851 49.3697C64.8595 49.9404 65.1821 50.7146 65.1821 51.5217V54.5652C65.1821 62.9652 56.944 69.7826 46.8071 69.7826ZM34.5571 54.5652C34.5571 59.587 40.039 63.6957 46.8071 63.6957C53.5753 63.6957 59.0571 59.587 59.0571 54.5652H34.5571Z" fill="#26292F"/>
</svg>
