<svg width="100" height="100" viewBox="0 0 100 100" fill="none" xmlns="http://www.w3.org/2000/svg">
<rect x="21.8481" y="19.2424" width="65.5458" height="65.5458" fill="#9A4FC5"/>
<rect x="15.606" y="13" width="65.5458" height="65.5458" fill="#25E1DE"/>
<rect x="18.7271" y="16.1213" width="65.5458" height="65.5458" fill="#FBFDFE"/>
<line x1="78.0303" y1="27.1062" x2="90.5152" y2="27.1062" stroke="#9A4FC5" stroke-width="3"/>
<line x1="78.0303" y1="27.1062" x2="90.5152" y2="27.1062" stroke="#9A4FC5" stroke-width="3"/>
<line x1="71.7876" y1="36.4697" x2="81.1513" y2="36.4697" stroke="#9A4FC5" stroke-width="3"/>
<line x1="71.7876" y1="36.4697" x2="81.1513" y2="36.4697" stroke="#9A4FC5" stroke-width="3"/>
<line x1="84.2729" y1="42.7126" x2="93.6366" y2="42.7126" stroke="#9A4FC5" stroke-width="3"/>
<line x1="84.2729" y1="42.7126" x2="93.6366" y2="42.7126" stroke="#9A4FC5" stroke-width="3"/>
<line x1="74.9092" y1="67.6821" x2="90.5153" y2="67.6821" stroke="#9A4FC5" stroke-width="3"/>
<line x1="74.9092" y1="67.6821" x2="90.5153" y2="67.6821" stroke="#9A4FC5" stroke-width="3"/>
<line x1="65.5454" y1="73.9246" x2="78.0303" y2="73.9246" stroke="#9A4FC5" stroke-width="3"/>
<line x1="65.5454" y1="73.9246" x2="78.0303" y2="73.9246" stroke="#9A4FC5" stroke-width="3"/>
<line x1="40.5757" y1="20.7424" x2="9.36341" y2="20.7424" stroke="#25E1DE" stroke-width="3"/>
<line x1="40.5757" y1="20.7424" x2="9.36341" y2="20.7424" stroke="#25E1DE" stroke-width="3"/>
<line x1="21.8481" y1="45.7124" x2="6.24201" y2="45.7124" stroke="#25E1DE" stroke-width="3"/>
<line x1="21.8481" y1="45.7124" x2="6.24201" y2="45.7124" stroke="#25E1DE" stroke-width="3"/>
<line x1="21.8481" y1="39.4697" x2="3.12078" y2="39.4697" stroke="#25E1DE" stroke-width="3"/>
<line x1="21.8481" y1="39.4697" x2="3.12078" y2="39.4697" stroke="#25E1DE" stroke-width="3"/>
<line x1="24.9692" y1="70.6819" x2="9.3631" y2="70.6819" stroke="#25E1DE" stroke-width="3"/>
<line x1="24.9692" y1="70.6819" x2="9.3631" y2="70.6819" stroke="#25E1DE" stroke-width="3"/>
<path d="M34.3335 56.5428C34.3335 49.6449 41.325 44.0579 49.9396 44.0579C58.5542 44.0579 65.5458 49.6449 65.5458 56.5428V59.664H34.3335V56.5428Z" fill="#26292F"/>
<path d="M65.5459 62.7851H34.3336C33.5058 62.7851 32.7119 62.4563 32.1266 61.8709C31.5412 61.2856 31.2124 60.4917 31.2124 59.6639V56.5427C31.2124 47.9281 39.6085 40.9365 49.9398 40.9365C60.271 40.9365 68.6671 47.9281 68.6671 56.5427V59.6639C68.6671 60.4917 68.3383 61.2856 67.7529 61.8709C67.1676 62.4563 66.3737 62.7851 65.5459 62.7851ZM37.4549 56.5427H62.4247C62.4247 51.3926 56.8377 47.179 49.9398 47.179C43.0419 47.179 37.4549 51.3926 37.4549 56.5427Z" fill="#26292F"/>
<path d="M20.2881 69.182L20.2881 75.4245L12.485 76.9851L9.36379 67.6214L6.24256 62.9396L4.68195 55.1365L3.12134 45.7728L7.80318 44.2122L17.1669 44.2122L20.2881 47.3335L20.2881 69.182Z" fill="white" stroke="white"/>
<path d="M78.0308 70.3713L78.0308 76.911L86.5432 78.5459L89.9482 68.7363L93.3531 63.8315L95.0556 55.6569L96.7581 45.8473L91.6507 44.2124L81.4357 44.2124L78.0308 47.4823L78.0308 70.3713Z" fill="white" stroke="white"/>
<path d="M99.8787 48.7396C99.8787 46.6701 99.0566 44.6853 97.5932 43.222C96.1299 41.7586 94.1451 40.9365 92.0756 40.9365H82.712C80.6425 40.9365 78.6577 41.7586 77.1944 43.222C75.731 44.6853 74.9089 46.6701 74.9089 48.7396C74.8858 49.0825 74.8858 49.4266 74.9089 49.7696C74.8938 49.9461 74.8938 50.1237 74.9089 50.3002V72.1488C74.9089 74.6322 75.8954 77.0139 77.6514 78.7699C79.4075 80.5259 81.7892 81.5125 84.2726 81.5125C86.756 81.5125 89.1377 80.5259 90.8937 78.7699C92.6497 77.0139 93.6363 74.6322 93.6363 72.1488V65.7503C95.3988 65.3905 96.9828 64.4328 98.1204 63.0393C99.2579 61.6458 99.8791 59.9021 99.8787 58.1033C99.8743 56.4106 99.3151 54.766 98.2869 53.4214C99.3151 52.0768 99.8743 50.4323 99.8787 48.7396ZM82.712 47.179H92.0756C92.4895 47.179 92.8865 47.3434 93.1792 47.6361C93.4718 47.9287 93.6363 48.3257 93.6363 48.7396C93.6363 49.1535 93.4718 49.5504 93.1792 49.8431C92.8865 50.1358 92.4895 50.3002 92.0756 50.3002H82.712C82.2981 50.3002 81.9011 50.1358 81.6084 49.8431C81.3158 49.5504 81.1513 49.1535 81.1513 48.7396C81.1513 48.3257 81.3158 47.9287 81.6084 47.6361C81.9011 47.3434 82.2981 47.179 82.712 47.179ZM84.2726 75.27C83.4448 75.27 82.6509 74.9412 82.0655 74.3558C81.4802 73.7705 81.1513 72.9766 81.1513 72.1488V65.7503C81.665 65.8546 82.1878 65.9069 82.712 65.9063H87.3938V72.1488C87.3938 72.9766 87.065 73.7705 86.4796 74.3558C85.8943 74.9412 85.1004 75.27 84.2726 75.27ZM92.0756 59.6639H82.712C82.2981 59.6639 81.9011 59.4995 81.6084 59.2068C81.3158 58.9141 81.1513 58.5172 81.1513 58.1033C81.1513 57.6894 81.3158 57.2924 81.6084 56.9998C81.9011 56.7071 82.2981 56.5427 82.712 56.5427H92.0756C92.4895 56.5427 92.8865 56.7071 93.1792 56.9998C93.4718 57.2924 93.6363 57.6894 93.6363 58.1033C93.6363 58.5172 93.4718 58.9141 93.1792 59.2068C92.8865 59.4995 92.4895 59.6639 92.0756 59.6639Z" fill="#26292F"/>
<path d="M24.9698 48.7396C24.9698 46.6701 24.1477 44.6853 22.6844 43.222C21.221 41.7586 19.2362 40.9365 17.1667 40.9365H7.80307C5.73357 40.9365 3.74882 41.7586 2.28547 43.222C0.822107 44.6853 1.6266e-07 46.6701 1.6266e-07 48.7396C0.00443467 50.4323 0.563588 52.0768 1.59183 53.4214C0.563588 54.766 0.00443467 56.4106 1.6266e-07 58.1033C-0.000366979 59.9021 0.620786 61.6458 1.75833 63.0393C2.89588 64.4328 4.47995 65.3905 6.24245 65.7503V72.1488C6.24245 74.6322 7.22898 77.0139 8.98501 78.7699C10.741 80.5259 13.1227 81.5125 15.6061 81.5125C18.0895 81.5125 20.4712 80.5259 22.2273 78.7699C23.9833 77.0139 24.9698 74.6322 24.9698 72.1488V50.3002C24.9858 50.1237 24.9858 49.9461 24.9698 49.7696C24.9929 49.4266 24.9929 49.0825 24.9698 48.7396ZM18.7274 72.1488C18.7274 72.9766 18.3985 73.7705 17.8132 74.3558C17.2278 74.9412 16.4339 75.27 15.6061 75.27C14.7783 75.27 13.9844 74.9412 13.3991 74.3558C12.8138 73.7705 12.4849 72.9766 12.4849 72.1488V65.9063H17.1667C17.6909 65.9069 18.2137 65.8546 18.7274 65.7503V72.1488ZM17.1667 59.6639H7.80307C7.38917 59.6639 6.99222 59.4995 6.69955 59.2068C6.40688 58.9141 6.24245 58.5172 6.24245 58.1033C6.24245 57.6894 6.40688 57.2924 6.69955 56.9998C6.99222 56.7071 7.38917 56.5427 7.80307 56.5427H17.1667C17.5806 56.5427 17.9776 56.7071 18.2703 56.9998C18.5629 57.2924 18.7274 57.6894 18.7274 58.1033C18.7274 58.5172 18.5629 58.9141 18.2703 59.2068C17.9776 59.4995 17.5806 59.6639 17.1667 59.6639ZM17.1667 50.3002H7.80307C7.38917 50.3002 6.99222 50.1358 6.69955 49.8431C6.40688 49.5504 6.24245 49.1535 6.24245 48.7396C6.24245 48.3257 6.40688 47.9287 6.69955 47.6361C6.99222 47.3434 7.38917 47.179 7.80307 47.179H17.1667C17.5806 47.179 17.9776 47.3434 18.2703 47.6361C18.5629 47.9287 18.7274 48.3257 18.7274 48.7396C18.7274 49.1535 18.5629 49.5504 18.2703 49.8431C17.9776 50.1358 17.5806 50.3002 17.1667 50.3002Z" fill="#26292F"/>
<path d="M62.4251 40.9366C61.1904 40.9366 59.9835 40.5705 58.957 39.8845C57.9304 39.1986 57.1303 38.2237 56.6578 37.083C56.1853 35.9423 56.0617 34.6872 56.3026 33.4763C56.5434 32.2654 57.138 31.1531 58.011 30.28C58.884 29.407 59.9963 28.8125 61.2072 28.5716C62.4181 28.3307 63.6733 28.4544 64.814 28.9268C65.9546 29.3993 66.9296 30.1994 67.6155 31.226C68.3014 32.2526 68.6675 33.4595 68.6675 34.6941C68.6675 36.3497 68.0098 37.9375 66.8392 39.1082C65.6685 40.2789 64.0807 40.9366 62.4251 40.9366Z" fill="#26292F"/>
<path d="M37.4549 40.9366C36.2202 40.9366 35.0133 40.5705 33.9867 39.8845C32.9602 39.1986 32.1601 38.2237 31.6876 37.083C31.2151 35.9423 31.0915 34.6872 31.3324 33.4763C31.5732 32.2654 32.1678 31.1531 33.0408 30.28C33.9138 29.407 35.0261 28.8125 36.237 28.5716C37.4479 28.3307 38.7031 28.4544 39.8437 28.9268C40.9844 29.3993 41.9593 30.1994 42.6453 31.226C43.3312 32.2526 43.6973 33.4595 43.6973 34.6941C43.6973 36.3497 43.0396 37.9375 41.8689 39.1082C40.6983 40.2789 39.1105 40.9366 37.4549 40.9366Z" fill="#26292F"/>
<path d="M40.5753 34.6941C40.1645 34.6965 39.7573 34.6177 39.377 34.4624C38.9967 34.3071 38.6508 34.0782 38.3592 33.7889L32.1167 27.5465C31.6054 26.9494 31.3382 26.1813 31.3685 25.3958C31.3989 24.6102 31.7245 23.8651 32.2804 23.3092C32.8363 22.7533 33.5814 22.4277 34.367 22.3973C35.1525 22.367 35.9206 22.6342 36.5177 23.1455L42.7601 29.388C43.1879 29.8243 43.4781 30.3765 43.595 30.9761C43.7119 31.5758 43.6502 32.1966 43.4175 32.7616C43.1849 33.3265 42.7916 33.8108 42.2864 34.1543C41.7811 34.4978 41.1862 34.6855 40.5753 34.6941Z" fill="#26292F"/>
<path d="M59.3034 34.6938C58.6835 34.6974 58.0765 34.5163 57.5599 34.1736C57.0433 33.8309 56.6404 33.3421 56.4027 32.7695C56.1649 32.1969 56.1031 31.5665 56.225 30.9587C56.347 30.3508 56.6472 29.7931 57.0874 29.3565L63.3298 23.114C63.9269 22.6027 64.695 22.3355 65.4805 22.3659C66.2661 22.3962 67.0112 22.7218 67.5671 23.2777C68.123 23.8336 68.4486 24.5787 68.4789 25.3643C68.5093 26.1498 68.2421 26.9179 67.7308 27.515L61.4883 33.7574C60.912 34.3455 60.1267 34.6821 59.3034 34.6938Z" fill="#26292F"/>
</svg>
