<svg width="100" height="100" viewBox="0 0 100 100" fill="none" xmlns="http://www.w3.org/2000/svg">
<rect x="22.6138" y="20.175" width="64.8404" height="64.8404" fill="#9A4FC5"/>
<rect x="16.438" y="14" width="64.8404" height="64.8404" fill="#25E1DE"/>
<rect x="19.5259" y="17.0876" width="64.8404" height="64.8404" fill="#FBFDFE"/>
<line x1="78.1914" y1="27.9382" x2="90.5419" y2="27.9382" stroke="#9A4FC5" stroke-width="3"/>
<line x1="78.1914" y1="27.9382" x2="90.5419" y2="27.9382" stroke="#9A4FC5" stroke-width="3"/>
<line x1="72.0161" y1="37.2009" x2="81.279" y2="37.2009" stroke="#9A4FC5" stroke-width="3"/>
<line x1="72.0161" y1="37.2009" x2="81.279" y2="37.2009" stroke="#9A4FC5" stroke-width="3"/>
<line x1="84.3662" y1="43.3765" x2="93.6291" y2="43.3765" stroke="#9A4FC5" stroke-width="3"/>
<line x1="84.3662" y1="43.3765" x2="93.6291" y2="43.3765" stroke="#9A4FC5" stroke-width="3"/>
<path d="M84.3662 49.5515L99 49.5515" stroke="#9A4FC5" stroke-width="3"/>
<path d="M84.3662 49.5515L99 49.5515" stroke="#9A4FC5" stroke-width="3"/>
<line x1="75.1035" y1="68.0774" x2="90.5417" y2="68.0774" stroke="#9A4FC5" stroke-width="3"/>
<line x1="75.1035" y1="68.0774" x2="90.5417" y2="68.0774" stroke="#9A4FC5" stroke-width="3"/>
<line x1="65.8408" y1="74.2527" x2="78.1914" y2="74.2527" stroke="#9A4FC5" stroke-width="3"/>
<line x1="65.8408" y1="74.2527" x2="78.1914" y2="74.2527" stroke="#9A4FC5" stroke-width="3"/>
<line x1="41.1392" y1="21.675" x2="10.2628" y2="21.675" stroke="#25E1DE" stroke-width="3"/>
<line x1="41.1392" y1="21.675" x2="10.2628" y2="21.675" stroke="#25E1DE" stroke-width="3"/>
<line x1="22.6138" y1="46.3765" x2="7.17559" y2="46.3765" stroke="#25E1DE" stroke-width="3"/>
<line x1="22.6138" y1="46.3765" x2="7.17559" y2="46.3765" stroke="#25E1DE" stroke-width="3"/>
<line x1="22.6138" y1="40.2009" x2="4.08795" y2="40.2009" stroke="#25E1DE" stroke-width="3"/>
<line x1="22.6138" y1="40.2009" x2="4.08795" y2="40.2009" stroke="#25E1DE" stroke-width="3"/>
<line x1="25.7017" y1="71.0774" x2="10.2635" y2="71.0774" stroke="#25E1DE" stroke-width="3"/>
<line x1="25.7017" y1="71.0774" x2="10.2635" y2="71.0774" stroke="#25E1DE" stroke-width="3"/>
<path d="M65.8583 51.0832C65.8583 57.9069 58.942 63.4338 50.4201 63.4338C41.8982 63.4338 34.9819 57.9069 34.9819 51.0832V47.9956H65.8583V51.0832Z" fill="#26292F"/>
<path d="M4.0874 51.0517L7.17504 44.8765H13.3503L14.8941 52.5956L19.5256 57.227L21.0694 64.9461V74.209L17.9818 78.8405L5.63122 77.2966L4.0874 72.6652V51.0517Z" fill="white" stroke="white"/>
<path d="M96.7168 51.0517L93.3485 44.8765H86.6118L84.9276 52.5956L84.3663 58.7708L79.7348 63.4023V72.6652L81.5593 78.8405L95.0326 77.2966L96.7168 72.6652V51.0517Z" fill="white" stroke="white"/>
<path d="M50.4023 66.4899C40.1822 66.4899 31.8765 59.5736 31.8765 51.0517V47.9641C31.8765 47.1452 32.2018 46.3599 32.7808 45.7808C33.3599 45.2018 34.1452 44.8765 34.9641 44.8765H65.8405C66.6594 44.8765 67.4447 45.2018 68.0238 45.7808C68.6028 46.3599 68.9281 47.1452 68.9281 47.9641V51.0517C68.9281 59.5736 60.6224 66.4899 50.4023 66.4899ZM38.0517 51.0517C38.0517 56.1463 43.5786 60.3146 50.4023 60.3146C57.226 60.3146 62.7528 56.1463 62.7528 51.0517H38.0517Z" fill="#26292F"/>
<path d="M25.7182 64.9776C25.7186 63.1981 25.1041 61.4731 23.9788 60.0946C22.8535 58.7161 21.2865 57.7688 19.5429 57.4129V51.0832C19.5429 48.6265 18.567 46.2705 16.8299 44.5334C15.0927 42.7962 12.7367 41.8203 10.28 41.8203C7.82334 41.8203 5.46728 42.7962 3.73015 44.5334C1.99302 46.2705 1.0171 48.6265 1.0171 51.0832V72.6967C1.00221 72.8713 1.00221 73.0469 1.0171 73.2216C0.994298 73.5608 0.994298 73.9012 1.0171 74.2405C1.0171 76.2877 1.83036 78.2511 3.27797 79.6987C4.72558 81.1463 6.68896 81.9596 8.73619 81.9596H17.9991C20.0463 81.9596 22.0097 81.1463 23.4573 79.6987C24.9049 78.2511 25.7182 76.2877 25.7182 74.2405C25.7138 72.566 25.1607 70.9392 24.1435 69.609C25.1607 68.2789 25.7138 66.652 25.7182 64.9776ZM7.19238 64.9776C7.19238 64.5681 7.35503 64.1755 7.64455 63.8859C7.93407 63.5964 8.32675 63.4338 8.73619 63.4338H17.9991C18.4085 63.4338 18.8012 63.5964 19.0907 63.8859C19.3803 64.1755 19.5429 64.5681 19.5429 64.9776C19.5429 65.387 19.3803 65.7797 19.0907 66.0692C18.8012 66.3587 18.4085 66.5214 17.9991 66.5214H8.73619C8.32675 66.5214 7.93407 66.3587 7.64455 66.0692C7.35503 65.7797 7.19238 65.387 7.19238 64.9776ZM10.28 47.9956C11.0989 47.9956 11.8843 48.3209 12.4633 48.8999C13.0423 49.479 13.3676 50.2643 13.3676 51.0832V57.2585H8.73619C8.21771 57.258 7.70049 57.3097 7.19238 57.4129V51.0832C7.19238 50.2643 7.51768 49.479 8.09672 48.8999C8.67577 48.3209 9.46112 47.9956 10.28 47.9956ZM17.9991 75.7843H8.73619C8.32675 75.7843 7.93407 75.6217 7.64455 75.3321C7.35503 75.0426 7.19238 74.6499 7.19238 74.2405C7.19238 73.831 7.35503 73.4384 7.64455 73.1488C7.93407 72.8593 8.32675 72.6967 8.73619 72.6967H17.9991C18.4085 72.6967 18.8012 72.8593 19.0907 73.1488C19.3803 73.4384 19.5429 73.831 19.5429 74.2405C19.5429 74.6499 19.3803 75.0426 19.0907 75.3321C18.8012 75.6217 18.4085 75.7843 17.9991 75.7843Z" fill="#26292F"/>
<path d="M90.5593 41.8203C88.1026 41.8203 85.7465 42.7962 84.0094 44.5334C82.2723 46.2705 81.2964 48.6265 81.2964 51.0832V57.4129C79.5528 57.7688 77.9858 58.7161 76.8605 60.0946C75.7352 61.4731 75.1207 63.1981 75.1211 64.9776C75.1255 66.652 75.6786 68.2789 76.6958 69.609C75.6786 70.9392 75.1255 72.566 75.1211 74.2405C75.1211 76.2877 75.9344 78.2511 77.382 79.6987C78.8296 81.1463 80.793 81.9596 82.8402 81.9596H92.1031C94.1503 81.9596 96.1137 81.1463 97.5613 79.6987C99.0089 78.2511 99.8222 76.2877 99.8222 74.2405C99.845 73.9012 99.845 73.5608 99.8222 73.2216C99.838 73.047 99.838 72.8713 99.8222 72.6967V51.0832C99.8222 48.6265 98.8463 46.2705 97.1091 44.5334C95.372 42.7962 93.0159 41.8203 90.5593 41.8203ZM90.5593 47.9956C91.3782 47.9956 92.1635 48.3209 92.7426 48.8999C93.3216 49.479 93.6469 50.2643 93.6469 51.0832V57.4129C93.1388 57.3097 92.6216 57.258 92.1031 57.2585H87.4716V51.0832C87.4716 50.2643 87.7969 49.479 88.376 48.8999C88.955 48.3209 89.7404 47.9956 90.5593 47.9956ZM82.8402 63.4338H92.1031C92.5125 63.4338 92.9052 63.5964 93.1947 63.8859C93.4843 64.1755 93.6469 64.5681 93.6469 64.9776C93.6469 65.387 93.4843 65.7797 93.1947 66.0692C92.9052 66.3587 92.5125 66.5214 92.1031 66.5214H82.8402C82.4307 66.5214 82.0381 66.3587 81.7485 66.0692C81.459 65.7797 81.2964 65.387 81.2964 64.9776C81.2964 64.5681 81.459 64.1755 81.7485 63.8859C82.0381 63.5964 82.4307 63.4338 82.8402 63.4338ZM92.1031 75.7843H82.8402C82.4307 75.7843 82.0381 75.6217 81.7485 75.3321C81.459 75.0426 81.2964 74.6499 81.2964 74.2405C81.2964 73.831 81.459 73.4384 81.7485 73.1488C82.0381 72.8593 82.4307 72.6967 82.8402 72.6967H92.1031C92.5125 72.6967 92.9052 72.8593 93.1947 73.1488C93.4843 73.4384 93.6469 73.831 93.6469 74.2405C93.6469 74.6499 93.4843 75.0426 93.1947 75.3321C92.9052 75.6217 92.5125 75.7843 92.1031 75.7843Z" fill="#26292F"/>
<path d="M34.9819 32.9591C35.15 31.8901 35.7273 30.9284 36.5916 30.2772C37.4559 29.6261 38.5395 29.3367 39.6134 29.47C40.6873 29.3367 41.7709 29.6261 42.6352 30.2772C43.4995 30.9284 44.0767 31.8901 44.2448 32.9591" stroke="#26292F" stroke-width="5" stroke-linecap="round" stroke-linejoin="round"/>
<path d="M56.5952 32.9591C56.7633 31.8901 57.3405 30.9284 58.2048 30.2772C59.0692 29.6261 60.1528 29.3367 61.2267 29.47C62.3005 29.3367 63.3842 29.6261 64.2485 30.2772C65.1128 30.9284 65.69 31.8901 65.8581 32.9591" stroke="#26292F" stroke-width="5" stroke-linecap="round" stroke-linejoin="round"/>
</svg>
