<svg width="101" height="100" viewBox="0 0 101 100" fill="none" xmlns="http://www.w3.org/2000/svg">
<rect x="19.5625" y="20.1877" width="64.9688" height="64.9688" fill="#9A4FC5"/>
<rect x="13.375" y="14" width="64.9688" height="64.9688" fill="#25E1DE"/>
<rect x="16.4688" y="17.094" width="64.9688" height="64.9688" fill="#FBFDFE"/>
<line x1="75.25" y1="27.9688" x2="87.625" y2="27.9688" stroke="#9A4FC5" stroke-width="3"/>
<line x1="75.25" y1="27.9688" x2="87.625" y2="27.9688" stroke="#9A4FC5" stroke-width="3"/>
<line x1="69.062" y1="37.2502" x2="78.3433" y2="37.2502" stroke="#9A4FC5" stroke-width="3"/>
<line x1="69.062" y1="37.2502" x2="78.3433" y2="37.2502" stroke="#9A4FC5" stroke-width="3"/>
<line x1="81.4375" y1="43.4375" x2="90.7188" y2="43.4375" stroke="#9A4FC5" stroke-width="3"/>
<line x1="81.4375" y1="43.4375" x2="90.7188" y2="43.4375" stroke="#9A4FC5" stroke-width="3"/>
<line x1="81.4375" y1="49.625" x2="100" y2="49.625" stroke="#9A4FC5" stroke-width="3"/>
<line x1="81.4375" y1="49.625" x2="100" y2="49.625" stroke="#9A4FC5" stroke-width="3"/>
<line x1="72.1558" y1="68.1875" x2="87.6245" y2="68.1875" stroke="#9A4FC5" stroke-width="3"/>
<line x1="72.1558" y1="68.1875" x2="87.6245" y2="68.1875" stroke="#9A4FC5" stroke-width="3"/>
<line x1="62.8745" y1="74.3752" x2="75.2495" y2="74.3752" stroke="#9A4FC5" stroke-width="3"/>
<line x1="62.8745" y1="74.3752" x2="75.2495" y2="74.3752" stroke="#9A4FC5" stroke-width="3"/>
<line x1="38.125" y1="21.6877" x2="7.1875" y2="21.6877" stroke="#25E1DE" stroke-width="3"/>
<line x1="38.125" y1="21.6877" x2="7.1875" y2="21.6877" stroke="#25E1DE" stroke-width="3"/>
<line x1="19.5625" y1="46.4375" x2="4.09375" y2="46.4375" stroke="#25E1DE" stroke-width="3"/>
<line x1="19.5625" y1="46.4375" x2="4.09375" y2="46.4375" stroke="#25E1DE" stroke-width="3"/>
<line x1="19.5625" y1="40.2502" x2="1" y2="40.2502" stroke="#25E1DE" stroke-width="3"/>
<line x1="19.5625" y1="40.2502" x2="1" y2="40.2502" stroke="#25E1DE" stroke-width="3"/>
<line x1="22.6558" y1="71.1875" x2="7.18701" y2="71.1875" stroke="#25E1DE" stroke-width="3"/>
<line x1="22.6558" y1="71.1875" x2="7.18701" y2="71.1875" stroke="#25E1DE" stroke-width="3"/>
<path d="M56.688 52.7039C56.688 50.6526 55.8731 48.6853 54.4226 47.2348C52.9722 45.7844 51.0049 44.9695 48.9536 44.9695H47.4067C46.5862 44.9695 45.7993 45.2954 45.2191 45.8756C44.6389 46.4558 44.313 47.2427 44.313 48.0632C44.313 48.8837 44.6389 49.6707 45.2191 50.2508C45.7993 50.831 46.5862 51.157 47.4067 51.157H48.9536C49.3639 51.157 49.7573 51.32 50.0474 51.6101C50.3375 51.9001 50.5005 52.2936 50.5005 52.7039C50.5005 53.1141 50.3375 53.5076 50.0474 53.7977C49.7573 54.0878 49.3639 54.2507 48.9536 54.2507C48.1331 54.2507 47.3462 54.5767 46.766 55.1569C46.1858 55.7371 45.8599 56.524 45.8599 57.3445C45.8599 58.165 46.1858 58.9519 46.766 59.5321C47.3462 60.1123 48.1331 60.4382 48.9536 60.4382C49.3639 60.4382 49.7573 60.6012 50.0474 60.8913C50.3375 61.1814 50.5005 61.5749 50.5005 61.9851C50.5005 62.3954 50.3375 62.7888 50.0474 63.0789C49.7573 63.369 49.3639 63.532 48.9536 63.532H47.4067C46.5862 63.532 45.7993 63.8579 45.2191 64.4381C44.6389 65.0183 44.313 65.8052 44.313 66.6257C44.313 67.4462 44.6389 68.2332 45.2191 68.8133C45.7993 69.3935 46.5862 69.7195 47.4067 69.7195H48.9536C51.0049 69.7195 52.9722 68.9046 54.4226 67.4541C55.8731 66.0037 56.688 64.0364 56.688 61.9851C56.6836 60.3073 56.1294 58.6772 55.1102 57.3445C56.1294 56.0117 56.6836 54.3816 56.688 52.7039Z" fill="#26292F"/>
<path d="M31.9375 36.0903C32.1059 35.0192 32.6843 34.0556 33.5503 33.4032C34.4163 32.7508 35.5021 32.4607 36.5781 32.5944C37.6541 32.4607 38.7399 32.7508 39.6059 33.4032C40.472 34.0556 41.0503 35.0192 41.2188 36.0903" stroke="#26292F" stroke-width="5" stroke-linecap="round" stroke-linejoin="round"/>
<path d="M53.5942 36.0903C53.7627 35.0192 54.341 34.0556 55.2071 33.4032C56.0731 32.7508 57.1589 32.4607 58.2349 32.5944C59.3109 32.4607 60.3966 32.7508 61.2627 33.4032C62.1287 34.0556 62.7071 35.0192 62.8755 36.0903" stroke="#26292F" stroke-width="5" stroke-linecap="round" stroke-linejoin="round"/>
</svg>
