<svg width="101" height="100" viewBox="0 0 101 100" fill="none" xmlns="http://www.w3.org/2000/svg">
<rect x="19.7393" y="20.1741" width="64.8261" height="64.8261" fill="#9A4FC5"/>
<rect x="13.5659" y="14" width="64.8261" height="64.8261" fill="#25E1DE"/>
<rect x="16.6528" y="17.0872" width="64.8261" height="64.8261" fill="#FBFDFE"/>
<line x1="75.3042" y1="27.9348" x2="87.652" y2="27.9348" stroke="#9A4FC5" stroke-width="3"/>
<line x1="75.3042" y1="27.9348" x2="87.652" y2="27.9348" stroke="#9A4FC5" stroke-width="3"/>
<line x1="69.1304" y1="37.1958" x2="78.3912" y2="37.1958" stroke="#9A4FC5" stroke-width="3"/>
<line x1="69.1304" y1="37.1958" x2="78.3912" y2="37.1958" stroke="#9A4FC5" stroke-width="3"/>
<line x1="81.478" y1="43.3696" x2="90.7389" y2="43.3696" stroke="#9A4FC5" stroke-width="3"/>
<line x1="81.478" y1="43.3696" x2="90.7389" y2="43.3696" stroke="#9A4FC5" stroke-width="3"/>
<line x1="81.478" y1="49.5435" x2="99.9998" y2="49.5435" stroke="#9A4FC5" stroke-width="3"/>
<line x1="81.478" y1="49.5435" x2="99.9998" y2="49.5435" stroke="#9A4FC5" stroke-width="3"/>
<line x1="72.2173" y1="68.0652" x2="87.6521" y2="68.0652" stroke="#9A4FC5" stroke-width="3"/>
<line x1="72.2173" y1="68.0652" x2="87.6521" y2="68.0652" stroke="#9A4FC5" stroke-width="3"/>
<line x1="62.9565" y1="74.2393" x2="75.3044" y2="74.2393" stroke="#9A4FC5" stroke-width="3"/>
<line x1="62.9565" y1="74.2393" x2="75.3044" y2="74.2393" stroke="#9A4FC5" stroke-width="3"/>
<line x1="38.2607" y1="21.6741" x2="7.39118" y2="21.6741" stroke="#25E1DE" stroke-width="3"/>
<line x1="38.2607" y1="21.6741" x2="7.39118" y2="21.6741" stroke="#25E1DE" stroke-width="3"/>
<line x1="19.7393" y1="46.3696" x2="4.30447" y2="46.3696" stroke="#25E1DE" stroke-width="3"/>
<line x1="19.7393" y1="46.3696" x2="4.30447" y2="46.3696" stroke="#25E1DE" stroke-width="3"/>
<line x1="19.7393" y1="40.1958" x2="1.21752" y2="40.1958" stroke="#25E1DE" stroke-width="3"/>
<line x1="19.7393" y1="40.1958" x2="1.21752" y2="40.1958" stroke="#25E1DE" stroke-width="3"/>
<line x1="22.8262" y1="71.0652" x2="7.39139" y2="71.0652" stroke="#25E1DE" stroke-width="3"/>
<line x1="22.8262" y1="71.0652" x2="7.39139" y2="71.0652" stroke="#25E1DE" stroke-width="3"/>
<path d="M59.8702 41.7826C58.6491 41.7826 57.4555 41.4206 56.4402 40.7422C55.4249 40.0638 54.6335 39.0995 54.1663 37.9714C53.699 36.8432 53.5767 35.6019 53.8149 34.4043C54.0531 33.2066 54.6412 32.1066 55.5046 31.2431C56.368 30.3797 57.4681 29.7917 58.6657 29.5534C59.8634 29.3152 61.1047 29.4375 62.2329 29.9048C63.361 30.3721 64.3252 31.1634 65.0036 32.1787C65.682 33.194 66.0441 34.3876 66.0441 35.6087C66.0441 37.2462 65.3937 38.8165 64.2358 39.9743C63.078 41.1322 61.5076 41.7826 59.8702 41.7826Z" fill="#26292F"/>
<path d="M35.1739 41.7826C33.9528 41.7826 32.7592 41.4206 31.7439 40.7422C30.7286 40.0638 29.9373 39.0995 29.47 37.9714C29.0027 36.8432 28.8804 35.6019 29.1186 34.4043C29.3569 33.2066 29.9449 32.1066 30.8083 31.2431C31.6717 30.3797 32.7718 29.7917 33.9694 29.5534C35.1671 29.3152 36.4084 29.4375 37.5366 29.9048C38.6647 30.3721 39.6289 31.1634 40.3073 32.1787C40.9857 33.194 41.3478 34.3876 41.3478 35.6087C41.3478 37.2462 40.6974 38.8165 39.5395 39.9743C38.3817 41.1322 36.8113 41.7826 35.1739 41.7826Z" fill="#26292F"/>
<path d="M56.7824 52.587C56.7824 50.5402 55.9693 48.5773 54.522 47.13C53.0747 45.6827 51.1118 44.8696 49.065 44.8696H47.5215C46.7028 44.8696 45.9176 45.1949 45.3387 45.7738C44.7598 46.3527 44.4346 47.1379 44.4346 47.9566C44.4346 48.7753 44.7598 49.5605 45.3387 50.1394C45.9176 50.7183 46.7028 51.0435 47.5215 51.0435H49.065C49.4744 51.0435 49.867 51.2062 50.1564 51.4956C50.4459 51.7851 50.6085 52.1777 50.6085 52.587C50.6085 52.9964 50.4459 53.389 50.1564 53.6784C49.867 53.9679 49.4744 54.1305 49.065 54.1305C48.2463 54.1305 47.4611 54.4557 46.8822 55.0346C46.3033 55.6136 45.978 56.3987 45.978 57.2175C45.978 58.0362 46.3033 58.8213 46.8822 59.4003C47.4611 59.9792 48.2463 60.3044 49.065 60.3044C49.4744 60.3044 49.867 60.467 50.1564 60.7565C50.4459 61.0459 50.6085 61.4385 50.6085 61.8479C50.6085 62.2572 50.4459 62.6498 50.1564 62.9393C49.867 63.2288 49.4744 63.3914 49.065 63.3914H47.5215C46.7028 63.3914 45.9176 63.7166 45.3387 64.2955C44.7598 64.8744 44.4346 65.6596 44.4346 66.4783C44.4346 67.297 44.7598 68.0822 45.3387 68.6611C45.9176 69.2401 46.7028 69.5653 47.5215 69.5653H49.065C51.1118 69.5653 53.0747 68.7522 54.522 67.3049C55.9693 65.8576 56.7824 63.8947 56.7824 61.8479C56.778 60.1738 56.225 58.5473 55.208 57.2175C56.225 55.8876 56.778 54.2611 56.7824 52.587Z" fill="#26292F"/>
</svg>
