<svg width="100" height="100" viewBox="0 0 100 100" fill="none" xmlns="http://www.w3.org/2000/svg">
<rect x="18.396" y="21.1321" width="64.3846" height="64.3846" fill="#9A4FC5"/>
<rect x="12.2642" y="15" width="64.3846" height="64.3846" fill="#25E1DE"/>
<rect x="15.3301" y="18.0659" width="64.3846" height="64.3846" fill="#FBFDFE"/>
<line x1="73.5825" y1="28.8296" x2="85.8463" y2="28.8296" stroke="#9A4FC5" stroke-width="3"/>
<line x1="73.5825" y1="28.8296" x2="85.8463" y2="28.8296" stroke="#9A4FC5" stroke-width="3"/>
<line x1="67.4507" y1="38.0276" x2="76.6485" y2="38.0276" stroke="#9A4FC5" stroke-width="3"/>
<line x1="67.4507" y1="38.0276" x2="76.6485" y2="38.0276" stroke="#9A4FC5" stroke-width="3"/>
<line x1="79.7148" y1="44.1594" x2="88.9126" y2="44.1594" stroke="#9A4FC5" stroke-width="3"/>
<line x1="79.7148" y1="44.1594" x2="88.9126" y2="44.1594" stroke="#9A4FC5" stroke-width="3"/>
<line x1="79.7148" y1="50.2913" x2="98.1104" y2="50.2913" stroke="#9A4FC5" stroke-width="3"/>
<line x1="79.7148" y1="50.2913" x2="98.1104" y2="50.2913" stroke="#9A4FC5" stroke-width="3"/>
<line x1="70.5166" y1="68.6868" x2="85.8463" y2="68.6868" stroke="#9A4FC5" stroke-width="3"/>
<line x1="70.5166" y1="68.6868" x2="85.8463" y2="68.6868" stroke="#9A4FC5" stroke-width="3"/>
<line x1="61.3188" y1="74.8188" x2="73.5826" y2="74.8188" stroke="#9A4FC5" stroke-width="3"/>
<line x1="61.3188" y1="74.8188" x2="73.5826" y2="74.8188" stroke="#9A4FC5" stroke-width="3"/>
<line x1="36.791" y1="22.6321" x2="6.13168" y2="22.6321" stroke="#25E1DE" stroke-width="3"/>
<line x1="36.791" y1="22.6321" x2="6.13168" y2="22.6321" stroke="#25E1DE" stroke-width="3"/>
<line x1="18.396" y1="47.1594" x2="3.06633" y2="47.1594" stroke="#25E1DE" stroke-width="3"/>
<line x1="18.396" y1="47.1594" x2="3.06633" y2="47.1594" stroke="#25E1DE" stroke-width="3"/>
<line x1="18.396" y1="41.0276" x2="0.000396729" y2="41.0276" stroke="#25E1DE" stroke-width="3"/>
<line x1="18.396" y1="41.0276" x2="0.000396729" y2="41.0276" stroke="#25E1DE" stroke-width="3"/>
<line x1="21.4619" y1="71.6868" x2="6.13225" y2="71.6868" stroke="#25E1DE" stroke-width="3"/>
<line x1="21.4619" y1="71.6868" x2="6.13225" y2="71.6868" stroke="#25E1DE" stroke-width="3"/>
<path d="M45.9893 67.1209C49.3758 67.1209 52.1212 64.3756 52.1212 60.989C52.1212 57.6025 49.3758 54.8572 45.9893 54.8572C42.6028 54.8572 39.8574 57.6025 39.8574 60.989C39.8574 64.3756 42.6028 67.1209 45.9893 67.1209Z" fill="#26292F"/>
<path d="M45.9888 70.1869C44.1697 70.1869 42.3914 69.6474 40.8788 68.6368C39.3662 67.6261 38.1873 66.1896 37.4912 64.5089C36.795 62.8282 36.6129 60.9789 36.9678 59.1947C37.3227 57.4105 38.1987 55.7716 39.485 54.4852C40.7713 53.1989 42.4102 52.3229 44.1944 51.968C45.9786 51.6131 47.828 51.7952 49.5087 52.4914C51.1893 53.1876 52.6258 54.3665 53.6365 55.879C54.6472 57.3916 55.1866 59.1699 55.1866 60.9891C55.1866 63.4285 54.2176 65.768 52.4926 67.4929C50.7677 69.2178 48.4282 70.1869 45.9888 70.1869ZM45.9888 57.9231C45.3824 57.9231 44.7897 58.1029 44.2855 58.4398C43.7813 58.7767 43.3883 59.2556 43.1563 59.8158C42.9242 60.376 42.8635 60.9925 42.9818 61.5872C43.1001 62.1819 43.3921 62.7282 43.8209 63.157C44.2497 63.5858 44.796 63.8778 45.3907 63.9961C45.9854 64.1144 46.6019 64.0537 47.1621 63.8216C47.7223 63.5896 48.2012 63.1966 48.5381 62.6924C48.8749 62.1882 49.0548 61.5954 49.0548 60.9891C49.0548 60.1759 48.7317 59.3961 48.1568 58.8211C47.5818 58.2461 46.802 57.9231 45.9888 57.9231Z" fill="#26292F"/>
<path d="M28 100C27.2044 100 26.4413 99.7143 25.8787 99.2052C25.3161 98.6962 25 98.0058 25 97.286V45.7145C25 44.9947 25.3161 44.3043 25.8787 43.7952C26.4413 43.2862 27.2044 43.0002 28 43.0002C28.7956 43.0002 29.5587 43.2862 30.1213 43.7952C30.6839 44.3043 31 44.9947 31 45.7145V97.286C31 98.0058 30.6839 98.6962 30.1213 99.2052C29.5587 99.7143 28.7956 100 28 100Z" fill="#ABFFFF"/>
<path d="M64 100C63.2044 100 62.4413 99.714 61.8787 99.205C61.3161 98.696 61 98.0056 61 97.2857V45.7143C61 44.9944 61.3161 44.304 61.8787 43.795C62.4413 43.286 63.2044 43 64 43C64.7956 43 65.5587 43.286 66.1213 43.795C66.6839 44.304 67 44.9944 67 45.7143V97.2857C67 98.0056 66.6839 98.696 66.1213 99.205C65.5587 99.714 64.7956 100 64 100Z" fill="#ABFFFF"/>
<path d="M39.8575 36.4617C39.0961 35.5623 38.16 34.8268 37.106 34.2998C36.052 33.7728 34.902 33.4653 33.7256 33.3958C32.5493 33.4653 31.3992 33.7728 30.3452 34.2998C29.2912 34.8268 28.3552 35.5623 27.5938 36.4617" stroke="#26292F" stroke-width="5" stroke-linecap="round" stroke-linejoin="round"/>
<path d="M64.3848 36.4617C63.6234 35.5623 62.6873 34.8268 61.6333 34.2998C60.5793 33.7728 59.4293 33.4653 58.253 33.3958C57.0766 33.4653 55.9266 33.7728 54.8726 34.2998C53.8186 34.8268 52.8825 35.5623 52.1211 36.4617" stroke="#26292F" stroke-width="5" stroke-linecap="round" stroke-linejoin="round"/>
</svg>
