<svg width="101" height="100" viewBox="0 0 101 100" fill="none" xmlns="http://www.w3.org/2000/svg">
<rect x="20.375" y="20.1252" width="64.3125" height="64.3125" fill="#9A4FC5"/>
<rect x="14.25" y="14" width="64.3125" height="64.3125" fill="#25E1DE"/>
<rect x="17.3125" y="17.0627" width="64.3125" height="64.3125" fill="#FBFDFE"/>
<line x1="75.5" y1="27.8125" x2="87.75" y2="27.8125" stroke="#9A4FC5" stroke-width="3"/>
<line x1="75.5" y1="27.8125" x2="87.75" y2="27.8125" stroke="#9A4FC5" stroke-width="3"/>
<line x1="69.3745" y1="37.0002" x2="78.562" y2="37.0002" stroke="#9A4FC5" stroke-width="3"/>
<line x1="69.3745" y1="37.0002" x2="78.562" y2="37.0002" stroke="#9A4FC5" stroke-width="3"/>
<line x1="81.625" y1="43.125" x2="90.8125" y2="43.125" stroke="#9A4FC5" stroke-width="3"/>
<line x1="81.625" y1="43.125" x2="90.8125" y2="43.125" stroke="#9A4FC5" stroke-width="3"/>
<line x1="81.625" y1="49.25" x2="100" y2="49.25" stroke="#9A4FC5" stroke-width="3"/>
<line x1="81.625" y1="49.25" x2="100" y2="49.25" stroke="#9A4FC5" stroke-width="3"/>
<line x1="72.437" y1="67.625" x2="87.7495" y2="67.625" stroke="#9A4FC5" stroke-width="3"/>
<line x1="72.437" y1="67.625" x2="87.7495" y2="67.625" stroke="#9A4FC5" stroke-width="3"/>
<line x1="63.2495" y1="73.7502" x2="75.4995" y2="73.7502" stroke="#9A4FC5" stroke-width="3"/>
<line x1="63.2495" y1="73.7502" x2="75.4995" y2="73.7502" stroke="#9A4FC5" stroke-width="3"/>
<line x1="38.75" y1="21.6252" x2="8.125" y2="21.6252" stroke="#25E1DE" stroke-width="3"/>
<line x1="38.75" y1="21.6252" x2="8.125" y2="21.6252" stroke="#25E1DE" stroke-width="3"/>
<line x1="20.375" y1="46.125" x2="5.0625" y2="46.125" stroke="#25E1DE" stroke-width="3"/>
<line x1="20.375" y1="46.125" x2="5.0625" y2="46.125" stroke="#25E1DE" stroke-width="3"/>
<line x1="20.375" y1="40.0002" x2="2" y2="40.0002" stroke="#25E1DE" stroke-width="3"/>
<line x1="20.375" y1="40.0002" x2="2" y2="40.0002" stroke="#25E1DE" stroke-width="3"/>
<line x1="23.437" y1="70.625" x2="8.12451" y2="70.625" stroke="#25E1DE" stroke-width="3"/>
<line x1="23.437" y1="70.625" x2="8.12451" y2="70.625" stroke="#25E1DE" stroke-width="3"/>
<path d="M63.25 63.0002H32.625C31.8128 63.0002 31.0338 62.6776 30.4595 62.1033C29.8852 61.5289 29.5625 60.75 29.5625 59.9377C29.5625 59.1255 29.8852 58.3466 30.4595 57.7722C31.0338 57.1979 31.8128 56.8752 32.625 56.8752H63.25C64.0622 56.8752 64.8412 57.1979 65.4155 57.7722C65.9898 58.3466 66.3125 59.1255 66.3125 59.9377C66.3125 60.75 65.9898 61.5289 65.4155 62.1033C64.8412 62.6776 64.0622 63.0002 63.25 63.0002Z" fill="#26292F"/>
<path d="M60.188 44.625C58.9766 44.625 57.7924 44.2658 56.7851 43.5928C55.7779 42.9197 54.9928 41.9631 54.5292 40.8439C54.0656 39.7247 53.9443 38.4932 54.1807 37.3051C54.417 36.1169 55.0004 35.0256 55.857 34.169C56.7136 33.3124 57.8049 32.729 58.9931 32.4927C60.1812 32.2564 61.4127 32.3777 62.5319 32.8412C63.6511 33.3048 64.6077 34.0899 65.2807 35.0971C65.9538 36.1044 66.313 37.2886 66.313 38.5C66.313 40.1245 65.6677 41.6824 64.519 42.831C63.3704 43.9797 61.8124 44.625 60.188 44.625Z" fill="#26292F"/>
<path d="M35.6875 44.625C34.4761 44.625 33.2919 44.2658 32.2846 43.5928C31.2774 42.9197 30.4923 41.9631 30.0287 40.8439C29.5652 39.7247 29.4439 38.4932 29.6802 37.3051C29.9165 36.1169 30.4999 35.0256 31.3565 34.169C32.2131 33.3124 33.3044 32.729 34.4926 32.4927C35.6807 32.2564 36.9122 32.3777 38.0314 32.8412C39.1506 33.3048 40.1072 34.0899 40.7803 35.0971C41.4533 36.1044 41.8125 37.2886 41.8125 38.5C41.8125 40.1245 41.1672 41.6824 40.0185 42.831C38.8699 43.9797 37.312 44.625 35.6875 44.625Z" fill="#26292F"/>
</svg>
