<svg width="100" height="100" viewBox="0 0 100 100" fill="none" xmlns="http://www.w3.org/2000/svg">
<rect x="19.375" y="21.25" width="64.3125" height="64.3125" fill="#9A4FC5"/>
<rect x="13.25" y="15.125" width="64.3125" height="64.3125" fill="#25E1DE"/>
<rect x="16.3125" y="18.1875" width="64.3125" height="64.3125" fill="#FBFDFE"/>
<line x1="74.5" y1="28.9375" x2="86.75" y2="28.9375" stroke="#9A4FC5" stroke-width="3"/>
<line x1="74.5" y1="28.9375" x2="86.75" y2="28.9375" stroke="#9A4FC5" stroke-width="3"/>
<line x1="68.375" y1="38.125" x2="77.5625" y2="38.125" stroke="#9A4FC5" stroke-width="3"/>
<line x1="68.375" y1="38.125" x2="77.5625" y2="38.125" stroke="#9A4FC5" stroke-width="3"/>
<line x1="80.625" y1="44.25" x2="89.8125" y2="44.25" stroke="#9A4FC5" stroke-width="3"/>
<line x1="80.625" y1="44.25" x2="89.8125" y2="44.25" stroke="#9A4FC5" stroke-width="3"/>
<line x1="80.625" y1="50.375" x2="99" y2="50.375" stroke="#9A4FC5" stroke-width="3"/>
<line x1="80.625" y1="50.375" x2="99" y2="50.375" stroke="#9A4FC5" stroke-width="3"/>
<line x1="71.4375" y1="68.75" x2="86.75" y2="68.75" stroke="#9A4FC5" stroke-width="3"/>
<line x1="71.4375" y1="68.75" x2="86.75" y2="68.75" stroke="#9A4FC5" stroke-width="3"/>
<line x1="62.25" y1="74.875" x2="74.5" y2="74.875" stroke="#9A4FC5" stroke-width="3"/>
<line x1="62.25" y1="74.875" x2="74.5" y2="74.875" stroke="#9A4FC5" stroke-width="3"/>
<line x1="37.75" y1="22.75" x2="7.125" y2="22.75" stroke="#25E1DE" stroke-width="3"/>
<line x1="37.75" y1="22.75" x2="7.125" y2="22.75" stroke="#25E1DE" stroke-width="3"/>
<line x1="19.375" y1="47.25" x2="4.0625" y2="47.25" stroke="#25E1DE" stroke-width="3"/>
<line x1="19.375" y1="47.25" x2="4.0625" y2="47.25" stroke="#25E1DE" stroke-width="3"/>
<line x1="19.375" y1="41.125" x2="1" y2="41.125" stroke="#25E1DE" stroke-width="3"/>
<line x1="19.375" y1="41.125" x2="1" y2="41.125" stroke="#25E1DE" stroke-width="3"/>
<line x1="22.4375" y1="71.75" x2="7.125" y2="71.75" stroke="#25E1DE" stroke-width="3"/>
<line x1="22.4375" y1="71.75" x2="7.125" y2="71.75" stroke="#25E1DE" stroke-width="3"/>
<path d="M71.4375 30.4375C70.6253 30.4375 69.8463 30.1148 69.272 29.5405C68.6977 28.9662 68.375 28.1872 68.375 27.375V12.0625C68.375 11.2503 68.6977 10.4713 69.272 9.89699C69.8463 9.32266 70.6253 9 71.4375 9C72.2497 9 73.0287 9.32266 73.603 9.89699C74.1773 10.4713 74.5 11.2503 74.5 12.0625V27.375C74.5 28.1872 74.1773 28.9662 73.603 29.5405C73.0287 30.1148 72.2497 30.4375 71.4375 30.4375Z" fill="#26292F"/>
<path d="M40.8113 39.6248C40.2109 39.6202 39.6252 39.4391 39.1269 39.1042L29.9394 32.9792C29.3138 32.5087 28.8921 31.8164 28.761 31.0446C28.6299 30.2729 28.7994 29.4802 29.2345 28.8294C29.6696 28.1787 30.3374 27.7193 31.1008 27.5456C31.8641 27.3719 32.6649 27.4971 33.3388 27.8955L42.5263 34.0205C43.0715 34.3869 43.4845 34.9189 43.7043 35.538C43.924 36.157 43.9388 36.8303 43.7466 37.4585C43.5544 38.0867 43.1653 38.6364 42.6367 39.0264C42.1082 39.4165 41.4682 39.6263 40.8113 39.6248Z" fill="#26292F"/>
<path d="M53.063 39.6248C52.4061 39.6263 51.7661 39.4165 51.2376 39.0264C50.709 38.6364 50.3199 38.0867 50.1277 37.4585C49.9355 36.8303 49.9503 36.157 50.1701 35.538C50.3898 34.9189 50.8028 34.3869 51.348 34.0205L60.5355 27.8955C61.2094 27.4971 62.0102 27.3719 62.7735 27.5456C63.5369 27.7193 64.2047 28.1787 64.6398 28.8294C65.075 29.4802 65.2444 30.2729 65.1133 31.0446C64.9822 31.8164 64.5605 32.5087 63.9349 32.9792L54.7474 39.1042C54.2491 39.4391 53.6634 39.6202 53.063 39.6248Z" fill="#26292F"/>
<path d="M62.2492 67.1875C61.4797 67.1932 60.7362 66.9089 60.1667 66.3913C56.4676 63.2004 51.8148 61.3263 46.9368 61.0625C42.0536 61.3445 37.3966 63.2159 33.6761 66.3913C33.0751 66.9395 32.2809 67.2265 31.4682 67.1892C30.6555 67.1519 29.8909 66.7932 29.3427 66.1922C28.7944 65.5911 28.5074 64.7969 28.5447 63.9842C28.5821 63.1716 28.9407 62.407 29.5418 61.8588C34.3907 57.6512 40.5226 55.2114 46.9368 54.9375C53.3604 55.1932 59.5013 57.6474 64.3317 61.8894C64.7795 62.3086 65.0911 62.8526 65.2261 63.451C65.3611 64.0493 65.3133 64.6745 65.0889 65.2453C64.8645 65.8162 64.4739 66.3066 63.9676 66.6528C63.4613 66.9991 62.8626 67.1854 62.2492 67.1875Z" fill="#26292F"/>
<path d="M34.6875 51.875C33.0357 51.8104 31.4166 51.3946 29.938 50.6553C28.4594 49.916 27.1553 48.8702 26.1125 47.5875C25.6252 46.9377 25.4159 46.121 25.5308 45.3169C25.6457 44.5128 26.0752 43.7873 26.725 43.3C27.3748 42.8127 28.1916 42.6034 28.9956 42.7183C29.7997 42.8332 30.5252 43.2627 31.0125 43.9125C31.9733 44.9515 33.2798 45.6048 34.6875 45.75C36.0952 45.6048 37.4017 44.9515 38.3625 43.9125C38.8539 43.2627 39.5833 42.8348 40.3902 42.7228C41.1972 42.6108 42.0155 42.8239 42.6653 43.3153C43.3151 43.8067 43.7431 44.5361 43.8551 45.343C43.9671 46.15 43.7539 46.9684 43.2625 47.6181C42.2168 48.8952 40.9114 49.9352 39.433 50.6692C37.9546 51.4031 36.337 51.8141 34.6875 51.875Z" fill="#26292F"/>
<path d="M59.1879 51.8749C57.5361 51.8103 55.917 51.3945 54.4384 50.6552C52.9598 49.9159 51.6557 48.8701 50.6129 47.5874C50.3696 47.2656 50.192 46.8991 50.0904 46.5088C49.9887 46.1184 49.9649 45.7118 50.0204 45.3123C50.0758 44.9127 50.2094 44.528 50.4136 44.1801C50.6177 43.8322 50.8884 43.5279 51.2101 43.2846C51.8599 42.7932 52.6783 42.58 53.4852 42.692C54.2921 42.804 55.0215 43.232 55.5129 43.8818C56.4689 44.9321 57.776 45.5965 59.1879 45.7499C60.5956 45.6046 61.9021 44.9514 62.8629 43.9124C63.3543 43.2626 64.0837 42.8346 64.8906 42.7226C65.6976 42.6106 66.516 42.8238 67.1657 43.3152C67.8155 43.8066 68.2435 44.536 68.3555 45.3429C68.4675 46.1498 68.2543 46.9682 67.7629 47.618C66.7172 48.8951 65.4118 49.9351 63.9334 50.669C62.455 51.403 60.8374 51.814 59.1879 51.8749Z" fill="#26292F"/>
</svg>
