<svg width="100" height="100" viewBox="0 0 100 100" fill="none" xmlns="http://www.w3.org/2000/svg">
<rect x="18.75" y="19.25" width="65.625" height="65.625" fill="#9A4FC5"/>
<rect x="12.5" y="13" width="65.625" height="65.625" fill="#25E1DE"/>
<rect x="15.625" y="16.125" width="65.625" height="65.625" fill="#FBFDFE"/>
<line x1="75" y1="27.125" x2="87.5" y2="27.125" stroke="#9A4FC5" stroke-width="3"/>
<line x1="75" y1="27.125" x2="87.5" y2="27.125" stroke="#9A4FC5" stroke-width="3"/>
<line x1="68.75" y1="36.5" x2="78.125" y2="36.5" stroke="#9A4FC5" stroke-width="3"/>
<line x1="68.75" y1="36.5" x2="78.125" y2="36.5" stroke="#9A4FC5" stroke-width="3"/>
<line x1="81.25" y1="42.75" x2="90.625" y2="42.75" stroke="#9A4FC5" stroke-width="3"/>
<line x1="81.25" y1="42.75" x2="90.625" y2="42.75" stroke="#9A4FC5" stroke-width="3"/>
<line x1="81.25" y1="49" x2="100" y2="49" stroke="#9A4FC5" stroke-width="3"/>
<line x1="81.25" y1="49" x2="100" y2="49" stroke="#9A4FC5" stroke-width="3"/>
<line x1="71.875" y1="67.75" x2="87.5" y2="67.75" stroke="#9A4FC5" stroke-width="3"/>
<line x1="71.875" y1="67.75" x2="87.5" y2="67.75" stroke="#9A4FC5" stroke-width="3"/>
<line x1="62.4995" y1="74" x2="74.9995" y2="74" stroke="#9A4FC5" stroke-width="3"/>
<line x1="62.4995" y1="74" x2="74.9995" y2="74" stroke="#9A4FC5" stroke-width="3"/>
<line x1="37.5" y1="20.75" x2="6.25" y2="20.75" stroke="#25E1DE" stroke-width="3"/>
<line x1="37.5" y1="20.75" x2="6.25" y2="20.75" stroke="#25E1DE" stroke-width="3"/>
<line x1="18.75" y1="45.75" x2="3.125" y2="45.75" stroke="#25E1DE" stroke-width="3"/>
<line x1="18.75" y1="45.75" x2="3.125" y2="45.75" stroke="#25E1DE" stroke-width="3"/>
<line x1="18.75" y1="39.5" y2="39.5" stroke="#25E1DE" stroke-width="3"/>
<line x1="18.75" y1="39.5" y2="39.5" stroke="#25E1DE" stroke-width="3"/>
<line x1="21.8745" y1="70.75" x2="6.24951" y2="70.75" stroke="#25E1DE" stroke-width="3"/>
<line x1="21.8745" y1="70.75" x2="6.24951" y2="70.75" stroke="#25E1DE" stroke-width="3"/>
<path d="M62.5 50.429C62.5 57.3352 55.5 62.929 46.875 62.929C38.25 62.929 31.25 57.3352 31.25 50.429V47.304H62.5V50.429Z" fill="#26292F"/>
<path d="M46.875 66.0542C36.5312 66.0542 28.125 59.0542 28.125 50.4292V47.3042C28.125 46.4754 28.4542 45.6805 29.0403 45.0945C29.6263 44.5084 30.4212 44.1792 31.25 44.1792H62.5C63.3288 44.1792 64.1237 44.5084 64.7097 45.0945C65.2958 45.6805 65.625 46.4754 65.625 47.3042V50.4292C65.625 59.0542 57.2188 66.0542 46.875 66.0542ZM34.375 50.4292C34.375 55.5854 39.9688 59.8042 46.875 59.8042C53.7812 59.8042 59.375 55.5854 59.375 50.4292H34.375Z" fill="#26292F"/>
<path d="M62.4998 37.9294H53.1248C52.5921 37.9278 52.0687 37.79 51.6042 37.5292C51.1397 37.2684 50.7496 36.8931 50.471 36.4391C50.1923 35.9851 50.0343 35.4674 50.012 34.9352C49.9897 34.4029 50.1039 33.8738 50.3436 33.3981L53.4686 27.1481C53.8524 26.4324 54.4997 25.8942 55.2735 25.6476C56.0473 25.401 56.8867 25.4652 57.6139 25.8268C58.341 26.1884 58.8989 26.8188 59.1693 27.5846C59.4397 28.3504 59.4013 29.1914 59.0623 29.9294L58.1873 31.6794H62.4998C63.3286 31.6794 64.1235 32.0086 64.7095 32.5947C65.2956 33.1807 65.6248 33.9756 65.6248 34.8044C65.6248 35.6332 65.2956 36.428 64.7095 37.0141C64.1235 37.6001 63.3286 37.9294 62.4998 37.9294Z" fill="#26292F"/>
<path d="M40.625 37.9296H31.25C30.4212 37.9296 29.6263 37.6004 29.0403 37.0143C28.4542 36.4283 28.125 35.6334 28.125 34.8046C28.125 33.9758 28.4542 33.181 29.0403 32.5949C29.6263 32.0089 30.4212 31.6796 31.25 31.6796H35.5625L34.6875 29.9609C34.3485 29.2229 34.3102 28.3819 34.5805 27.6161C34.8509 26.8503 35.4088 26.2199 36.136 25.8583C36.8632 25.4967 37.7026 25.4325 38.4763 25.6791C39.2501 25.9257 39.8974 26.4639 40.2813 27.1796L43.4063 33.4296C43.6388 33.9042 43.7472 34.4299 43.7213 34.9577C43.6954 35.4855 43.5361 35.9982 43.2583 36.4477C42.9805 36.8972 42.5932 37.2689 42.1327 37.5281C41.6722 37.7873 41.1534 37.9254 40.625 37.9296Z" fill="#26292F"/>
</svg>
