<svg width="100" height="100" viewBox="0 0 100 100" fill="none" xmlns="http://www.w3.org/2000/svg">
<rect x="18.5625" y="20.1875" width="64.9688" height="64.9688" fill="#9A4FC5"/>
<rect x="12.3755" y="14" width="64.9688" height="64.9688" fill="#25E1DE"/>
<rect x="15.4692" y="17.0938" width="64.9688" height="64.9688" fill="#FBFDFE"/>
<line x1="74.25" y1="27.9685" x2="86.625" y2="27.9685" stroke="#9A4FC5" stroke-width="3"/>
<line x1="74.25" y1="27.9685" x2="86.625" y2="27.9685" stroke="#9A4FC5" stroke-width="3"/>
<line x1="68.0625" y1="37.25" x2="77.3438" y2="37.25" stroke="#9A4FC5" stroke-width="3"/>
<line x1="68.0625" y1="37.25" x2="77.3438" y2="37.25" stroke="#9A4FC5" stroke-width="3"/>
<line x1="80.438" y1="43.4373" x2="89.7192" y2="43.4373" stroke="#9A4FC5" stroke-width="3"/>
<line x1="80.438" y1="43.4373" x2="89.7192" y2="43.4373" stroke="#9A4FC5" stroke-width="3"/>
<line x1="80.438" y1="49.625" x2="99.0005" y2="49.625" stroke="#9A4FC5" stroke-width="3"/>
<line x1="80.438" y1="49.625" x2="99.0005" y2="49.625" stroke="#9A4FC5" stroke-width="3"/>
<line x1="71.1562" y1="68.1875" x2="86.625" y2="68.1875" stroke="#9A4FC5" stroke-width="3"/>
<line x1="71.1562" y1="68.1875" x2="86.625" y2="68.1875" stroke="#9A4FC5" stroke-width="3"/>
<line x1="61.875" y1="74.375" x2="74.25" y2="74.375" stroke="#9A4FC5" stroke-width="3"/>
<line x1="61.875" y1="74.375" x2="74.25" y2="74.375" stroke="#9A4FC5" stroke-width="3"/>
<line x1="37.125" y1="21.6875" x2="6.1875" y2="21.6875" stroke="#25E1DE" stroke-width="3"/>
<line x1="37.125" y1="21.6875" x2="6.1875" y2="21.6875" stroke="#25E1DE" stroke-width="3"/>
<line x1="18.5625" y1="46.4373" x2="3.09375" y2="46.4373" stroke="#25E1DE" stroke-width="3"/>
<line x1="18.5625" y1="46.4373" x2="3.09375" y2="46.4373" stroke="#25E1DE" stroke-width="3"/>
<line x1="18.5625" y1="40.25" y2="40.25" stroke="#25E1DE" stroke-width="3"/>
<line x1="18.5625" y1="40.25" y2="40.25" stroke="#25E1DE" stroke-width="3"/>
<line x1="21.6562" y1="71.1875" x2="6.1875" y2="71.1875" stroke="#25E1DE" stroke-width="3"/>
<line x1="21.6562" y1="71.1875" x2="6.1875" y2="71.1875" stroke="#25E1DE" stroke-width="3"/>
<path d="M30.9375 42.3337C30.117 42.3337 29.3301 42.0077 28.7499 41.4275C28.1697 40.8474 27.8438 40.0604 27.8438 39.2399C27.9061 38.2922 28.1568 37.3664 28.5812 36.5167C29.0055 35.6669 29.5949 34.9103 30.315 34.291C31.0352 33.6717 31.8715 33.2022 32.7752 32.9098C33.6788 32.6175 34.6317 32.5082 35.5781 32.5884C36.5197 32.508 37.4678 32.6152 38.3676 32.9037C39.2675 33.1922 40.1012 33.6564 40.8205 34.2692C41.5398 34.882 42.1304 35.6314 42.5581 36.474C42.9859 37.3166 43.2423 38.2357 43.3125 39.1781C43.3125 39.9986 42.9866 40.7855 42.4064 41.3657C41.8262 41.9459 41.0393 42.2718 40.2188 42.2718C39.3982 42.2718 38.6113 41.9459 38.0311 41.3657C37.4509 40.7855 37.125 39.9986 37.125 39.1781C36.6495 38.9208 36.1187 38.7828 35.5781 38.7759C35.2907 38.752 35.0015 38.7893 34.7296 38.8853C34.4576 38.9813 34.2091 39.1338 34.0003 39.3327C33.9764 40.1317 33.6441 40.8905 33.0731 41.4499C32.5022 42.0093 31.7368 42.326 30.9375 42.3337Z" fill="#26292F"/>
<path d="M52.5942 42.3337C51.7737 42.3337 50.9868 42.0077 50.4066 41.4275C49.8264 40.8474 49.5005 40.0604 49.5005 39.2399C49.5629 38.2922 49.8136 37.3664 50.2379 36.5167C50.6622 35.6669 51.2517 34.9103 51.9718 34.291C52.6919 33.6717 53.5282 33.2022 54.4319 32.9098C55.3356 32.6175 56.2885 32.5082 57.2349 32.5884C58.1764 32.508 59.1245 32.6152 60.0244 32.9037C60.9242 33.1922 61.7579 33.6564 62.4772 34.2692C63.1965 34.882 63.7871 35.6314 64.2149 36.474C64.6426 37.3166 64.899 38.2357 64.9692 39.1781C64.9692 39.9986 64.6433 40.7855 64.0631 41.3657C63.4829 41.9459 62.696 42.2718 61.8755 42.2718C61.055 42.2718 60.2681 41.9459 59.6879 41.3657C59.1077 40.7855 58.7817 39.9986 58.7817 39.1781C58.3102 38.9108 57.7768 38.7721 57.2349 38.7759C56.9475 38.752 56.6583 38.7893 56.3863 38.8853C56.1143 38.9813 55.8658 39.1338 55.6571 39.3327C55.6331 40.1317 55.3008 40.8905 54.7299 41.4499C54.1589 42.0093 53.3936 42.326 52.5942 42.3337Z" fill="#26292F"/>
<path d="M61.5661 54.5542L65.3096 58.7926C66.3019 60.0154 66.7681 61.5822 66.6057 63.1485C66.4432 64.7149 65.6655 66.1527 64.4433 67.1458C63.33 68.2547 61.8227 68.8774 60.2513 68.8774C58.6799 68.8774 57.1725 68.2547 56.0592 67.1458L52.5942 63.0311" fill="#D894FF"/>
<path d="M60.1747 71.879C58.9687 71.8905 57.7741 71.6454 56.67 71.16C55.5659 70.6746 54.5776 69.9601 53.7707 69.0637L50.2747 65.1037C47.4285 62.2574 49.2538 62.0099 50.5222 60.7415C51.134 60.1969 51.9368 59.9172 52.7545 59.9636C53.5722 60.0099 54.3382 60.3787 54.8844 60.989L58.3804 64.949C58.926 65.5644 59.6938 65.9378 60.5147 65.9871C61.3357 66.0364 62.1426 65.7576 62.758 65.212C63.3734 64.6663 63.7468 63.8986 63.7961 63.0776C63.8455 62.2566 63.5666 61.4497 63.021 60.8343L59.2776 56.5959C58.9819 56.2977 58.75 55.9424 58.596 55.5517C58.4421 55.161 58.3693 54.7431 58.382 54.3233C58.3948 53.9036 58.4929 53.4908 58.6704 53.1102C58.8478 52.7296 59.1009 52.3891 59.4142 52.1095C59.7275 51.8298 60.0944 51.6169 60.4926 51.4836C60.8909 51.3504 61.3121 51.2996 61.7306 51.3344C62.1491 51.3691 62.5561 51.4887 62.9269 51.6859C63.2977 51.8831 63.6244 52.1537 63.8872 52.4812L67.6307 56.7196C69.167 58.5543 69.9126 60.9237 69.7038 63.3076C69.495 65.6916 68.3489 67.8952 66.5169 69.4349C64.7736 70.999 62.5168 71.8687 60.1747 71.879Z" fill="#26292F"/>
<path d="M46.4062 64.0513C36.1659 64.0513 27.8438 57.1213 27.8438 48.5825C27.8438 47.762 28.1697 46.9751 28.7499 46.3949C29.3301 45.8147 30.117 45.4888 30.9375 45.4888C31.758 45.4888 32.5449 45.8147 33.1251 46.3949C33.7053 46.9751 34.0312 47.762 34.0312 48.5825C34.0312 53.6872 39.5691 57.8638 46.4062 57.8638C53.2434 57.8638 58.7812 53.6872 58.7812 48.5825C58.7812 47.762 59.1072 46.9751 59.6874 46.3949C60.2676 45.8147 61.0545 45.4888 61.875 45.4888C62.6955 45.4888 63.4824 45.8147 64.0626 46.3949C64.6428 46.9751 64.9688 47.762 64.9688 48.5825C64.9688 57.1213 56.6466 64.0513 46.4062 64.0513Z" fill="#26292F"/>
</svg>
