<svg width="101" height="100" viewBox="0 0 101 100" fill="none" xmlns="http://www.w3.org/2000/svg">
<rect x="20.375" y="20.3486" width="64.3125" height="64.3125" fill="#9A4FC5"/>
<rect x="14.2505" y="14.2236" width="64.3125" height="64.3125" fill="#25E1DE"/>
<rect x="17.313" y="17.2864" width="64.3125" height="64.3125" fill="#FBFDFE"/>
<line x1="75.5" y1="28.0361" x2="87.75" y2="28.0361" stroke="#9A4FC5" stroke-width="3"/>
<line x1="75.5" y1="28.0361" x2="87.75" y2="28.0361" stroke="#9A4FC5" stroke-width="3"/>
<line x1="69.375" y1="37.2236" x2="78.5625" y2="37.2236" stroke="#9A4FC5" stroke-width="3"/>
<line x1="69.375" y1="37.2236" x2="78.5625" y2="37.2236" stroke="#9A4FC5" stroke-width="3"/>
<line x1="81.6255" y1="43.3486" x2="90.813" y2="43.3486" stroke="#9A4FC5" stroke-width="3"/>
<line x1="81.6255" y1="43.3486" x2="90.813" y2="43.3486" stroke="#9A4FC5" stroke-width="3"/>
<line x1="81.6255" y1="49.4736" x2="100" y2="49.4736" stroke="#9A4FC5" stroke-width="3"/>
<line x1="81.6255" y1="49.4736" x2="100" y2="49.4736" stroke="#9A4FC5" stroke-width="3"/>
<line x1="72.4375" y1="67.8486" x2="87.75" y2="67.8486" stroke="#9A4FC5" stroke-width="3"/>
<line x1="72.4375" y1="67.8486" x2="87.75" y2="67.8486" stroke="#9A4FC5" stroke-width="3"/>
<line x1="63.25" y1="73.9736" x2="75.5" y2="73.9736" stroke="#9A4FC5" stroke-width="3"/>
<line x1="63.25" y1="73.9736" x2="75.5" y2="73.9736" stroke="#9A4FC5" stroke-width="3"/>
<line x1="38.7495" y1="21.8486" x2="8.12451" y2="21.8486" stroke="#25E1DE" stroke-width="3"/>
<line x1="38.7495" y1="21.8486" x2="8.12451" y2="21.8486" stroke="#25E1DE" stroke-width="3"/>
<line x1="20.375" y1="46.3486" x2="5.0625" y2="46.3486" stroke="#25E1DE" stroke-width="3"/>
<line x1="20.375" y1="46.3486" x2="5.0625" y2="46.3486" stroke="#25E1DE" stroke-width="3"/>
<line x1="20.375" y1="40.2236" x2="2" y2="40.2236" stroke="#25E1DE" stroke-width="3"/>
<line x1="20.375" y1="40.2236" x2="2" y2="40.2236" stroke="#25E1DE" stroke-width="3"/>
<line x1="23.4375" y1="70.8486" x2="8.125" y2="70.8486" stroke="#25E1DE" stroke-width="3"/>
<line x1="23.4375" y1="70.8486" x2="8.125" y2="70.8486" stroke="#25E1DE" stroke-width="3"/>
<path d="M47.938 60.1613C47.1258 60.1613 46.3469 59.8387 45.7725 59.2643C45.1982 58.69 44.8755 57.911 44.8755 57.0988C44.8732 56.6958 44.9505 56.2962 45.1029 55.9231C45.2553 55.55 45.4798 55.2106 45.7637 54.9244C46.1203 54.5707 46.5585 54.3101 47.0397 54.1657C47.5208 54.0213 48.0301 53.9974 48.5226 54.0962C49.0151 54.195 49.4758 54.4135 49.864 54.7323C50.2522 55.0511 50.556 55.4606 50.7486 55.9245C50.9412 56.3885 51.0168 56.8927 50.9686 57.3927C50.9204 57.8927 50.75 58.3732 50.4723 58.7918C50.1946 59.2104 49.8182 59.5543 49.3762 59.7931C48.9343 60.032 48.4404 60.1584 47.938 60.1613Z" fill="#26292F"/>
<path d="M29.5625 35.6614C30.2407 36.6486 31.1585 37.4475 32.2298 37.9831C33.301 38.5188 34.4908 38.7737 35.6875 38.7239C36.8829 38.7651 38.0696 38.5065 39.1395 37.9716C40.2093 37.4367 41.1283 36.6425 41.8125 35.6614" fill="#26292F"/>
<path d="M29.5625 35.6614C30.2407 36.6486 31.1585 37.4475 32.2298 37.9831C33.301 38.5188 34.4908 38.7737 35.6875 38.7239C36.8829 38.7651 38.0696 38.5065 39.1395 37.9716C40.2093 37.4367 41.1283 36.6425 41.8125 35.6614" stroke="#26292F" stroke-width="5" stroke-linecap="round" stroke-linejoin="round"/>
<path d="M54.063 35.6614C54.7412 36.6486 55.6589 37.4475 56.7302 37.9831C57.8015 38.5188 58.9913 38.7737 60.188 38.7239C61.3834 38.7651 62.5701 38.5065 63.64 37.9716C64.7098 37.4367 65.6287 36.6425 66.313 35.6614" fill="#26292F"/>
<path d="M54.063 35.6614C54.7412 36.6486 55.6589 37.4475 56.7302 37.9831C57.8015 38.5188 58.9913 38.7737 60.188 38.7239C61.3834 38.7651 62.5701 38.5065 63.64 37.9716C64.7098 37.4367 65.6287 36.6425 66.313 35.6614" stroke="#26292F" stroke-width="5" stroke-linecap="round" stroke-linejoin="round"/>
<path d="M78.563 11.1611H92.3442L78.563 26.4736H93.8755" stroke="#26292F" stroke-width="5" stroke-linecap="round"/>
</svg>
