<svg width="100" height="100" viewBox="0 0 100 100" fill="none" xmlns="http://www.w3.org/2000/svg">
<rect x="22.2612" y="21.9131" width="62.0868" height="62.0868" fill="#9A4FC5"/>
<rect x="16.3486" y="16" width="62.0868" height="62.0868" fill="#25E1DE"/>
<rect x="19.3052" y="18.9565" width="62.0868" height="62.0868" fill="#FBFDFE"/>
<line x1="75.4785" y1="29.2825" x2="87.3046" y2="29.2825" stroke="#9A4FC5" stroke-width="3"/>
<line x1="75.4785" y1="29.2825" x2="87.3046" y2="29.2825" stroke="#9A4FC5" stroke-width="3"/>
<line x1="69.5659" y1="38.1521" x2="78.4355" y2="38.1521" stroke="#9A4FC5" stroke-width="3"/>
<line x1="69.5659" y1="38.1521" x2="78.4355" y2="38.1521" stroke="#9A4FC5" stroke-width="3"/>
<line x1="81.3921" y1="44.0654" x2="90.2616" y2="44.0654" stroke="#9A4FC5" stroke-width="3"/>
<line x1="81.3921" y1="44.0654" x2="90.2616" y2="44.0654" stroke="#9A4FC5" stroke-width="3"/>
<line x1="81.3921" y1="49.9783" x2="99.1312" y2="49.9783" stroke="#9A4FC5" stroke-width="3"/>
<line x1="81.3921" y1="49.9783" x2="99.1312" y2="49.9783" stroke="#9A4FC5" stroke-width="3"/>
<line x1="72.5225" y1="67.7173" x2="87.305" y2="67.7173" stroke="#9A4FC5" stroke-width="3"/>
<line x1="72.5225" y1="67.7173" x2="87.305" y2="67.7173" stroke="#9A4FC5" stroke-width="3"/>
<line x1="63.6528" y1="73.6304" x2="75.4789" y2="73.6304" stroke="#9A4FC5" stroke-width="3"/>
<line x1="63.6528" y1="73.6304" x2="75.4789" y2="73.6304" stroke="#9A4FC5" stroke-width="3"/>
<line x1="40.0005" y1="23.4131" x2="10.4353" y2="23.4131" stroke="#25E1DE" stroke-width="3"/>
<line x1="40.0005" y1="23.4131" x2="10.4353" y2="23.4131" stroke="#25E1DE" stroke-width="3"/>
<line x1="22.2612" y1="47.0652" x2="7.47866" y2="47.0652" stroke="#25E1DE" stroke-width="3"/>
<line x1="22.2612" y1="47.0652" x2="7.47866" y2="47.0652" stroke="#25E1DE" stroke-width="3"/>
<line x1="22.2612" y1="41.1521" x2="4.52214" y2="41.1521" stroke="#25E1DE" stroke-width="3"/>
<line x1="22.2612" y1="41.1521" x2="4.52214" y2="41.1521" stroke="#25E1DE" stroke-width="3"/>
<line x1="25.2178" y1="70.7173" x2="10.4352" y2="70.7173" stroke="#25E1DE" stroke-width="3"/>
<line x1="25.2178" y1="70.7173" x2="10.4352" y2="70.7173" stroke="#25E1DE" stroke-width="3"/>
<path d="M16.348 72.1742C12.4274 72.1742 8.66742 70.6168 5.89515 67.8445C3.12288 65.0722 1.56543 61.3122 1.56543 57.3916C1.56543 53.4711 3.12288 49.711 5.89515 46.9388C8.66742 44.1665 12.4274 42.6091 16.348 42.6091C20.9961 42.5924 25.5728 43.7519 29.6523 45.9795C31.3467 47.1156 33.3326 47.7393 35.3723 47.776C37.412 47.8127 39.419 47.2608 41.1532 46.1864C41.6578 45.8045 42.2718 45.5946 42.9046 45.5876C43.5375 45.5806 44.1559 45.7769 44.6689 46.1476C45.1819 46.5182 45.5624 47.0438 45.7545 47.6468C45.9465 48.2499 45.94 48.8987 45.7358 49.4977C45.6766 49.6751 37.9306 72.1742 16.348 72.1742ZM16.5845 48.5221H16.348C13.9957 48.5221 11.7397 49.4566 10.0763 51.1199C8.41293 52.7833 7.47846 55.0393 7.47846 57.3916C7.47846 59.744 8.41293 62 10.0763 63.6634C11.7397 65.3267 13.9957 66.2612 16.348 66.2612C20.6344 66.1654 24.82 64.9428 28.4841 62.7164C32.1481 60.4899 35.1614 57.3381 37.221 53.5777C33.5346 53.8811 29.8475 53.0008 26.6958 51.0647C23.5812 49.4103 20.1112 48.5377 16.5845 48.5221Z" fill="#25E1DE"/>
<path d="M42.9562 48.5222C40.7545 49.9476 38.1877 50.706 35.5649 50.706C32.9421 50.706 30.3752 49.9476 28.1736 48.5222C24.5407 46.5636 20.4747 45.5471 16.3475 45.5657C13.2111 45.5657 10.2031 46.8116 7.98526 49.0295C5.76744 51.2473 4.52148 54.2553 4.52148 57.3917C4.52148 60.5282 5.76744 63.5362 7.98526 65.754C10.2031 67.9718 13.2111 69.2178 16.3475 69.2178C36.0675 69.2178 42.9562 48.5222 42.9562 48.5222Z" fill="#C7E7F5"/>
<path d="M51.8261 60.3478H48.8696C48.0855 60.3478 47.3335 60.0364 46.779 59.4819C46.2246 58.9274 45.9131 58.1754 45.9131 57.3913C45.9131 56.6072 46.2246 55.8552 46.779 55.3008C47.3335 54.7463 48.0855 54.4348 48.8696 54.4348H51.8261C52.6102 54.4348 53.3622 54.7463 53.9167 55.3008C54.4711 55.8552 54.7826 56.6072 54.7826 57.3913C54.7826 58.1754 54.4711 58.9274 53.9167 59.4819C53.3622 60.0364 52.6102 60.3478 51.8261 60.3478Z" fill="#26292F"/>
<path d="M31.1304 36.6956C31.7851 37.6486 32.6711 38.4198 33.7053 38.937C34.7395 39.4541 35.8881 39.7001 37.0434 39.6521C38.1974 39.6919 39.3431 39.4422 40.3759 38.9258C41.4087 38.4094 42.2959 37.6427 42.9564 36.6956" stroke="#26292F" stroke-width="5" stroke-linecap="round" stroke-linejoin="round"/>
<path d="M54.7827 36.6956C55.4374 37.6486 56.3234 38.4198 57.3577 38.937C58.3919 39.4541 59.5405 39.7001 60.6957 39.6521C61.8498 39.6919 62.9954 39.4422 64.0283 38.9258C65.0611 38.4094 65.9482 37.6427 66.6088 36.6956" stroke="#26292F" stroke-width="5" stroke-linecap="round" stroke-linejoin="round"/>
</svg>
