<svg width="100" height="100" viewBox="0 0 100 100" fill="none" xmlns="http://www.w3.org/2000/svg">
<rect x="18.8496" y="19.2424" width="65.5443" height="65.5443" fill="#9A4FC5"/>
<rect x="12.6074" y="13" width="65.5443" height="65.5443" fill="#25E1DE"/>
<rect x="15.7285" y="16.1211" width="65.5443" height="65.5443" fill="#FBFDFE"/>
<line x1="75.0308" y1="27.1057" x2="87.5154" y2="27.1057" stroke="#9A4FC5" stroke-width="3"/>
<line x1="75.0308" y1="27.1057" x2="87.5154" y2="27.1057" stroke="#9A4FC5" stroke-width="3"/>
<line x1="68.7886" y1="36.4695" x2="78.152" y2="36.4695" stroke="#9A4FC5" stroke-width="3"/>
<line x1="68.7886" y1="36.4695" x2="78.152" y2="36.4695" stroke="#9A4FC5" stroke-width="3"/>
<line x1="81.2729" y1="42.7117" x2="90.6364" y2="42.7117" stroke="#9A4FC5" stroke-width="3"/>
<line x1="81.2729" y1="42.7117" x2="90.6364" y2="42.7117" stroke="#9A4FC5" stroke-width="3"/>
<line x1="81.2729" y1="48.9539" x2="99.9999" y2="48.9539" stroke="#9A4FC5" stroke-width="3"/>
<line x1="81.2729" y1="48.9539" x2="99.9999" y2="48.9539" stroke="#9A4FC5" stroke-width="3"/>
<line x1="71.9097" y1="67.6809" x2="87.5154" y2="67.6809" stroke="#9A4FC5" stroke-width="3"/>
<line x1="71.9097" y1="67.6809" x2="87.5154" y2="67.6809" stroke="#9A4FC5" stroke-width="3"/>
<line x1="62.5459" y1="73.9233" x2="75.0305" y2="73.9233" stroke="#9A4FC5" stroke-width="3"/>
<line x1="62.5459" y1="73.9233" x2="75.0305" y2="73.9233" stroke="#9A4FC5" stroke-width="3"/>
<line x1="37.5771" y1="20.7424" x2="6.3656" y2="20.7424" stroke="#25E1DE" stroke-width="3"/>
<line x1="37.5771" y1="20.7424" x2="6.3656" y2="20.7424" stroke="#25E1DE" stroke-width="3"/>
<line x1="18.8496" y1="45.7117" x2="3.24384" y2="45.7117" stroke="#25E1DE" stroke-width="3"/>
<line x1="18.8496" y1="45.7117" x2="3.24384" y2="45.7117" stroke="#25E1DE" stroke-width="3"/>
<line x1="18.8496" y1="39.4695" x2="0.122681" y2="39.4695" stroke="#25E1DE" stroke-width="3"/>
<line x1="18.8496" y1="39.4695" x2="0.122681" y2="39.4695" stroke="#25E1DE" stroke-width="3"/>
<line x1="21.9707" y1="70.6809" x2="6.36493" y2="70.6809" stroke="#25E1DE" stroke-width="3"/>
<line x1="21.9707" y1="70.6809" x2="6.36493" y2="70.6809" stroke="#25E1DE" stroke-width="3"/>
<path d="M34.9562 61.378C35.3725 62.07 36.0409 62.5736 36.8208 62.7832C37.6007 62.9927 38.4315 62.8918 39.1385 62.5016C41.3941 60.8115 44.1235 59.8726 46.9414 59.8174C49.7486 59.8791 52.4662 60.8177 54.7131 62.5016C55.4194 62.9041 56.2548 63.0151 57.0417 62.8111C57.8286 62.6071 58.5049 62.1041 58.9266 61.4092C59.1392 61.0535 59.2788 60.6591 59.3374 60.2489C59.3959 59.8387 59.3722 59.421 59.2676 59.0201C59.163 58.6192 58.9797 58.2431 58.7282 57.9138C58.4768 57.5844 58.1622 57.3085 57.803 57.102C54.6194 54.8156 50.7986 53.5857 46.879 53.5857C42.9594 53.5857 39.1386 54.8156 35.9549 57.102C35.2588 57.5395 34.7635 58.234 34.5764 59.0346C34.3894 59.8353 34.5259 60.6774 34.9562 61.378Z" fill="#26292F"/>
<path d="M34.4557 44.2117C33.2211 44.2117 32.0142 43.8456 30.9877 43.1597C29.9611 42.4737 29.161 41.4988 28.6885 40.3582C28.2161 39.2176 28.0925 37.9624 28.3333 36.7515C28.5742 35.5407 29.1687 34.4284 30.0417 33.5554C30.9147 32.6824 32.027 32.0879 33.2379 31.847C34.4488 31.6061 35.7039 31.7298 36.8445 32.2022C37.9852 32.6747 38.9601 33.4748 39.646 34.5013C40.3319 35.5279 40.698 36.7348 40.698 37.9694C40.698 39.6249 40.0403 41.2127 38.8697 42.3833C37.699 43.554 36.1113 44.2117 34.4557 44.2117Z" fill="#26292F"/>
<path d="M59.4254 44.2117C58.1908 44.2117 56.9839 43.8456 55.9574 43.1597C54.9308 42.4737 54.1307 41.4988 53.6583 40.3582C53.1858 39.2176 53.0622 37.9624 53.3031 36.7515C53.5439 35.5407 54.1384 34.4284 55.0114 33.5554C55.8844 32.6824 56.9967 32.0879 58.2076 31.847C59.4185 31.6061 60.6736 31.7298 61.8142 32.2022C62.9549 32.6747 63.9298 33.4748 64.6157 34.5013C65.3016 35.5279 65.6677 36.7348 65.6677 37.9694C65.6677 39.6249 65.0101 41.2127 63.8394 42.3833C62.6687 43.554 61.081 44.2117 59.4254 44.2117Z" fill="#26292F"/>
</svg>
