<svg width="100" height="100" viewBox="0 0 100 100" fill="none" xmlns="http://www.w3.org/2000/svg">
<rect x="19.5625" y="20.1875" width="64.969" height="64.969" fill="#9A4FC5"/>
<rect x="13.375" y="14" width="64.969" height="64.969" fill="#25E1DE"/>
<rect x="16.4688" y="17.0938" width="64.969" height="64.969" fill="#FBFDFE"/>
<line x1="75.25" y1="27.9688" x2="87.625" y2="27.9688" stroke="#9A4FC5" stroke-width="3"/>
<line x1="75.25" y1="27.9688" x2="87.625" y2="27.9688" stroke="#9A4FC5" stroke-width="3"/>
<line x1="69.062" y1="37.25" x2="78.3433" y2="37.25" stroke="#9A4FC5" stroke-width="3"/>
<line x1="69.062" y1="37.25" x2="78.3433" y2="37.25" stroke="#9A4FC5" stroke-width="3"/>
<line x1="81.438" y1="43.4377" x2="90.7193" y2="43.4377" stroke="#9A4FC5" stroke-width="3"/>
<line x1="81.438" y1="43.4377" x2="90.7193" y2="43.4377" stroke="#9A4FC5" stroke-width="3"/>
<line x1="81.438" y1="49.6252" x2="100.001" y2="49.6252" stroke="#9A4FC5" stroke-width="3"/>
<line x1="81.438" y1="49.6252" x2="100.001" y2="49.6252" stroke="#9A4FC5" stroke-width="3"/>
<line x1="72.1562" y1="68.1877" x2="87.625" y2="68.1877" stroke="#9A4FC5" stroke-width="3"/>
<line x1="72.1562" y1="68.1877" x2="87.625" y2="68.1877" stroke="#9A4FC5" stroke-width="3"/>
<line x1="62.8745" y1="74.3752" x2="75.2495" y2="74.3752" stroke="#9A4FC5" stroke-width="3"/>
<line x1="62.8745" y1="74.3752" x2="75.2495" y2="74.3752" stroke="#9A4FC5" stroke-width="3"/>
<line x1="38.125" y1="21.6875" x2="7.1874" y2="21.6875" stroke="#25E1DE" stroke-width="3"/>
<line x1="38.125" y1="21.6875" x2="7.1874" y2="21.6875" stroke="#25E1DE" stroke-width="3"/>
<line x1="19.5625" y1="46.4377" x2="4.0937" y2="46.4377" stroke="#25E1DE" stroke-width="3"/>
<line x1="19.5625" y1="46.4377" x2="4.0937" y2="46.4377" stroke="#25E1DE" stroke-width="3"/>
<line x1="19.5625" y1="40.25" x2="0.999941" y2="40.25" stroke="#25E1DE" stroke-width="3"/>
<line x1="19.5625" y1="40.25" x2="0.999941" y2="40.25" stroke="#25E1DE" stroke-width="3"/>
<line x1="22.6562" y1="71.1877" x2="7.18745" y2="71.1877" stroke="#25E1DE" stroke-width="3"/>
<line x1="22.6562" y1="71.1877" x2="7.18745" y2="71.1877" stroke="#25E1DE" stroke-width="3"/>
<path d="M59.7818 44.9375C58.558 44.9375 57.3617 44.5747 56.3442 43.8948C55.3266 43.2149 54.5336 42.2485 54.0652 41.1179C53.5969 39.9873 53.4744 38.7432 53.7131 37.5429C53.9519 36.3426 54.5412 35.2401 55.4065 34.3748C56.2719 33.5094 57.3744 32.9201 58.5746 32.6814C59.7749 32.4426 61.019 32.5652 62.1496 33.0335C63.2802 33.5018 64.2466 34.2949 64.9265 35.3124C65.6064 36.33 65.9693 37.5262 65.9693 38.75C65.9693 40.3911 65.3174 41.9649 64.157 43.1253C62.9966 44.2856 61.4228 44.9375 59.7818 44.9375Z" fill="#26292F"/>
<path d="M35.0313 44.9375C33.8075 44.9375 32.6112 44.5747 31.5937 43.8948C30.5761 43.2149 29.7831 42.2485 29.3147 41.1179C28.8464 39.9873 28.7239 38.7432 28.9626 37.5429C29.2014 36.3426 29.7907 35.2401 30.656 34.3748C31.5214 33.5094 32.6239 32.9201 33.8241 32.6814C35.0244 32.4426 36.2685 32.5652 37.3991 33.0335C38.5298 33.5018 39.4961 34.2949 40.176 35.3124C40.8559 36.33 41.2188 37.5262 41.2188 38.75C41.2188 40.3911 40.5669 41.9649 39.4065 43.1253C38.2461 44.2856 36.6723 44.9375 35.0313 44.9375Z" fill="#26292F"/>
<path d="M47.4063 69.6878C37.166 69.6878 28.8438 62.7578 28.8438 54.219C28.8438 53.3985 29.1697 52.6116 29.7499 52.0314C30.3301 51.4512 31.117 51.1252 31.9375 51.1252C32.758 51.1252 33.5449 51.4512 34.1251 52.0314C34.7053 52.6116 35.0313 53.3985 35.0313 54.219C35.0313 59.3237 40.5691 63.5003 47.4063 63.5003C54.2435 63.5003 59.7813 59.3237 59.7813 54.219C59.7813 53.3985 60.1073 52.6116 60.6875 52.0314C61.2677 51.4512 62.0546 51.1252 62.8751 51.1252C63.6956 51.1252 64.4825 51.4512 65.0627 52.0314C65.6429 52.6116 65.9689 53.3985 65.9689 54.219C65.9689 62.7578 57.6467 69.6878 47.4063 69.6878Z" fill="#26292F"/>
</svg>
