<svg width="100" height="100" viewBox="0 0 100 100" fill="none" xmlns="http://www.w3.org/2000/svg">
<rect x="18.75" y="28.0002" width="65.625" height="65.625" fill="#9A4FC5"/>
<rect x="12.5005" y="21.75" width="65.625" height="65.625" fill="#25E1DE"/>
<rect x="15.6255" y="24.875" width="65.625" height="65.625" fill="#FBFDFE"/>
<line x1="75" y1="35.875" x2="87.5" y2="35.875" stroke="#9A4FC5" stroke-width="3"/>
<line x1="75" y1="35.875" x2="87.5" y2="35.875" stroke="#9A4FC5" stroke-width="3"/>
<line x1="68.75" y1="45.2502" x2="78.125" y2="45.2502" stroke="#9A4FC5" stroke-width="3"/>
<line x1="68.75" y1="45.2502" x2="78.125" y2="45.2502" stroke="#9A4FC5" stroke-width="3"/>
<line x1="81.25" y1="51.5" x2="90.625" y2="51.5" stroke="#9A4FC5" stroke-width="3"/>
<line x1="81.25" y1="51.5" x2="90.625" y2="51.5" stroke="#9A4FC5" stroke-width="3"/>
<line x1="81.25" y1="57.75" x2="100" y2="57.75" stroke="#9A4FC5" stroke-width="3"/>
<line x1="81.25" y1="57.75" x2="100" y2="57.75" stroke="#9A4FC5" stroke-width="3"/>
<line x1="71.875" y1="76.5" x2="87.5" y2="76.5" stroke="#9A4FC5" stroke-width="3"/>
<line x1="71.875" y1="76.5" x2="87.5" y2="76.5" stroke="#9A4FC5" stroke-width="3"/>
<line x1="62.5" y1="82.75" x2="75" y2="82.75" stroke="#9A4FC5" stroke-width="3"/>
<line x1="62.5" y1="82.75" x2="75" y2="82.75" stroke="#9A4FC5" stroke-width="3"/>
<line x1="37.5" y1="29.5002" x2="6.25" y2="29.5002" stroke="#25E1DE" stroke-width="3"/>
<line x1="37.5" y1="29.5002" x2="6.25" y2="29.5002" stroke="#25E1DE" stroke-width="3"/>
<line x1="18.75" y1="54.5" x2="3.125" y2="54.5" stroke="#25E1DE" stroke-width="3"/>
<line x1="18.75" y1="54.5" x2="3.125" y2="54.5" stroke="#25E1DE" stroke-width="3"/>
<line x1="18.75" y1="48.2502" y2="48.2502" stroke="#25E1DE" stroke-width="3"/>
<line x1="18.75" y1="48.2502" y2="48.2502" stroke="#25E1DE" stroke-width="3"/>
<line x1="21.875" y1="79.5" x2="6.25" y2="79.5" stroke="#25E1DE" stroke-width="3"/>
<line x1="21.875" y1="79.5" x2="6.25" y2="79.5" stroke="#25E1DE" stroke-width="3"/>
<path d="M31.3122 28.1385H30.8122C29.5891 27.9619 28.421 27.5138 27.3936 26.8271C26.3662 26.1403 25.5056 25.2324 24.8747 24.1698C23.3854 21.1732 22.8405 17.7951 23.3122 14.4823C21.9119 15.8007 20.7917 17.3879 20.0185 19.1491C19.2454 20.9102 18.8351 22.809 18.8122 24.7322C18.8868 25.5611 18.6291 26.3855 18.0958 27.0243C17.5625 27.6631 16.7973 28.0639 15.9685 28.1385C15.1397 28.2131 14.3152 27.9554 13.6764 27.4221C13.0376 26.8888 12.6368 26.1236 12.5622 25.2948C11.4372 12.951 25.9372 3.98225 26.5622 3.60725C27.109 3.27306 27.7453 3.11506 28.3849 3.15465C29.0245 3.19425 29.6365 3.42953 30.1379 3.82861C30.6393 4.22769 31.0059 4.77127 31.188 5.38569C31.3701 6.00011 31.3589 6.65566 31.156 7.2635C29.781 11.2948 28.5935 18.201 30.2185 20.8885C30.38 21.1772 30.6097 21.422 30.8874 21.6018C31.1652 21.7815 31.4827 21.8906 31.8122 21.9198C32.6009 22.0309 33.3173 22.4391 33.8152 23.0607C34.313 23.6824 34.5547 24.4707 34.4909 25.2646C34.4271 26.0585 34.0625 26.7981 33.4717 27.3322C32.8809 27.8663 32.1085 28.1547 31.3122 28.1385Z" fill="#25E1DE"/>
<path d="M78.187 28.1386H77.8745C77.4633 28.0995 77.064 27.9794 76.6996 27.7851C76.3351 27.5907 76.0128 27.3261 75.7513 27.0064C75.4898 26.6868 75.2942 26.3185 75.1759 25.9228C75.0576 25.5271 75.0189 25.1118 75.062 24.7011C74.8908 20.9861 73.2895 17.4812 70.5933 14.9198C71.0948 18.4102 70.4009 21.9675 68.6245 25.0136C67.9263 26.0147 66.9886 26.8251 65.8969 27.3709C64.8053 27.9168 63.5943 28.1807 62.3745 28.1386C61.5457 28.1386 60.7509 27.8093 60.1648 27.2233C59.5787 26.6372 59.2495 25.8424 59.2495 25.0136C59.2495 24.1848 59.5787 23.3899 60.1648 22.8039C60.7509 22.2178 61.5457 21.8886 62.3745 21.8886C62.5796 21.9276 62.7915 21.9072 62.9853 21.8297C63.1791 21.7521 63.3467 21.6208 63.4683 21.4511C65.1558 19.1698 63.937 11.6073 62.562 7.20108C62.3263 6.5584 62.3081 5.85609 62.5103 5.20208C62.7125 4.54807 63.1238 3.97854 63.6811 3.58099C64.2383 3.18344 64.9107 2.97988 65.5949 3.00157C66.2791 3.02327 66.9373 3.26902 67.4683 3.70108C68.9995 4.76358 82.3745 14.4511 81.312 25.3261C81.2343 26.0996 80.871 26.8164 80.2932 27.3364C79.7153 27.8565 78.9644 28.1425 78.187 28.1386Z" fill="#9A4FC5"/>
<path d="M46.9362 75.0141C41.9469 75.2925 36.993 74.0268 32.7487 71.3891C32.0525 70.9374 31.5643 70.2277 31.3914 69.416C31.2185 68.6043 31.3752 67.7572 31.8269 67.061C32.2786 66.3648 32.9883 65.8766 33.8 65.7037C34.6117 65.5308 35.4588 65.6874 36.155 66.1391C39.3835 68.1256 43.1559 69.0441 46.9362 68.7641C50.727 69.0508 54.5114 68.1321 57.7487 66.1391C58.4449 65.6874 59.292 65.5308 60.1037 65.7037C60.9154 65.8766 61.6252 66.3648 62.0769 67.061C62.5286 67.7572 62.6852 68.6043 62.5123 69.416C62.3394 70.2277 61.8512 70.9374 61.155 71.3891C56.9019 74.033 51.9361 75.299 46.9362 75.0141Z" fill="#26292F"/>
<path d="M37.5615 50.0139C37.1502 50.0163 36.7425 49.9374 36.3618 49.7819C35.981 49.6264 35.6347 49.3973 35.3427 49.1076L29.0927 42.8576C28.5808 42.2598 28.3133 41.4908 28.3436 40.7043C28.374 39.9179 28.7001 39.1718 29.2566 38.6152C29.8131 38.0587 30.5592 37.7327 31.3457 37.7023C32.1322 37.6719 32.9012 37.9394 33.499 38.4514L39.749 44.7014C40.1772 45.1382 40.4679 45.691 40.5849 46.2914C40.7019 46.8919 40.6401 47.5134 40.4072 48.079C40.1743 48.6447 39.7805 49.1295 39.2747 49.4734C38.7688 49.8174 38.1731 50.0053 37.5615 50.0139Z" fill="#26292F"/>
<path d="M56.3116 50.0139C55.6909 50.0175 55.0832 49.8362 54.566 49.493C54.0487 49.1499 53.6454 48.6605 53.4073 48.0873C53.1693 47.514 53.1074 46.8828 53.2295 46.2743C53.3516 45.6657 53.6522 45.1072 54.0929 44.6701L60.3429 38.4201C60.9407 37.9082 61.7097 37.6407 62.4962 37.671C63.2827 37.7014 64.0287 38.0274 64.5853 38.584C65.1418 39.1405 65.4679 39.8866 65.4982 40.6731C65.5286 41.4596 65.2611 42.2286 64.7491 42.8264L58.4991 49.0764C57.9222 49.6652 57.1359 50.0021 56.3116 50.0139Z" fill="#26292F"/>
<path d="M34.4375 56.2639C33.2014 56.2639 31.993 55.8974 30.9652 55.2106C29.9374 54.5238 29.1363 53.5477 28.6633 52.4057C28.1902 51.2637 28.0664 50.007 28.3076 48.7946C28.5488 47.5822 29.144 46.4686 30.0181 45.5945C30.8922 44.7204 32.0058 44.1252 33.2182 43.884C34.4306 43.6429 35.6872 43.7666 36.8293 44.2397C37.9713 44.7127 38.9474 45.5138 39.6342 46.5416C40.3209 47.5694 40.6875 48.7778 40.6875 50.0139C40.6875 51.6715 40.029 53.2612 38.8569 54.4333C37.6848 55.6054 36.0951 56.2639 34.4375 56.2639Z" fill="#26292F"/>
<path d="M59.437 56.2639C58.2009 56.2639 56.9925 55.8974 55.9647 55.2106C54.9369 54.5238 54.1358 53.5477 53.6628 52.4057C53.1897 51.2637 53.0659 50.007 53.3071 48.7946C53.5483 47.5822 54.1435 46.4686 55.0176 45.5945C55.8917 44.7204 57.0053 44.1252 58.2177 43.884C59.4301 43.6429 60.6868 43.7666 61.8288 44.2397C62.9708 44.7127 63.9469 45.5138 64.6337 46.5416C65.3205 47.5694 65.687 48.7778 65.687 50.0139C65.687 51.6715 65.0285 53.2612 63.8564 54.4333C62.6843 55.6054 61.0946 56.2639 59.437 56.2639Z" fill="#26292F"/>
</svg>
