<svg width="100" height="100" viewBox="0 0 100 100" fill="none" xmlns="http://www.w3.org/2000/svg">
<rect x="19.5625" y="20.375" width="64.9688" height="64.9688" fill="#9A4FC5"/>
<rect x="13.375" y="14.1875" width="64.9688" height="64.9688" fill="#25E1DE"/>
<rect x="16.4688" y="17.2812" width="64.9688" height="64.9688" fill="#FBFDFE"/>
<line x1="75.25" y1="28.156" x2="87.625" y2="28.156" stroke="#9A4FC5" stroke-width="3"/>
<line x1="75.25" y1="28.156" x2="87.625" y2="28.156" stroke="#9A4FC5" stroke-width="3"/>
<line x1="69.0625" y1="37.4375" x2="78.3438" y2="37.4375" stroke="#9A4FC5" stroke-width="3"/>
<line x1="69.0625" y1="37.4375" x2="78.3438" y2="37.4375" stroke="#9A4FC5" stroke-width="3"/>
<line x1="81.4375" y1="43.6248" x2="90.7188" y2="43.6248" stroke="#9A4FC5" stroke-width="3"/>
<line x1="81.4375" y1="43.6248" x2="90.7188" y2="43.6248" stroke="#9A4FC5" stroke-width="3"/>
<line x1="81.4375" y1="49.8125" x2="100" y2="49.8125" stroke="#9A4FC5" stroke-width="3"/>
<line x1="81.4375" y1="49.8125" x2="100" y2="49.8125" stroke="#9A4FC5" stroke-width="3"/>
<line x1="72.1562" y1="68.375" x2="87.625" y2="68.375" stroke="#9A4FC5" stroke-width="3"/>
<line x1="72.1562" y1="68.375" x2="87.625" y2="68.375" stroke="#9A4FC5" stroke-width="3"/>
<line x1="62.875" y1="74.5625" x2="75.25" y2="74.5625" stroke="#9A4FC5" stroke-width="3"/>
<line x1="62.875" y1="74.5625" x2="75.25" y2="74.5625" stroke="#9A4FC5" stroke-width="3"/>
<line x1="38.125" y1="21.875" x2="7.1875" y2="21.875" stroke="#25E1DE" stroke-width="3"/>
<line x1="38.125" y1="21.875" x2="7.1875" y2="21.875" stroke="#25E1DE" stroke-width="3"/>
<line x1="19.5625" y1="46.6248" x2="4.09375" y2="46.6248" stroke="#25E1DE" stroke-width="3"/>
<line x1="19.5625" y1="46.6248" x2="4.09375" y2="46.6248" stroke="#25E1DE" stroke-width="3"/>
<line x1="19.5625" y1="40.4375" x2="1" y2="40.4375" stroke="#25E1DE" stroke-width="3"/>
<line x1="19.5625" y1="40.4375" x2="1" y2="40.4375" stroke="#25E1DE" stroke-width="3"/>
<line x1="22.6562" y1="71.375" x2="7.1875" y2="71.375" stroke="#25E1DE" stroke-width="3"/>
<line x1="22.6562" y1="71.375" x2="7.1875" y2="71.375" stroke="#25E1DE" stroke-width="3"/>
<path d="M80.509 39.0973C79.6974 39.0939 78.9196 38.7717 78.3434 38.2001L69.0621 28.9188C64.9474 24.6804 62.3796 17.5648 65.5662 12.6767C66.4346 11.3036 67.6227 10.1613 69.029 9.34776C70.4352 8.53418 72.0177 8.07348 73.6409 8.0051C76.1092 7.92967 78.5303 8.69307 80.509 10.1707C82.4877 8.69307 84.9087 7.92967 87.3771 8.0051C89.0028 8.06518 90.5897 8.51883 92.0015 9.32711C93.4133 10.1354 94.6079 11.2742 95.4827 12.6457C98.5765 17.5648 96.0706 24.6495 92.0177 28.857L82.7365 38.1382C82.4489 38.4399 82.1034 38.6803 81.7206 38.8451C81.3379 39.0099 80.9257 39.0957 80.509 39.0973ZM74.0431 14.1926H73.8884C73.2613 14.2298 72.6525 14.4181 72.1138 14.7413C71.5751 15.0645 71.1226 15.5131 70.7946 16.0488C69.5262 17.9979 71.1968 22.2364 73.5171 24.5876L80.509 31.6413L87.6246 24.5257C89.914 22.1435 91.5846 17.9979 90.3162 16.0179C89.9882 15.4821 89.5357 15.0335 88.997 14.7103C88.4583 14.3871 87.8495 14.1989 87.2224 14.1617C86.4068 14.1602 85.6025 14.3531 84.8762 14.7243C84.1499 15.0956 83.5225 15.6344 83.0459 16.2963C82.7571 16.6747 82.385 16.9814 81.9584 17.1925C81.5318 17.4036 81.0623 17.5134 80.5863 17.5134C80.1104 17.5134 79.6408 17.4036 79.2142 17.1925C78.7877 16.9814 78.4155 16.6747 78.1268 16.2963C77.6545 15.6545 77.0401 15.1306 76.3316 14.7656C75.6232 14.4007 74.8399 14.2046 74.0431 14.1926Z" fill="white"/>
<path d="M80.508 14.4402C81.1901 13.4257 82.1112 12.5944 83.1902 12.0197C84.2692 11.4449 85.473 11.1443 86.6955 11.1443C87.918 11.1443 89.1218 11.4449 90.2008 12.0197C91.2798 12.5944 92.2009 13.4257 92.883 14.4402C95.2652 18.0908 92.6974 23.7214 89.7892 26.8152L80.508 36.0964L71.2267 26.8152C68.3186 23.7214 65.7508 18.0908 68.133 14.4402C68.8151 13.4257 69.7362 12.5944 70.8152 12.0197C71.8942 11.4449 73.098 11.1443 74.3205 11.1443C75.543 11.1443 76.7468 11.4449 77.8258 12.0197C78.9048 12.5944 79.8259 13.4257 80.508 14.4402Z" fill="#D894FF"/>
<path d="M35.0312 42.0366C33.3902 42.0366 31.8164 41.3847 30.656 40.2243C29.4956 39.064 28.8438 37.4901 28.8438 35.8491C28.8438 35.0286 29.1697 34.2417 29.7499 33.6615C30.3301 33.0813 31.117 32.7554 31.9375 32.7554C32.758 32.7554 33.5449 33.0813 34.1251 33.6615C34.7053 34.2417 35.0312 35.0286 35.0312 35.8491C35.0312 35.0286 35.3572 34.2417 35.9374 33.6615C36.5176 33.0813 37.3045 32.7554 38.125 32.7554C38.9455 32.7554 39.7324 33.0813 40.3126 33.6615C40.8928 34.2417 41.2188 35.0286 41.2188 35.8491C41.2188 37.4901 40.5669 39.064 39.4065 40.2243C38.2461 41.3847 36.6723 42.0366 35.0312 42.0366Z" fill="#26292F"/>
<path d="M59.7812 42.0366C58.1402 42.0366 56.5664 41.3847 55.406 40.2243C54.2456 39.064 53.5938 37.4901 53.5938 35.8491C53.5938 35.0286 53.9197 34.2417 54.4999 33.6615C55.0801 33.0813 55.867 32.7554 56.6875 32.7554C57.508 32.7554 58.2949 33.0813 58.8751 33.6615C59.4553 34.2417 59.7812 35.0286 59.7812 35.8491C59.7812 35.0286 60.1072 34.2417 60.6874 33.6615C61.2676 33.0813 62.0545 32.7554 62.875 32.7554C63.6955 32.7554 64.4824 33.0813 65.0626 33.6615C65.6428 34.2417 65.9688 35.0286 65.9688 35.8491C65.9688 37.4901 65.3169 39.064 64.1565 40.2243C62.9961 41.3847 61.4223 42.0366 59.7812 42.0366Z" fill="#26292F"/>
<path d="M62.875 54.4116C62.875 61.2488 55.945 66.7866 47.4062 66.7866C38.8675 66.7866 31.9375 61.2488 31.9375 54.4116V51.3179H62.875V54.4116Z" fill="white"/>
<path d="M47.4062 69.8804C37.1659 69.8804 28.8438 62.9504 28.8438 54.4116V51.3179C28.8438 50.4974 29.1697 49.7105 29.7499 49.1303C30.3301 48.5501 31.117 48.2241 31.9375 48.2241H62.875C63.6955 48.2241 64.4824 48.5501 65.0626 49.1303C65.6428 49.7105 65.9688 50.4974 65.9688 51.3179V54.4116C65.9688 62.9504 57.6466 69.8804 47.4062 69.8804ZM35.0312 54.4116C35.0312 59.5163 40.5691 63.6929 47.4062 63.6929C54.2434 63.6929 59.7812 59.5163 59.7812 54.4116H35.0312Z" fill="#26292F"/>
</svg>
