<svg width="100" height="100" viewBox="0 0 100 100" fill="none" xmlns="http://www.w3.org/2000/svg">
<rect x="18.75" y="20.2502" width="65.6252" height="65.6252" fill="#9A4FC5"/>
<rect x="12.5005" y="14" width="65.6252" height="65.6252" fill="#25E1DE"/>
<rect x="15.625" y="17.1252" width="65.6252" height="65.6252" fill="#FBFDFE"/>
<line x1="74.9995" y1="28.125" x2="87.4995" y2="28.125" stroke="#9A4FC5" stroke-width="3"/>
<line x1="74.9995" y1="28.125" x2="87.4995" y2="28.125" stroke="#9A4FC5" stroke-width="3"/>
<line x1="68.75" y1="37.5002" x2="78.125" y2="37.5002" stroke="#9A4FC5" stroke-width="3"/>
<line x1="68.75" y1="37.5002" x2="78.125" y2="37.5002" stroke="#9A4FC5" stroke-width="3"/>
<line x1="81.25" y1="43.7502" x2="90.625" y2="43.7502" stroke="#9A4FC5" stroke-width="3"/>
<line x1="81.25" y1="43.7502" x2="90.625" y2="43.7502" stroke="#9A4FC5" stroke-width="3"/>
<line x1="81.25" y1="50.0002" x2="100" y2="50.0002" stroke="#9A4FC5" stroke-width="3"/>
<line x1="81.25" y1="50.0002" x2="100" y2="50.0002" stroke="#9A4FC5" stroke-width="3"/>
<line x1="71.8745" y1="68.7505" x2="87.4995" y2="68.7505" stroke="#9A4FC5" stroke-width="3"/>
<line x1="71.8745" y1="68.7505" x2="87.4995" y2="68.7505" stroke="#9A4FC5" stroke-width="3"/>
<line x1="62.5" y1="75.0002" x2="75" y2="75.0002" stroke="#9A4FC5" stroke-width="3"/>
<line x1="62.5" y1="75.0002" x2="75" y2="75.0002" stroke="#9A4FC5" stroke-width="3"/>
<line x1="37.5" y1="21.75" x2="6.24993" y2="21.75" stroke="#25E1DE" stroke-width="3"/>
<line x1="37.5" y1="21.75" x2="6.24993" y2="21.75" stroke="#25E1DE" stroke-width="3"/>
<line x1="18.7505" y1="46.75" x2="3.12545" y2="46.75" stroke="#25E1DE" stroke-width="3"/>
<line x1="18.7505" y1="46.75" x2="3.12545" y2="46.75" stroke="#25E1DE" stroke-width="3"/>
<line x1="18.7505" y1="40.5" x2="0.000442505" y2="40.5" stroke="#25E1DE" stroke-width="3"/>
<line x1="18.7505" y1="40.5" x2="0.000442505" y2="40.5" stroke="#25E1DE" stroke-width="3"/>
<line x1="21.8755" y1="71.7502" x2="6.25045" y2="71.7502" stroke="#25E1DE" stroke-width="3"/>
<line x1="21.8755" y1="71.7502" x2="6.25045" y2="71.7502" stroke="#25E1DE" stroke-width="3"/>
<path d="M60.2014 59.3123C59.7846 58.6194 59.1154 58.1152 58.3345 57.9054C57.5537 57.6956 56.7219 57.7966 56.0139 58.1873C53.7642 59.8733 51.0433 60.813 48.2327 60.8748C45.422 60.813 42.7011 59.8733 40.4514 58.1873C39.7442 57.7843 38.9078 57.6731 38.1199 57.8774C37.332 58.0816 36.6549 58.5852 36.2326 59.281C36.0198 59.6371 35.88 60.032 35.8214 60.4427C35.7628 60.8534 35.7865 61.2717 35.8912 61.6731C35.996 62.0745 36.1796 62.4511 36.4313 62.7808C36.6831 63.1105 36.998 63.3868 37.3576 63.5935C40.5452 65.8828 44.3707 67.1142 48.2952 67.1142C52.2196 67.1142 56.0451 65.8828 59.2327 63.5935C59.9245 63.1505 60.414 62.4529 60.5953 61.6516C60.7766 60.8504 60.6351 60.01 60.2014 59.3123Z" fill="#26292F"/>
<path d="M25.1641 57.75C23.9279 57.75 22.7196 57.3835 21.6918 56.6967C20.6639 56.01 19.8629 55.0338 19.3898 53.8918C18.9168 52.7498 18.793 51.4931 19.0342 50.2807C19.2753 49.0683 19.8706 47.9547 20.7447 47.0806C21.6187 46.2065 22.7324 45.6113 23.9448 45.3701C25.1571 45.1289 26.4138 45.2527 27.5559 45.7258C28.6979 46.1988 29.674 46.9999 30.3608 48.0277C31.0475 49.0555 31.4141 50.2639 31.4141 51.5C31.4141 53.1576 30.7556 54.7473 29.5835 55.9194C28.4114 57.0915 26.8217 57.75 25.1641 57.75Z" fill="#D894FF"/>
<path d="M71.875 57.75C70.6389 57.75 69.4305 57.3835 68.4027 56.6967C67.3749 56.01 66.5738 55.0338 66.1008 53.8918C65.6277 52.7498 65.5039 51.4931 65.7451 50.2807C65.9863 49.0683 66.5815 47.9547 67.4556 47.0806C68.3297 46.2065 69.4433 45.6113 70.6557 45.3701C71.8681 45.1289 73.1248 45.2527 74.2668 45.7258C75.4088 46.1988 76.385 46.9999 77.0717 48.0277C77.7585 49.0555 78.125 50.2639 78.125 51.5C78.125 53.1576 77.4665 54.7473 76.2944 55.9194C75.1223 57.0915 73.5326 57.75 71.875 57.75Z" fill="#D894FF"/>
<path d="M41.9825 39C41.2064 38.0833 40.2523 37.3337 39.1779 36.7965C38.1036 36.2594 36.9315 35.9459 35.7324 35.875C34.5334 35.9459 33.3612 36.2594 32.2869 36.7965C31.2126 37.3337 30.2585 38.0833 29.4824 39" stroke="#26292F" stroke-width="5" stroke-linecap="round" stroke-linejoin="round"/>
<path d="M66.9825 39C66.2064 38.0833 65.2523 37.3337 64.1779 36.7965C63.1036 36.2594 61.9315 35.9459 60.7324 35.875C59.5334 35.9459 58.3612 36.2594 57.2869 36.7965C56.2126 37.3337 55.2585 38.0833 54.4824 39" stroke="#26292F" stroke-width="5" stroke-linecap="round" stroke-linejoin="round"/>
</svg>
