<svg width="100" height="100" viewBox="0 0 100 100" fill="none" xmlns="http://www.w3.org/2000/svg">
<rect x="18.522" y="20.1738" width="64.8261" height="64.8261" fill="#9A4FC5"/>
<rect x="12.3481" y="14" width="64.8261" height="64.8261" fill="#25E1DE"/>
<rect x="15.4351" y="17.0869" width="64.8261" height="64.8261" fill="#FBFDFE"/>
<line x1="74.0869" y1="27.9348" x2="86.4347" y2="27.9348" stroke="#9A4FC5" stroke-width="3"/>
<line x1="74.0869" y1="27.9348" x2="86.4347" y2="27.9348" stroke="#9A4FC5" stroke-width="3"/>
<line x1="67.9131" y1="37.1956" x2="77.174" y2="37.1956" stroke="#9A4FC5" stroke-width="3"/>
<line x1="67.9131" y1="37.1956" x2="77.174" y2="37.1956" stroke="#9A4FC5" stroke-width="3"/>
<line x1="80.2612" y1="43.3696" x2="89.5221" y2="43.3696" stroke="#9A4FC5" stroke-width="3"/>
<line x1="80.2612" y1="43.3696" x2="89.5221" y2="43.3696" stroke="#9A4FC5" stroke-width="3"/>
<line x1="80.2612" y1="49.5435" x2="98.783" y2="49.5435" stroke="#9A4FC5" stroke-width="3"/>
<line x1="80.2612" y1="49.5435" x2="98.783" y2="49.5435" stroke="#9A4FC5" stroke-width="3"/>
<line x1="71" y1="68.0652" x2="86.4348" y2="68.0652" stroke="#9A4FC5" stroke-width="3"/>
<line x1="71" y1="68.0652" x2="86.4348" y2="68.0652" stroke="#9A4FC5" stroke-width="3"/>
<line x1="61.7393" y1="74.239" x2="74.0871" y2="74.239" stroke="#9A4FC5" stroke-width="3"/>
<line x1="61.7393" y1="74.239" x2="74.0871" y2="74.239" stroke="#9A4FC5" stroke-width="3"/>
<line x1="37.0435" y1="21.6738" x2="6.17389" y2="21.6738" stroke="#25E1DE" stroke-width="3"/>
<line x1="37.0435" y1="21.6738" x2="6.17389" y2="21.6738" stroke="#25E1DE" stroke-width="3"/>
<line x1="18.522" y1="46.3696" x2="3.08719" y2="46.3696" stroke="#25E1DE" stroke-width="3"/>
<line x1="18.522" y1="46.3696" x2="3.08719" y2="46.3696" stroke="#25E1DE" stroke-width="3"/>
<line x1="18.522" y1="40.1956" x2="0.000232697" y2="40.1956" stroke="#25E1DE" stroke-width="3"/>
<line x1="18.522" y1="40.1956" x2="0.000232697" y2="40.1956" stroke="#25E1DE" stroke-width="3"/>
<line x1="21.6089" y1="71.0652" x2="6.1741" y2="71.0652" stroke="#25E1DE" stroke-width="3"/>
<line x1="21.6089" y1="71.0652" x2="6.1741" y2="71.0652" stroke="#25E1DE" stroke-width="3"/>
<path d="M61.7743 54.5335C61.7743 61.3557 54.8596 66.8813 46.3396 66.8813C37.8196 66.8813 30.9048 61.3557 30.9048 54.5335V51.4465H61.7743V54.5335Z" fill="#26292F"/>
<path d="M46.3396 69.9683C36.1218 69.9683 27.8179 63.0535 27.8179 54.5335V51.4466C27.8179 50.6279 28.1431 49.8427 28.722 49.2638C29.3009 48.6849 30.0861 48.3596 30.9048 48.3596H61.7744C62.5931 48.3596 63.3783 48.6849 63.9572 49.2638C64.5361 49.8427 64.8614 50.6279 64.8614 51.4466V54.5335C64.8614 63.0535 56.5574 69.9683 46.3396 69.9683ZM33.9918 54.5335C33.9918 59.627 39.5174 63.7944 46.3396 63.7944C53.1618 63.7944 58.6874 59.627 58.6874 54.5335H33.9918Z" fill="#26292F"/>
<path d="M12.2841 60.7091C11.2347 60.7438 10.1893 60.5626 9.2128 60.1769C8.23626 59.7911 7.34931 59.209 6.60687 58.4666C5.86444 57.7241 5.28232 56.8372 4.89658 55.8606C4.51083 54.8841 4.32967 53.8388 4.36431 52.7894C4.28419 51.8284 4.39745 50.861 4.6974 49.9445C4.99735 49.028 5.4779 48.1809 6.11068 47.4532C6.74347 46.7255 7.51565 46.132 8.38163 45.7077C9.24762 45.2834 10.1898 45.0369 11.1527 44.9828C14.9994 44.9828 22.4666 44.8696 22.4666 44.8696C22.8299 44.8698 23.1878 44.9574 23.51 45.1251C23.8323 45.2927 24.1095 45.5355 24.3181 45.8329C24.5267 46.1303 24.6607 46.4736 24.7086 46.8337C24.7566 47.1938 24.7171 47.5601 24.5936 47.9018C24.1184 49.2142 19.7286 60.7091 12.2841 60.7091ZM22.1126 47.4532H11.1527C10.4272 47.6065 8.15451 48.4892 7.73354 49.0996C7.31257 49.7101 6.67516 50.481 6.60214 51.3624C6.56443 51.8177 6.60687 52.7894 6.60214 53.6252C6.75938 54.0541 7.41051 55.565 7.73354 55.888C8.05656 56.211 9.5674 57.9936 9.99632 58.1508C10.4252 58.308 12.9352 58.1885 13.3905 58.1508C15.8796 58.1508 20.4834 50.6664 22.1126 47.4532Z" fill="#25E1DE"/>
<path d="M22.4671 47.1321C22.4671 47.1321 15.0225 47.2452 11.1531 47.2452C10.4878 47.3013 9.84054 47.4907 9.24989 47.8021C8.65924 48.1134 8.13726 48.5405 7.71503 49.0577C7.29279 49.5749 6.97892 50.1718 6.7921 50.8129C6.60528 51.4539 6.54932 52.1259 6.62755 52.789C6.58852 53.5422 6.70811 54.2952 6.97859 54.9992C7.24907 55.7032 7.6644 56.3426 8.19769 56.8759C8.73098 57.4092 9.37034 57.8245 10.0744 58.095C10.7784 58.3655 11.5313 58.4851 12.2845 58.446C18.3714 58.446 22.4671 47.1321 22.4671 47.1321Z" fill="#ABFFFF"/>
<path d="M80.0255 60.3007C81.0469 60.3344 82.0644 60.1579 83.0149 59.7821C83.9654 59.4063 84.8286 58.8392 85.5513 58.1159C86.2739 57.3927 86.8405 56.5286 87.2159 55.5772C87.5914 54.6259 87.7677 53.6075 87.734 52.5852C87.812 51.6489 87.7018 50.7065 87.4098 49.8137C87.1179 48.9208 86.6501 48.0955 86.0342 47.3866C85.4183 46.6776 84.6667 46.0994 83.8239 45.6861C82.981 45.2727 82.0639 45.0326 81.1267 44.9799C77.3826 44.9799 70.1146 44.8696 70.1146 44.8696C69.7611 44.8698 69.4127 44.9551 69.099 45.1185C68.7854 45.2818 68.5156 45.5184 68.3125 45.8081C68.1095 46.0978 67.9791 46.4322 67.9324 46.783C67.8857 47.1338 67.9241 47.4907 68.0444 47.8236C68.5069 49.1021 72.7796 60.3007 80.0255 60.3007ZM70.4592 47.3866H81.1267C81.8329 47.5359 84.0449 48.3959 84.4547 48.9906C84.8644 49.5852 85.4848 50.3363 85.5559 51.195C85.5926 51.6385 85.5513 52.5852 85.5559 53.3994C85.4028 53.8173 84.7691 55.2892 84.4547 55.6039C84.1403 55.9186 82.6697 57.6551 82.2522 57.8083C81.8348 57.9615 79.3917 57.845 78.9486 57.8083C76.5259 57.8083 72.0449 50.5169 70.4592 47.3866Z" fill="#25E1DE"/>
<path d="M70.1426 47.3625C70.1426 47.3625 77.3971 47.4728 81.1677 47.4728C81.816 47.5275 82.4467 47.712 83.0223 48.0154C83.5979 48.3189 84.1065 48.735 84.518 49.239C84.9294 49.743 85.2353 50.3247 85.4174 50.9494C85.5994 51.574 85.6539 52.2289 85.5777 52.8751C85.6157 53.609 85.4992 54.3428 85.2356 55.0288C84.972 55.7149 84.5673 56.3379 84.0476 56.8576C83.528 57.3773 82.9049 57.782 82.2189 58.0456C81.5329 58.3091 80.7991 58.4257 80.0652 58.3876C74.1337 58.3876 70.1426 47.3625 70.1426 47.3625Z" fill="#ABFFFF"/>
<path d="M30.9048 39.0984C31.08 38.0353 31.6601 37.0814 32.5234 36.4368C33.3867 35.7922 34.4662 35.507 35.5352 35.641C36.6043 35.507 37.6837 35.7922 38.547 36.4368C39.4104 37.0814 39.9905 38.0353 40.1657 39.0984" fill="#26292F"/>
<path d="M30.9048 39.0984C31.08 38.0353 31.6601 37.0814 32.5234 36.4368C33.3867 35.7922 34.4662 35.507 35.5352 35.641C36.6043 35.507 37.6837 35.7922 38.547 36.4368C39.4104 37.0814 39.9905 38.0353 40.1657 39.0984" stroke="#26292F" stroke-width="5" stroke-linecap="round" stroke-linejoin="round"/>
<path d="M52.5132 39.0984C52.6884 38.0353 53.2685 37.0814 54.1318 36.4368C54.9951 35.7922 56.0746 35.507 57.1436 35.641C58.2127 35.507 59.2921 35.7922 60.1554 36.4368C61.0188 37.0814 61.5989 38.0353 61.7741 39.0984" fill="#26292F"/>
<path d="M52.5132 39.0984C52.6884 38.0353 53.2685 37.0814 54.1318 36.4368C54.9951 35.7922 56.0746 35.507 57.1436 35.641C58.2127 35.507 59.2921 35.7922 60.1554 36.4368C61.0188 37.0814 61.5989 38.0353 61.7741 39.0984" stroke="#26292F" stroke-width="5" stroke-linecap="round" stroke-linejoin="round"/>
</svg>
