<svg width="100" height="100" viewBox="0 0 100 100" fill="none" xmlns="http://www.w3.org/2000/svg">
<rect x="21" y="20" width="63" height="63" fill="#9A4FC5"/>
<rect x="15" y="14" width="63" height="63" fill="#25E1DE"/>
<rect x="18" y="17" width="63" height="63" fill="#FBFDFE"/>
<line x1="75" y1="27.5" x2="87" y2="27.5" stroke="#9A4FC5" stroke-width="3"/>
<line x1="75" y1="27.5" x2="87" y2="27.5" stroke="#9A4FC5" stroke-width="3"/>
<line x1="69" y1="36.5" x2="78" y2="36.5" stroke="#9A4FC5" stroke-width="3"/>
<line x1="69" y1="36.5" x2="78" y2="36.5" stroke="#9A4FC5" stroke-width="3"/>
<line x1="81.0005" y1="42.5" x2="90.0005" y2="42.5" stroke="#9A4FC5" stroke-width="3"/>
<line x1="81.0005" y1="42.5" x2="90.0005" y2="42.5" stroke="#9A4FC5" stroke-width="3"/>
<line x1="81.0005" y1="48.5" x2="99.0005" y2="48.5" stroke="#9A4FC5" stroke-width="3"/>
<line x1="81.0005" y1="48.5" x2="99.0005" y2="48.5" stroke="#9A4FC5" stroke-width="3"/>
<line x1="72" y1="66.5" x2="87" y2="66.5" stroke="#9A4FC5" stroke-width="3"/>
<line x1="72" y1="66.5" x2="87" y2="66.5" stroke="#9A4FC5" stroke-width="3"/>
<line x1="63" y1="72.5" x2="75" y2="72.5" stroke="#9A4FC5" stroke-width="3"/>
<line x1="63" y1="72.5" x2="75" y2="72.5" stroke="#9A4FC5" stroke-width="3"/>
<line x1="39" y1="21.5" x2="8.99999" y2="21.5" stroke="#25E1DE" stroke-width="3"/>
<line x1="39" y1="21.5" x2="8.99999" y2="21.5" stroke="#25E1DE" stroke-width="3"/>
<line x1="21" y1="45.5" x2="5.99999" y2="45.5" stroke="#25E1DE" stroke-width="3"/>
<line x1="21" y1="45.5" x2="5.99999" y2="45.5" stroke="#25E1DE" stroke-width="3"/>
<line x1="21" y1="39.5" x2="2.99999" y2="39.5" stroke="#25E1DE" stroke-width="3"/>
<line x1="21" y1="39.5" x2="2.99999" y2="39.5" stroke="#25E1DE" stroke-width="3"/>
<line x1="24" y1="69.5" x2="8.99999" y2="69.5" stroke="#25E1DE" stroke-width="3"/>
<line x1="24" y1="69.5" x2="8.99999" y2="69.5" stroke="#25E1DE" stroke-width="3"/>
<path d="M3 51.5L6 45.5H12L13.5 53L18 57.5L19.5 65V74L16.5 78.5L4.5 77L3 72.5V51.5Z" fill="white" stroke="white"/>
<path d="M60.0176 41C58.8309 41 57.6709 40.6481 56.6842 39.9888C55.6975 39.3295 54.9284 38.3925 54.4743 37.2961C54.0202 36.1997 53.9014 34.9934 54.1329 33.8295C54.3644 32.6656 54.9358 31.5965 55.7749 30.7574C56.6141 29.9182 57.6832 29.3468 58.847 29.1153C60.0109 28.8838 61.2173 29.0026 62.3137 29.4567C63.41 29.9109 64.3471 30.6799 65.0064 31.6666C65.6657 32.6533 66.0176 33.8133 66.0176 35C66.0176 36.5913 65.3854 38.1174 64.2602 39.2426C63.135 40.3679 61.6089 41 60.0176 41Z" fill="#26292F"/>
<path d="M36.0176 41C34.8309 41 33.6709 40.6481 32.6842 39.9888C31.6975 39.3295 30.9284 38.3925 30.4743 37.2961C30.0202 36.1997 29.9014 34.9934 30.1329 33.8295C30.3644 32.6656 30.9358 31.5965 31.7749 30.7574C32.6141 29.9182 33.6832 29.3468 34.847 29.1153C36.0109 28.8838 37.2173 29.0026 38.3137 29.4567C39.41 29.9109 40.3471 30.6799 41.0064 31.6666C41.6657 32.6533 42.0176 33.8133 42.0176 35C42.0176 36.5913 41.3854 38.1174 40.2602 39.2426C39.135 40.3679 37.6089 41 36.0176 41Z" fill="#26292F"/>
<path d="M63.0176 53C63.0176 59.63 56.2976 65 48.0176 65C39.7376 65 33.0176 59.63 33.0176 53V50H63.0176V53Z" fill="#26292F"/>
<path d="M48.0176 68C38.0876 68 30.0176 61.28 30.0176 53V50C30.0176 49.2044 30.3336 48.4413 30.8963 47.8787C31.4589 47.3161 32.2219 47 33.0176 47H63.0176C63.8132 47 64.5763 47.3161 65.1389 47.8787C65.7015 48.4413 66.0176 49.2044 66.0176 50V53C66.0176 61.28 57.9476 68 48.0176 68ZM36.0176 53C36.0176 57.95 41.3876 62 48.0176 62C54.6476 62 60.0176 57.95 60.0176 53H36.0176Z" fill="#26292F"/>
<path d="M24.0166 63.5C24.017 61.771 23.42 60.095 22.3266 58.7557C21.2332 57.4163 19.7107 56.4958 18.0166 56.15V50C18.0166 47.6131 17.0684 45.3239 15.3806 43.636C13.6928 41.9482 11.4036 41 9.01662 41C6.62967 41 4.34049 41.9482 2.65266 43.636C0.964831 45.3239 0.0166193 47.6131 0.0166193 50V71C0.00214313 71.1697 0.00214313 71.3403 0.0166193 71.51C-0.00553978 71.8396 -0.00553978 72.1704 0.0166193 72.5C0.0166193 73.4849 0.210613 74.4602 0.587523 75.3701C0.964433 76.2801 1.51688 77.1069 2.21332 77.8033C2.90976 78.4998 3.73655 79.0522 4.6465 79.4291C5.55644 79.806 6.53171 80 7.51662 80H16.5166C17.5015 80 18.4768 79.806 19.3868 79.4291C20.2967 79.0522 21.1235 78.4998 21.8199 77.8033C22.5164 77.1069 23.0688 76.2801 23.4457 75.3701C23.8226 74.4602 24.0166 73.4849 24.0166 72.5C24.0124 70.8731 23.4749 69.2924 22.4866 68C23.4749 66.7076 24.0124 65.1269 24.0166 63.5ZM6.01662 63.5C6.01662 63.1022 6.17466 62.7207 6.45596 62.4393C6.73727 62.158 7.1188 62 7.51662 62H16.5166C16.9145 62 17.296 62.158 17.5773 62.4393C17.8586 62.7207 18.0166 63.1022 18.0166 63.5C18.0166 63.8978 17.8586 64.2794 17.5773 64.5607C17.296 64.842 16.9145 65 16.5166 65H7.51662C7.1188 65 6.73727 64.842 6.45596 64.5607C6.17466 64.2794 6.01662 63.8978 6.01662 63.5ZM9.01662 47C9.81227 47 10.5753 47.3161 11.1379 47.8787C11.7006 48.4413 12.0166 49.2044 12.0166 50V56H7.51662C7.01285 55.9995 6.51031 56.0498 6.01662 56.15V50C6.01662 49.2044 6.33269 48.4413 6.8953 47.8787C7.45791 47.3161 8.22097 47 9.01662 47ZM16.5166 74H7.51662C7.1188 74 6.73727 73.842 6.45596 73.5607C6.17466 73.2794 6.01662 72.8978 6.01662 72.5C6.01662 72.1022 6.17466 71.7207 6.45596 71.4394C6.73727 71.158 7.1188 71 7.51662 71H16.5166C16.9145 71 17.296 71.158 17.5773 71.4394C17.8586 71.7207 18.0166 72.1022 18.0166 72.5C18.0166 72.8978 17.8586 73.2794 17.5773 73.5607C17.296 73.842 16.9145 74 16.5166 74Z" fill="#26292F"/>
</svg>
