<svg width="100" height="100" viewBox="0 0 100 100" fill="none" xmlns="http://www.w3.org/2000/svg">
<rect x="21.7241" y="21.9207" width="62.1698" height="62.1698" fill="#9A4FC5"/>
<rect x="15.8022" y="16" width="62.1698" height="62.1698" fill="#25E1DE"/>
<rect x="18.7632" y="18.9604" width="62.1698" height="62.1698" fill="#FBFDFE"/>
<line x1="75.0117" y1="29.3025" x2="86.8536" y2="29.3025" stroke="#9A4FC5" stroke-width="3"/>
<line x1="75.0117" y1="29.3025" x2="86.8536" y2="29.3025" stroke="#9A4FC5" stroke-width="3"/>
<line x1="69.0908" y1="38.1836" x2="77.9722" y2="38.1836" stroke="#9A4FC5" stroke-width="3"/>
<line x1="69.0908" y1="38.1836" x2="77.9722" y2="38.1836" stroke="#9A4FC5" stroke-width="3"/>
<line x1="80.9326" y1="44.1047" x2="89.814" y2="44.1047" stroke="#9A4FC5" stroke-width="3"/>
<line x1="80.9326" y1="44.1047" x2="89.814" y2="44.1047" stroke="#9A4FC5" stroke-width="3"/>
<line x1="80.9326" y1="50.0256" x2="98.6954" y2="50.0256" stroke="#9A4FC5" stroke-width="3"/>
<line x1="80.9326" y1="50.0256" x2="98.6954" y2="50.0256" stroke="#9A4FC5" stroke-width="3"/>
<line x1="72.0513" y1="67.7883" x2="86.8536" y2="67.7883" stroke="#9A4FC5" stroke-width="3"/>
<line x1="72.0513" y1="67.7883" x2="86.8536" y2="67.7883" stroke="#9A4FC5" stroke-width="3"/>
<line x1="63.1704" y1="73.7092" x2="75.0123" y2="73.7092" stroke="#9A4FC5" stroke-width="3"/>
<line x1="63.1704" y1="73.7092" x2="75.0123" y2="73.7092" stroke="#9A4FC5" stroke-width="3"/>
<line x1="39.4863" y1="23.4209" x2="9.88165" y2="23.4209" stroke="#25E1DE" stroke-width="3"/>
<line x1="39.4863" y1="23.4209" x2="9.88165" y2="23.4209" stroke="#25E1DE" stroke-width="3"/>
<line x1="21.7241" y1="47.105" x2="6.92178" y2="47.105" stroke="#25E1DE" stroke-width="3"/>
<line x1="21.7241" y1="47.105" x2="6.92178" y2="47.105" stroke="#25E1DE" stroke-width="3"/>
<line x1="21.7241" y1="41.1836" x2="3.96131" y2="41.1836" stroke="#25E1DE" stroke-width="3"/>
<line x1="21.7241" y1="41.1836" x2="3.96131" y2="41.1836" stroke="#25E1DE" stroke-width="3"/>
<line x1="24.6846" y1="70.7886" x2="9.88223" y2="70.7886" stroke="#25E1DE" stroke-width="3"/>
<line x1="24.6846" y1="70.7886" x2="9.88223" y2="70.7886" stroke="#25E1DE" stroke-width="3"/>
<path d="M60.21 42.6444C59.039 42.6444 57.8942 42.2971 56.9205 41.6465C55.9468 40.9959 55.1879 40.0712 54.7398 38.9893C54.2916 37.9074 54.1744 36.7169 54.4028 35.5683C54.6313 34.4198 55.1952 33.3648 56.0233 32.5367C56.8513 31.7086 57.9063 31.1447 59.0549 30.9163C60.2034 30.6878 61.3939 30.8051 62.4758 31.2532C63.5578 31.7013 64.4825 32.4602 65.1331 33.4339C65.7837 34.4076 66.1309 35.5524 66.1309 36.7234C66.1309 38.2938 65.5071 39.7998 64.3967 40.9102C63.2863 42.0206 61.7803 42.6444 60.21 42.6444Z" fill="#26292F"/>
<path d="M36.5259 42.6444C35.3549 42.6444 34.2101 42.2971 33.2364 41.6465C32.2627 40.9959 31.5038 40.0712 31.0557 38.9893C30.6075 37.9074 30.4903 36.7169 30.7188 35.5683C30.9472 34.4198 31.5111 33.3648 32.3392 32.5367C33.1672 31.7086 34.2223 31.1447 35.3708 30.9163C36.5194 30.6878 37.7099 30.8051 38.7918 31.2532C39.8737 31.7013 40.7984 32.4602 41.449 33.4339C42.0996 34.4076 42.4469 35.5524 42.4469 36.7234C42.4469 38.2938 41.823 39.7998 40.7127 40.9102C39.6023 42.0206 38.0963 42.6444 36.5259 42.6444Z" fill="#26292F"/>
<path d="M20.2432 69.2885L20.2432 75.2095L12.842 76.6897L9.88153 67.8083L6.92106 63.3676L5.44082 55.9664L3.96059 47.085L8.40129 45.6048L17.2827 45.6048L20.2432 48.5652L20.2432 69.2885Z" fill="white" stroke="white"/>
<path d="M33.5654 63.3675C33.5654 56.8249 40.1969 51.5256 48.3678 51.5256C56.5387 51.5256 63.1701 56.8249 63.1701 63.3675V66.328H33.5654V63.3675Z" fill="#26292F"/>
<path d="M63.1701 69.2885H33.5654C32.7803 69.2885 32.0273 68.9766 31.4721 68.4214C30.9169 67.8662 30.605 67.1132 30.605 66.328V63.3675C30.605 55.1966 38.5686 48.5652 48.3678 48.5652C58.1669 48.5652 66.1306 55.1966 66.1306 63.3675V66.328C66.1306 67.1132 65.8187 67.8662 65.2635 68.4214C64.7083 68.9766 63.9553 69.2885 63.1701 69.2885ZM36.5259 63.3675H60.2097C60.2097 58.4828 54.9104 54.4861 48.3678 54.4861C41.8252 54.4861 36.5259 58.4828 36.5259 63.3675Z" fill="#26292F"/>
<path d="M24.6837 50.0455C24.6837 48.0825 23.904 46.2 22.516 44.812C21.128 43.4241 19.2455 42.6443 17.2826 42.6443H8.40117C6.43826 42.6443 4.55574 43.4241 3.16775 44.812C1.77976 46.2 1 48.0825 1 50.0455C1.00421 51.651 1.53456 53.2108 2.50984 54.4862C1.53456 55.7615 1.00421 57.3214 1 58.9269C0.999652 60.6331 1.58881 62.287 2.66777 63.6087C3.74673 64.9304 5.24921 65.8388 6.92094 66.18V72.249C6.92094 74.6045 7.85665 76.8635 9.52224 78.5291C11.1878 80.1947 13.4468 81.1304 15.8023 81.1304C18.1578 81.1304 20.4169 80.1947 22.0824 78.5291C23.748 76.8635 24.6837 74.6045 24.6837 72.249V51.5257C24.6989 51.3583 24.6989 51.1898 24.6837 51.0224C24.7056 50.6971 24.7056 50.3707 24.6837 50.0455ZM8.40117 60.4071C8.00859 60.4071 7.63209 60.2511 7.35449 59.9735C7.07689 59.6959 6.92094 59.3194 6.92094 58.9269C6.92094 58.5343 7.07689 58.1578 7.35449 57.8802C7.63209 57.6026 8.00859 57.4466 8.40117 57.4466H17.2826C17.6752 57.4466 18.0517 57.6026 18.3293 57.8802C18.6069 58.1578 18.7628 58.5343 18.7628 58.9269C18.7628 59.3194 18.6069 59.6959 18.3293 59.9735C18.0517 60.2511 17.6752 60.4071 17.2826 60.4071H8.40117ZM8.40117 48.5652H17.2826C17.6752 48.5652 18.0517 48.7212 18.3293 48.9988C18.6069 49.2764 18.7628 49.6529 18.7628 50.0455C18.7628 50.438 18.6069 50.8145 18.3293 51.0921C18.0517 51.3697 17.6752 51.5257 17.2826 51.5257H8.40117C8.00859 51.5257 7.63209 51.3697 7.35449 51.0921C7.07689 50.8145 6.92094 50.438 6.92094 50.0455C6.92094 49.6529 7.07689 49.2764 7.35449 48.9988C7.63209 48.7212 8.00859 48.5652 8.40117 48.5652ZM15.8023 75.2094C15.0172 75.2094 14.2642 74.8975 13.709 74.3423C13.1538 73.7871 12.8419 73.0341 12.8419 72.249V66.328H17.2826C17.7797 66.3285 18.2756 66.2789 18.7628 66.18V72.249C18.7628 73.0341 18.4509 73.7871 17.8957 74.3423C17.3405 74.8975 16.5875 75.2094 15.8023 75.2094Z" fill="#26292F"/>
</svg>
