<svg width="101" height="100" viewBox="0 0 101 100" fill="none" xmlns="http://www.w3.org/2000/svg">
<rect x="19.6055" y="20.261" width="65.7391" height="65.7391" fill="#9A4FC5"/>
<rect x="13.3447" y="14" width="65.7391" height="65.7391" fill="#25E1DE"/>
<rect x="16.4751" y="17.1304" width="65.7391" height="65.7391" fill="#FBFDFE"/>
<line x1="75.9536" y1="28.1521" x2="88.4753" y2="28.1521" stroke="#9A4FC5" stroke-width="3"/>
<line x1="75.9536" y1="28.1521" x2="88.4753" y2="28.1521" stroke="#9A4FC5" stroke-width="3"/>
<line x1="69.6924" y1="37.5437" x2="79.0837" y2="37.5437" stroke="#9A4FC5" stroke-width="3"/>
<line x1="69.6924" y1="37.5437" x2="79.0837" y2="37.5437" stroke="#9A4FC5" stroke-width="3"/>
<line x1="82.2144" y1="43.8044" x2="91.6057" y2="43.8044" stroke="#9A4FC5" stroke-width="3"/>
<line x1="82.2144" y1="43.8044" x2="91.6057" y2="43.8044" stroke="#9A4FC5" stroke-width="3"/>
<line x1="82.2144" y1="50.0652" x2="100.997" y2="50.0652" stroke="#9A4FC5" stroke-width="3"/>
<line x1="82.2144" y1="50.0652" x2="100.997" y2="50.0652" stroke="#9A4FC5" stroke-width="3"/>
<line x1="72.8228" y1="68.8479" x2="88.4749" y2="68.8479" stroke="#9A4FC5" stroke-width="3"/>
<line x1="72.8228" y1="68.8479" x2="88.4749" y2="68.8479" stroke="#9A4FC5" stroke-width="3"/>
<line x1="63.4312" y1="75.1089" x2="75.9529" y2="75.1089" stroke="#9A4FC5" stroke-width="3"/>
<line x1="63.4312" y1="75.1089" x2="75.9529" y2="75.1089" stroke="#9A4FC5" stroke-width="3"/>
<line x1="38.3882" y1="21.761" x2="7.08384" y2="21.761" stroke="#25E1DE" stroke-width="3"/>
<line x1="38.3882" y1="21.761" x2="7.08384" y2="21.761" stroke="#25E1DE" stroke-width="3"/>
<line x1="19.6055" y1="46.8044" x2="3.95329" y2="46.8044" stroke="#25E1DE" stroke-width="3"/>
<line x1="19.6055" y1="46.8044" x2="3.95329" y2="46.8044" stroke="#25E1DE" stroke-width="3"/>
<line x1="19.6055" y1="40.5437" x2="0.822859" y2="40.5437" stroke="#25E1DE" stroke-width="3"/>
<line x1="19.6055" y1="40.5437" x2="0.822859" y2="40.5437" stroke="#25E1DE" stroke-width="3"/>
<line x1="22.7358" y1="71.8479" x2="7.08367" y2="71.8479" stroke="#25E1DE" stroke-width="3"/>
<line x1="22.7358" y1="71.8479" x2="7.08367" y2="71.8479" stroke="#25E1DE" stroke-width="3"/>
<path d="M32.1333 67.1213C32.1333 60.2031 39.1455 54.5996 47.7855 54.5996C56.4255 54.5996 63.4376 60.2031 63.4376 67.1213H32.1333Z" fill="#26292F"/>
<path d="M63.4372 70.2514H32.1329C31.3026 70.2514 30.5064 69.9215 29.9193 69.3345C29.3323 68.7474 29.0024 67.9512 29.0024 67.1209C29.0024 58.4809 37.4233 51.4688 47.7851 51.4688C58.1468 51.4688 66.5677 58.4809 66.5677 67.1209C66.5677 67.9512 66.2379 68.7474 65.6508 69.3345C65.0637 69.9215 64.2675 70.2514 63.4372 70.2514ZM35.9833 63.9905H59.5868C58.384 61.964 56.6465 60.3079 54.5647 59.2035C52.483 58.0991 50.1374 57.5892 47.7851 57.7296C45.4327 57.5892 43.0871 58.0991 41.0054 59.2035C38.9236 60.3079 37.1861 61.964 35.9833 63.9905Z" fill="#26292F"/>
<path d="M32.1333 48.3386L38.3942 45.2081L35.2637 38.9473" stroke="#26292F" stroke-width="5" stroke-linecap="round" stroke-linejoin="round"/>
<path d="M63.4376 48.3386L57.1768 45.2081L60.3072 38.9473" stroke="#26292F" stroke-width="5" stroke-linecap="round" stroke-linejoin="round"/>
<path d="M25.8733 38.947C25.2018 38.9485 24.5476 38.734 24.0074 38.3353C23.4671 37.9366 23.0693 37.3747 22.8729 36.7326C22.6764 36.0905 22.6916 35.4022 22.9162 34.7694C23.1408 34.1366 23.5629 33.5928 24.1202 33.2183L33.5115 26.9574C34.2004 26.5502 35.019 26.4222 35.7992 26.5998C36.5795 26.7773 37.2621 27.2469 37.7069 27.9121C38.1517 28.5773 38.3249 29.3875 38.1909 30.1764C38.0569 30.9653 37.6258 31.6729 36.9863 32.1539L27.595 38.4148C27.0857 38.7571 26.487 38.9422 25.8733 38.947Z" fill="#26292F"/>
<path d="M69.6992 38.947C69.0855 38.9422 68.4868 38.7571 67.9775 38.4148L58.5862 32.1539C57.9467 31.6729 57.5156 30.9653 57.3816 30.1764C57.2476 29.3875 57.4208 28.5773 57.8656 27.9121C58.3104 27.2469 58.993 26.7773 59.7733 26.5998C60.5535 26.4222 61.3721 26.5502 62.0609 26.9574L71.4522 33.2183C72.0096 33.5928 72.4317 34.1366 72.6563 34.7694C72.8809 35.4022 72.8961 36.0905 72.6996 36.7326C72.5031 37.3747 72.1054 37.9366 71.5651 38.3353C71.0248 38.734 70.3707 38.9485 69.6992 38.947Z" fill="#26292F"/>
</svg>
