<svg width="100" height="100" viewBox="0 0 100 100" fill="none" xmlns="http://www.w3.org/2000/svg">
<rect x="18.75" y="20.25" width="65.625" height="65.625" fill="#9A4FC5"/>
<rect x="12.5" y="14" width="65.625" height="65.625" fill="#25E1DE"/>
<rect x="15.625" y="17.125" width="65.625" height="65.625" fill="#FBFDFE"/>
<line x1="75" y1="28.1248" x2="87.5" y2="28.1248" stroke="#9A4FC5" stroke-width="3"/>
<line x1="75" y1="28.1248" x2="87.5" y2="28.1248" stroke="#9A4FC5" stroke-width="3"/>
<line x1="68.75" y1="37.5" x2="78.125" y2="37.5" stroke="#9A4FC5" stroke-width="3"/>
<line x1="68.75" y1="37.5" x2="78.125" y2="37.5" stroke="#9A4FC5" stroke-width="3"/>
<line x1="81.25" y1="43.7498" x2="90.625" y2="43.7498" stroke="#9A4FC5" stroke-width="3"/>
<line x1="81.25" y1="43.7498" x2="90.625" y2="43.7498" stroke="#9A4FC5" stroke-width="3"/>
<line x1="81.25" y1="50" x2="100" y2="50" stroke="#9A4FC5" stroke-width="3"/>
<line x1="81.25" y1="50" x2="100" y2="50" stroke="#9A4FC5" stroke-width="3"/>
<line x1="71.875" y1="68.75" x2="87.5" y2="68.75" stroke="#9A4FC5" stroke-width="3"/>
<line x1="71.875" y1="68.75" x2="87.5" y2="68.75" stroke="#9A4FC5" stroke-width="3"/>
<line x1="62.5" y1="75" x2="75" y2="75" stroke="#9A4FC5" stroke-width="3"/>
<line x1="62.5" y1="75" x2="75" y2="75" stroke="#9A4FC5" stroke-width="3"/>
<line x1="37.5" y1="21.75" x2="6.25" y2="21.75" stroke="#25E1DE" stroke-width="3"/>
<line x1="37.5" y1="21.75" x2="6.25" y2="21.75" stroke="#25E1DE" stroke-width="3"/>
<line x1="18.75" y1="46.7498" x2="3.125" y2="46.7498" stroke="#25E1DE" stroke-width="3"/>
<line x1="18.75" y1="46.7498" x2="3.125" y2="46.7498" stroke="#25E1DE" stroke-width="3"/>
<line x1="18.75" y1="40.5" y2="40.5" stroke="#25E1DE" stroke-width="3"/>
<line x1="18.75" y1="40.5" y2="40.5" stroke="#25E1DE" stroke-width="3"/>
<line x1="21.8745" y1="71.75" x2="6.24951" y2="71.75" stroke="#25E1DE" stroke-width="3"/>
<line x1="21.8745" y1="71.75" x2="6.24951" y2="71.75" stroke="#25E1DE" stroke-width="3"/>
<path d="M62.5 54.625H31.25C30.4212 54.625 29.6263 54.2958 29.0403 53.7097C28.4542 53.1237 28.125 52.3288 28.125 51.5C28.125 50.6712 28.4542 49.8763 29.0403 49.2903C29.6263 48.7042 30.4212 48.375 31.25 48.375H62.5C63.3288 48.375 64.1237 48.7042 64.7097 49.2903C65.2958 49.8763 65.625 50.6712 65.625 51.5C65.625 52.3288 65.2958 53.1237 64.7097 53.7097C64.1237 54.2958 63.3288 54.625 62.5 54.625Z" fill="#26292F"/>
<path d="M40.625 51.5002H53.125V64.0002C53.125 65.6578 52.4665 67.2476 51.2944 68.4197C50.1223 69.5918 48.5326 70.2502 46.875 70.2502C45.2174 70.2502 43.6277 69.5918 42.4556 68.4197C41.2835 67.2476 40.625 65.6578 40.625 64.0002V51.5002Z" fill="#D894FF"/>
<path d="M46.875 73.375C44.3886 73.375 42.004 72.3873 40.2459 70.6291C38.4877 68.871 37.5 66.4864 37.5 64V51.5C37.5 50.6712 37.8292 49.8763 38.4153 49.2903C39.0013 48.7042 39.7962 48.375 40.625 48.375H53.125C53.9538 48.375 54.7487 48.7042 55.3347 49.2903C55.9208 49.8763 56.25 50.6712 56.25 51.5V64C56.25 66.4864 55.2623 68.871 53.5041 70.6291C51.746 72.3873 49.3614 73.375 46.875 73.375ZM43.75 54.625V64C43.75 64.8288 44.0792 65.6237 44.6653 66.2097C45.2513 66.7958 46.0462 67.125 46.875 67.125C47.7038 67.125 48.4987 66.7958 49.0847 66.2097C49.6708 65.6237 50 64.8288 50 64V54.625H43.75Z" fill="#26292F"/>
<path d="M59.375 42.125C58.1389 42.125 56.9305 41.7584 55.9027 41.0717C54.8749 40.3849 54.0738 39.4088 53.6008 38.2668C53.1277 37.1247 53.0039 35.8681 53.2451 34.6557C53.4863 33.4433 54.0815 32.3297 54.9556 31.4556C55.8297 30.5815 56.9433 29.9863 58.1557 29.7451C59.3681 29.5039 60.6247 29.6277 61.7668 30.1008C62.9088 30.5738 63.8849 31.3749 64.5717 32.4027C65.2584 33.4305 65.625 34.6389 65.625 35.875C65.625 37.5326 64.9665 39.1223 63.7944 40.2944C62.6223 41.4665 61.0326 42.125 59.375 42.125Z" fill="#26292F"/>
<path d="M34.375 42.125C33.1389 42.125 31.9305 41.7584 30.9027 41.0717C29.8749 40.3849 29.0738 39.4088 28.6008 38.2668C28.1277 37.1247 28.0039 35.8681 28.2451 34.6557C28.4863 33.4433 29.0815 32.3297 29.9556 31.4556C30.8297 30.5815 31.9433 29.9863 33.1557 29.7451C34.3681 29.5039 35.6247 29.6277 36.7668 30.1008C37.9088 30.5738 38.8849 31.3749 39.5717 32.4027C40.2584 33.4305 40.625 34.6389 40.625 35.875C40.625 37.5326 39.9665 39.1223 38.7944 40.2944C37.6223 41.4665 36.0326 42.125 34.375 42.125Z" fill="#26292F"/>
</svg>
