<svg width="100" height="100" viewBox="0 0 100 100" fill="none" xmlns="http://www.w3.org/2000/svg">
<rect x="18.75" y="20.25" width="65.625" height="65.625" fill="#9A4FC5"/>
<rect x="12.5005" y="14" width="65.625" height="65.625" fill="#25E1DE"/>
<rect x="15.6255" y="17.125" width="65.625" height="65.625" fill="#FBFDFE"/>
<line x1="75" y1="28.1248" x2="87.5" y2="28.1248" stroke="#9A4FC5" stroke-width="3"/>
<line x1="75" y1="28.1248" x2="87.5" y2="28.1248" stroke="#9A4FC5" stroke-width="3"/>
<line x1="68.75" y1="37.5" x2="78.125" y2="37.5" stroke="#9A4FC5" stroke-width="3"/>
<line x1="68.75" y1="37.5" x2="78.125" y2="37.5" stroke="#9A4FC5" stroke-width="3"/>
<line x1="81.2505" y1="43.7498" x2="90.6255" y2="43.7498" stroke="#9A4FC5" stroke-width="3"/>
<line x1="81.2505" y1="43.7498" x2="90.6255" y2="43.7498" stroke="#9A4FC5" stroke-width="3"/>
<line x1="81.2505" y1="50" x2="100" y2="50" stroke="#9A4FC5" stroke-width="3"/>
<line x1="81.2505" y1="50" x2="100" y2="50" stroke="#9A4FC5" stroke-width="3"/>
<line x1="71.875" y1="68.75" x2="87.5" y2="68.75" stroke="#9A4FC5" stroke-width="3"/>
<line x1="71.875" y1="68.75" x2="87.5" y2="68.75" stroke="#9A4FC5" stroke-width="3"/>
<line x1="62.5" y1="75" x2="75" y2="75" stroke="#9A4FC5" stroke-width="3"/>
<line x1="62.5" y1="75" x2="75" y2="75" stroke="#9A4FC5" stroke-width="3"/>
<line x1="37.5" y1="21.75" x2="6.25" y2="21.75" stroke="#25E1DE" stroke-width="3"/>
<line x1="37.5" y1="21.75" x2="6.25" y2="21.75" stroke="#25E1DE" stroke-width="3"/>
<line x1="18.75" y1="46.7498" x2="3.125" y2="46.7498" stroke="#25E1DE" stroke-width="3"/>
<line x1="18.75" y1="46.7498" x2="3.125" y2="46.7498" stroke="#25E1DE" stroke-width="3"/>
<line x1="18.75" y1="40.5" y2="40.5" stroke="#25E1DE" stroke-width="3"/>
<line x1="18.75" y1="40.5" y2="40.5" stroke="#25E1DE" stroke-width="3"/>
<line x1="21.875" y1="71.75" x2="6.25" y2="71.75" stroke="#25E1DE" stroke-width="3"/>
<line x1="21.875" y1="71.75" x2="6.25" y2="71.75" stroke="#25E1DE" stroke-width="3"/>
<path d="M46.8808 57.7499C40.9898 58.0771 35.1138 56.8825 29.8183 54.2812C29.453 54.0924 29.1286 53.8335 28.8634 53.5193C28.5982 53.2052 28.3974 52.8418 28.2727 52.4501C28.1479 52.0583 28.1015 51.6459 28.1361 51.2362C28.1708 50.8265 28.2858 50.4277 28.4745 50.0624C28.8558 49.3248 29.5144 48.7688 30.3056 48.5168C30.6973 48.392 31.1098 48.3456 31.5195 48.3803C31.9292 48.4149 32.328 48.5299 32.6933 48.7187C37.1039 50.8525 41.991 51.8105 46.8808 51.4999C51.7706 51.8105 56.6577 50.8525 61.0683 48.7187C61.4335 48.5299 61.8324 48.4149 62.242 48.3803C62.6517 48.3456 63.0642 48.392 63.456 48.5168C63.8477 48.6416 64.211 48.8423 64.5252 49.1075C64.8394 49.3727 65.0982 49.6972 65.287 50.0624C65.4758 50.4277 65.5908 50.8265 65.6254 51.2362C65.6601 51.6459 65.6137 52.0583 65.4889 52.4501C65.3641 52.8418 65.1634 53.2052 64.8982 53.5193C64.633 53.8335 64.3085 54.0924 63.9433 54.2812C58.6477 56.8825 52.7717 58.0771 46.8808 57.7499Z" fill="#26292F"/>
<path d="M53.1309 54.6252V64.0002C53.1309 65.6578 52.4724 67.2476 51.3003 68.4197C50.1282 69.5918 48.5385 70.2502 46.8809 70.2502C45.2233 70.2502 43.6335 69.5918 42.4614 68.4197C41.2893 67.2476 40.6309 65.6578 40.6309 64.0002V54.6252" fill="#D894FF"/>
<path d="M46.8813 73.3752C44.3949 73.3752 42.0104 72.3875 40.2522 70.6294C38.4941 68.8712 37.5063 66.4866 37.5063 64.0002V54.6252C37.5063 53.7964 37.8356 53.0016 38.4216 52.4155C39.0077 51.8295 39.8025 51.5002 40.6313 51.5002C41.4601 51.5002 42.255 51.8295 42.8411 52.4155C43.4271 53.0016 43.7563 53.7964 43.7563 54.6252V64.0002C43.7563 64.829 44.0856 65.6239 44.6716 66.21C45.2577 66.796 46.0525 67.1252 46.8813 67.1252C47.7101 67.1252 48.505 66.796 49.0911 66.21C49.6771 65.6239 50.0063 64.829 50.0063 64.0002V54.6252C50.0063 53.7964 50.3356 53.0016 50.9216 52.4155C51.5077 51.8295 52.3025 51.5002 53.1313 51.5002C53.9601 51.5002 54.755 51.8295 55.3411 52.4155C55.9271 53.0016 56.2563 53.7964 56.2563 54.6252V64.0002C56.2563 66.4866 55.2686 68.8712 53.5105 70.6294C51.7523 72.3875 49.3678 73.3752 46.8813 73.3752Z" fill="#26292F"/>
<path d="M59.3814 42.125C58.1452 42.125 56.9368 41.7584 55.909 41.0717C54.8812 40.3849 54.0802 39.4088 53.6071 38.2668C53.1341 37.1247 53.0103 35.8681 53.2514 34.6557C53.4926 33.4433 54.0879 32.3297 54.9619 31.4556C55.836 30.5815 56.9497 29.9863 58.162 29.7451C59.3744 29.5039 60.6311 29.6277 61.7731 30.1008C62.9152 30.5738 63.8913 31.3749 64.578 32.4027C65.2648 33.4305 65.6314 34.6389 65.6314 35.875C65.6314 37.5326 64.9729 39.1223 63.8008 40.2944C62.6287 41.4665 61.039 42.125 59.3814 42.125Z" fill="#26292F"/>
<path d="M40.6313 39.0002H31.2563C30.4275 39.0002 29.6327 38.671 29.0466 38.085C28.4606 37.4989 28.1313 36.704 28.1313 35.8752C28.1313 35.0464 28.4606 34.2516 29.0466 33.6655C29.6327 33.0795 30.4275 32.7502 31.2563 32.7502H40.6313C41.4601 32.7502 42.255 33.0795 42.8411 33.6655C43.4271 34.2516 43.7563 35.0464 43.7563 35.8752C43.7563 36.704 43.4271 37.4989 42.8411 38.085C42.255 38.671 41.4601 39.0002 40.6313 39.0002Z" fill="#26292F"/>
</svg>
