<svg width="100" height="100" viewBox="0 0 100 100" fill="none" xmlns="http://www.w3.org/2000/svg">
<rect x="18.75" y="19.25" width="65.625" height="65.625" fill="#9A4FC5"/>
<rect x="12.5005" y="13" width="65.625" height="65.625" fill="#25E1DE"/>
<rect x="15.6255" y="16.125" width="65.625" height="65.625" fill="#FBFDFE"/>
<line x1="75" y1="27.125" x2="87.5" y2="27.125" stroke="#9A4FC5" stroke-width="3"/>
<line x1="75" y1="27.125" x2="87.5" y2="27.125" stroke="#9A4FC5" stroke-width="3"/>
<line x1="68.75" y1="36.5" x2="78.125" y2="36.5" stroke="#9A4FC5" stroke-width="3"/>
<line x1="68.75" y1="36.5" x2="78.125" y2="36.5" stroke="#9A4FC5" stroke-width="3"/>
<line x1="81.25" y1="42.75" x2="90.625" y2="42.75" stroke="#9A4FC5" stroke-width="3"/>
<line x1="81.25" y1="42.75" x2="90.625" y2="42.75" stroke="#9A4FC5" stroke-width="3"/>
<line x1="81.25" y1="49" x2="100" y2="49" stroke="#9A4FC5" stroke-width="3"/>
<line x1="81.25" y1="49" x2="100" y2="49" stroke="#9A4FC5" stroke-width="3"/>
<line x1="71.875" y1="67.75" x2="87.5" y2="67.75" stroke="#9A4FC5" stroke-width="3"/>
<line x1="71.875" y1="67.75" x2="87.5" y2="67.75" stroke="#9A4FC5" stroke-width="3"/>
<line x1="62.5" y1="74" x2="75" y2="74" stroke="#9A4FC5" stroke-width="3"/>
<line x1="62.5" y1="74" x2="75" y2="74" stroke="#9A4FC5" stroke-width="3"/>
<line x1="37.5" y1="20.75" x2="6.25" y2="20.75" stroke="#25E1DE" stroke-width="3"/>
<line x1="37.5" y1="20.75" x2="6.25" y2="20.75" stroke="#25E1DE" stroke-width="3"/>
<line x1="18.75" y1="45.75" x2="3.125" y2="45.75" stroke="#25E1DE" stroke-width="3"/>
<line x1="18.75" y1="45.75" x2="3.125" y2="45.75" stroke="#25E1DE" stroke-width="3"/>
<line x1="18.75" y1="39.5" y2="39.5" stroke="#25E1DE" stroke-width="3"/>
<line x1="18.75" y1="39.5" y2="39.5" stroke="#25E1DE" stroke-width="3"/>
<line x1="21.875" y1="70.75" x2="6.25" y2="70.75" stroke="#25E1DE" stroke-width="3"/>
<line x1="21.875" y1="70.75" x2="6.25" y2="70.75" stroke="#25E1DE" stroke-width="3"/>
<path d="M46.875 66.125C36.5312 66.125 28.125 59.125 28.125 50.5C28.125 49.6712 28.4542 48.8763 29.0403 48.2903C29.6263 47.7042 30.4212 47.375 31.25 47.375C32.0788 47.375 32.8737 47.7042 33.4597 48.2903C34.0458 48.8763 34.375 49.6712 34.375 50.5C34.375 55.6562 39.9688 59.875 46.875 59.875C53.7812 59.875 59.375 55.6562 59.375 50.5C59.375 49.6712 59.7042 48.8763 60.2903 48.2903C60.8763 47.7042 61.6712 47.375 62.5 47.375C63.3288 47.375 64.1237 47.7042 64.7097 48.2903C65.2958 48.8763 65.625 49.6712 65.625 50.5C65.625 59.125 57.2188 66.125 46.875 66.125Z" fill="#26292F"/>
<path d="M34.375 41.125C33.1389 41.125 31.9305 40.7584 30.9027 40.0717C29.8749 39.3849 29.0738 38.4088 28.6008 37.2668C28.1277 36.1247 28.0039 34.8681 28.2451 33.6557C28.4863 32.4433 29.0815 31.3297 29.9556 30.4556C30.8297 29.5815 31.9433 28.9863 33.1557 28.7451C34.3681 28.5039 35.6247 28.6277 36.7668 29.1008C37.9088 29.5738 38.8849 30.3749 39.5717 31.4027C40.2584 32.4305 40.625 33.6389 40.625 34.875C40.625 36.5326 39.9665 38.1223 38.7944 39.2944C37.6223 40.4665 36.0326 41.125 34.375 41.125Z" fill="#26292F"/>
<path d="M62.5005 38H53.1255C52.2967 38 51.5018 37.6708 50.9158 37.0847C50.3297 36.4987 50.0005 35.7038 50.0005 34.875C50.0005 34.0462 50.3297 33.2513 50.9158 32.6653C51.5018 32.0792 52.2967 31.75 53.1255 31.75H62.5005C63.3293 31.75 64.1241 32.0792 64.7102 32.6653C65.2963 33.2513 65.6255 34.0462 65.6255 34.875C65.6255 35.7038 65.2963 36.4987 64.7102 37.0847C64.1241 37.6708 63.3293 38 62.5005 38Z" fill="#26292F"/>
</svg>
