<svg width="101" height="100" viewBox="0 0 101 100" fill="none" xmlns="http://www.w3.org/2000/svg">
<rect x="18.75" y="20.2502" width="65.625" height="65.625" fill="#9A4FC5"/>
<rect x="12.5005" y="14" width="65.625" height="65.625" fill="#25E1DE"/>
<rect x="15.6255" y="17.1252" width="65.625" height="65.625" fill="#FBFDFE"/>
<line x1="75.0005" y1="28.125" x2="87.5005" y2="28.125" stroke="#9A4FC5" stroke-width="3"/>
<line x1="75.0005" y1="28.125" x2="87.5005" y2="28.125" stroke="#9A4FC5" stroke-width="3"/>
<line x1="68.7505" y1="37.5002" x2="78.1255" y2="37.5002" stroke="#9A4FC5" stroke-width="3"/>
<line x1="68.7505" y1="37.5002" x2="78.1255" y2="37.5002" stroke="#9A4FC5" stroke-width="3"/>
<line x1="81.2505" y1="43.75" x2="90.6255" y2="43.75" stroke="#9A4FC5" stroke-width="3"/>
<line x1="81.2505" y1="43.75" x2="90.6255" y2="43.75" stroke="#9A4FC5" stroke-width="3"/>
<line x1="81.2505" y1="50" x2="100" y2="50" stroke="#9A4FC5" stroke-width="3"/>
<line x1="81.2505" y1="50" x2="100" y2="50" stroke="#9A4FC5" stroke-width="3"/>
<line x1="71.8755" y1="68.75" x2="87.5005" y2="68.75" stroke="#9A4FC5" stroke-width="3"/>
<line x1="71.8755" y1="68.75" x2="87.5005" y2="68.75" stroke="#9A4FC5" stroke-width="3"/>
<line x1="62.5005" y1="75" x2="75.0005" y2="75" stroke="#9A4FC5" stroke-width="3"/>
<line x1="62.5005" y1="75" x2="75.0005" y2="75" stroke="#9A4FC5" stroke-width="3"/>
<line x1="37.5005" y1="21.7502" x2="6.25049" y2="21.7502" stroke="#25E1DE" stroke-width="3"/>
<line x1="37.5005" y1="21.7502" x2="6.25049" y2="21.7502" stroke="#25E1DE" stroke-width="3"/>
<line x1="18.75" y1="46.75" x2="3.125" y2="46.75" stroke="#25E1DE" stroke-width="3"/>
<line x1="18.75" y1="46.75" x2="3.125" y2="46.75" stroke="#25E1DE" stroke-width="3"/>
<line x1="18.75" y1="40.5002" y2="40.5002" stroke="#25E1DE" stroke-width="3"/>
<line x1="18.75" y1="40.5002" y2="40.5002" stroke="#25E1DE" stroke-width="3"/>
<line x1="21.875" y1="71.75" x2="6.25" y2="71.75" stroke="#25E1DE" stroke-width="3"/>
<line x1="21.875" y1="71.75" x2="6.25" y2="71.75" stroke="#25E1DE" stroke-width="3"/>
<path d="M34.3755 45.25C33.1394 45.25 31.931 44.8834 30.9032 44.1967C29.8754 43.5099 29.0743 42.5338 28.6012 41.3918C28.1282 40.2497 28.0044 38.9931 28.2456 37.7807C28.4867 36.5683 29.082 35.4547 29.9561 34.5806C30.8302 33.7065 31.9438 33.1113 33.1562 32.8701C34.3686 32.6289 35.6252 32.7527 36.7673 33.2258C37.9093 33.6988 38.8854 34.4999 39.5722 35.5277C40.2589 36.5555 40.6255 37.7639 40.6255 39C40.6255 40.6576 39.967 42.2473 38.7949 43.4194C37.6228 44.5915 36.0331 45.25 34.3755 45.25Z" fill="#26292F"/>
<path d="M59.3755 45.25C58.1394 45.25 56.931 44.8834 55.9032 44.1967C54.8754 43.5099 54.0743 42.5338 53.6012 41.3918C53.1282 40.2497 53.0044 38.9931 53.2456 37.7807C53.4867 36.5683 54.082 35.4547 54.9561 34.5806C55.8302 33.7065 56.9438 33.1113 58.1562 32.8701C59.3686 32.6289 60.6252 32.7527 61.7673 33.2258C62.9093 33.6988 63.8854 34.4999 64.5722 35.5277C65.2589 36.5555 65.6255 37.7639 65.6255 39C65.6255 40.6576 64.967 42.2473 63.7949 43.4194C62.6228 44.5915 61.0331 45.25 59.3755 45.25Z" fill="#26292F"/>
</svg>
