<svg width="100" height="100" viewBox="0 0 100 100" fill="none" xmlns="http://www.w3.org/2000/svg">
<rect x="19.375" y="20.125" width="64.3125" height="64.3125" fill="#9A4FC5"/>
<rect x="13.25" y="14" width="64.3125" height="64.3125" fill="#25E1DE"/>
<rect x="16.312" y="17.0625" width="64.3125" height="64.3125" fill="#FBFDFE"/>
<line x1="74.4995" y1="27.8125" x2="86.7495" y2="27.8125" stroke="#9A4FC5" stroke-width="3"/>
<line x1="74.4995" y1="27.8125" x2="86.7495" y2="27.8125" stroke="#9A4FC5" stroke-width="3"/>
<line x1="68.3745" y1="37" x2="77.562" y2="37" stroke="#9A4FC5" stroke-width="3"/>
<line x1="68.3745" y1="37" x2="77.562" y2="37" stroke="#9A4FC5" stroke-width="3"/>
<line x1="80.6245" y1="43.1248" x2="89.812" y2="43.1248" stroke="#9A4FC5" stroke-width="3"/>
<line x1="80.6245" y1="43.1248" x2="89.812" y2="43.1248" stroke="#9A4FC5" stroke-width="3"/>
<line x1="80.6245" y1="49.25" x2="98.9995" y2="49.25" stroke="#9A4FC5" stroke-width="3"/>
<line x1="80.6245" y1="49.25" x2="98.9995" y2="49.25" stroke="#9A4FC5" stroke-width="3"/>
<line x1="71.437" y1="67.625" x2="86.7495" y2="67.625" stroke="#9A4FC5" stroke-width="3"/>
<line x1="71.437" y1="67.625" x2="86.7495" y2="67.625" stroke="#9A4FC5" stroke-width="3"/>
<line x1="62.2495" y1="73.7498" x2="74.4995" y2="73.7498" stroke="#9A4FC5" stroke-width="3"/>
<line x1="62.2495" y1="73.7498" x2="74.4995" y2="73.7498" stroke="#9A4FC5" stroke-width="3"/>
<line x1="37.7495" y1="21.6248" x2="7.12451" y2="21.6248" stroke="#25E1DE" stroke-width="3"/>
<line x1="37.7495" y1="21.6248" x2="7.12451" y2="21.6248" stroke="#25E1DE" stroke-width="3"/>
<line x1="19.375" y1="46.1248" x2="4.0625" y2="46.1248" stroke="#25E1DE" stroke-width="3"/>
<line x1="19.375" y1="46.1248" x2="4.0625" y2="46.1248" stroke="#25E1DE" stroke-width="3"/>
<line x1="19.375" y1="39.9998" x2="1" y2="39.9998" stroke="#25E1DE" stroke-width="3"/>
<line x1="19.375" y1="39.9998" x2="1" y2="39.9998" stroke="#25E1DE" stroke-width="3"/>
<line x1="22.4375" y1="70.6248" x2="7.125" y2="70.6248" stroke="#25E1DE" stroke-width="3"/>
<line x1="22.4375" y1="70.6248" x2="7.125" y2="70.6248" stroke="#25E1DE" stroke-width="3"/>
<path d="M48.375 66.0938C38.2381 66.0938 30 59.2338 30 50.7812C30 49.969 30.3227 49.1901 30.897 48.6157C31.4713 48.0414 32.2503 47.7188 33.0625 47.7188C33.8747 47.7188 34.6537 48.0414 35.228 48.6157C35.8023 49.1901 36.125 49.969 36.125 50.7812C36.125 55.8344 41.6069 59.9688 48.375 59.9688C55.1431 59.9688 60.625 55.8344 60.625 50.7812C60.625 49.969 60.9477 49.1901 61.522 48.6157C62.0963 48.0414 62.8753 47.7188 63.6875 47.7188C64.4997 47.7188 65.2787 48.0414 65.853 48.6157C66.4273 49.1901 66.75 49.969 66.75 50.7812C66.75 59.2338 58.5119 66.0938 48.375 66.0938Z" fill="#26292F"/>
<path d="M33.063 35.8672C33.2297 34.8069 33.8022 33.853 34.6595 33.2072C35.5168 32.5614 36.5916 32.2743 37.6567 32.4065C38.7219 32.2743 39.7967 32.5614 40.654 33.2072C41.5112 33.853 42.0838 34.8069 42.2505 35.8672" stroke="#26292F" stroke-width="5" stroke-linecap="round" stroke-linejoin="round"/>
<path d="M54.5 35.8672C54.6667 34.8069 55.2393 33.853 56.0965 33.2072C56.9538 32.5614 58.0286 32.2743 59.0938 32.4065C60.1589 32.2743 61.2337 32.5614 62.091 33.2072C62.9482 33.853 63.5208 34.8069 63.6875 35.8672" stroke="#26292F" stroke-width="5" stroke-linecap="round" stroke-linejoin="round"/>
<path d="M22.125 53.8438C20.9136 53.8438 19.7294 53.4845 18.7221 52.8115C17.7149 52.1385 16.9298 51.1819 16.4662 50.0627C16.0027 48.9435 15.8814 47.712 16.1177 46.5238C16.354 45.3357 16.9374 44.2443 17.794 43.3877C18.6506 42.5311 19.7419 41.9478 20.9301 41.7114C22.1182 41.4751 23.3497 41.5964 24.4689 42.06C25.5881 42.5236 26.5447 43.3086 27.2178 44.3159C27.8908 45.3231 28.25 46.5073 28.25 47.7188C28.25 49.3432 27.6047 50.9011 26.456 52.0498C25.3074 53.1984 23.7495 53.8438 22.125 53.8438Z" fill="#D894FF"/>
<path d="M74.499 53.844C73.2876 53.844 72.1034 53.4848 71.0962 52.8117C70.0889 52.1387 69.3039 51.1821 68.8403 50.0629C68.3767 48.9437 68.2554 47.7122 68.4917 46.5241C68.7281 45.3359 69.3114 44.2446 70.168 43.388C71.0246 42.5314 72.116 41.948 73.3041 41.7117C74.4922 41.4754 75.7238 41.5966 76.843 42.0602C77.9622 42.5238 78.9188 43.3089 79.5918 44.3161C80.2648 45.3234 80.624 46.5076 80.624 47.719C80.624 49.3434 79.9787 50.9014 78.8301 52.05C77.6814 53.1987 76.1235 53.844 74.499 53.844Z" fill="#D894FF"/>
</svg>
