<svg width="100" height="100" viewBox="0 0 100 100" fill="none" xmlns="http://www.w3.org/2000/svg">
<rect x="18.5625" y="28.7502" width="64.9688" height="64.9688" fill="#9A4FC5"/>
<rect x="12.3755" y="22.5625" width="64.9688" height="64.9688" fill="#25E1DE"/>
<rect x="15.4692" y="25.6562" width="64.9688" height="64.9688" fill="#FBFDFE"/>
<line x1="74.25" y1="36.5312" x2="86.625" y2="36.5312" stroke="#9A4FC5" stroke-width="3"/>
<line x1="74.25" y1="36.5312" x2="86.625" y2="36.5312" stroke="#9A4FC5" stroke-width="3"/>
<line x1="68.0625" y1="45.8127" x2="77.3438" y2="45.8127" stroke="#9A4FC5" stroke-width="3"/>
<line x1="68.0625" y1="45.8127" x2="77.3438" y2="45.8127" stroke="#9A4FC5" stroke-width="3"/>
<line x1="80.438" y1="52" x2="89.7192" y2="52" stroke="#9A4FC5" stroke-width="3"/>
<line x1="80.438" y1="52" x2="89.7192" y2="52" stroke="#9A4FC5" stroke-width="3"/>
<line x1="80.438" y1="58.1875" x2="99.0005" y2="58.1875" stroke="#9A4FC5" stroke-width="3"/>
<line x1="80.438" y1="58.1875" x2="99.0005" y2="58.1875" stroke="#9A4FC5" stroke-width="3"/>
<line x1="71.1562" y1="76.75" x2="86.625" y2="76.75" stroke="#9A4FC5" stroke-width="3"/>
<line x1="71.1562" y1="76.75" x2="86.625" y2="76.75" stroke="#9A4FC5" stroke-width="3"/>
<line x1="61.875" y1="82.9375" x2="74.25" y2="82.9375" stroke="#9A4FC5" stroke-width="3"/>
<line x1="61.875" y1="82.9375" x2="74.25" y2="82.9375" stroke="#9A4FC5" stroke-width="3"/>
<line x1="37.125" y1="30.2502" x2="6.1875" y2="30.2502" stroke="#25E1DE" stroke-width="3"/>
<line x1="37.125" y1="30.2502" x2="6.1875" y2="30.2502" stroke="#25E1DE" stroke-width="3"/>
<line x1="18.5625" y1="55" x2="3.09375" y2="55" stroke="#25E1DE" stroke-width="3"/>
<line x1="18.5625" y1="55" x2="3.09375" y2="55" stroke="#25E1DE" stroke-width="3"/>
<line x1="18.5625" y1="48.8127" y2="48.8127" stroke="#25E1DE" stroke-width="3"/>
<line x1="18.5625" y1="48.8127" y2="48.8127" stroke="#25E1DE" stroke-width="3"/>
<line x1="21.6562" y1="79.75" x2="6.1875" y2="79.75" stroke="#25E1DE" stroke-width="3"/>
<line x1="21.6562" y1="79.75" x2="6.1875" y2="79.75" stroke="#25E1DE" stroke-width="3"/>
<path d="M58.8428 75.2934C58.25 75.2919 57.6701 75.12 57.1721 74.7984C53.9672 72.8254 50.2206 71.9158 46.4678 72.1996C42.7149 71.9158 38.9683 72.8254 35.7634 74.7984C35.4221 75.0198 35.0406 75.1718 34.6405 75.2458C34.2405 75.3198 33.8298 75.3142 33.432 75.2295C33.0341 75.1447 32.6568 74.9824 32.3216 74.7519C31.9864 74.5213 31.7 74.227 31.4785 73.8857C31.2571 73.5445 31.1051 73.1629 31.0311 72.7629C30.9572 72.3629 30.9627 71.9522 31.0475 71.5543C31.1322 71.1564 31.2945 70.7791 31.5251 70.4439C31.7556 70.1088 32.0499 69.8223 32.3912 69.6009C36.6018 66.9834 41.518 65.7301 46.4678 66.0121C51.4072 65.7365 56.3116 66.9896 60.5134 69.6009C61.0738 69.9629 61.5022 70.4963 61.7346 71.1216C61.9671 71.747 61.9912 72.4307 61.8033 73.0709C61.6155 73.711 61.2257 74.2733 60.6922 74.6738C60.1586 75.0743 59.5099 75.2917 58.8428 75.2934Z" fill="#26292F"/>
<path d="M30.9991 28.7399H30.5041C29.2932 28.5651 28.1368 28.1215 27.1197 27.4416C26.1026 26.7617 25.2505 25.8629 24.626 24.8109C23.1515 21.8442 22.6121 18.5 23.0791 15.2202C21.6928 16.5255 20.5838 18.0969 19.8183 19.8404C19.0529 21.5839 18.6467 23.4637 18.6241 25.3677C18.6979 26.1882 18.4428 27.0045 17.9148 27.6369C17.3869 28.2693 16.6293 28.6661 15.8088 28.7399C14.9883 28.8138 14.172 28.5586 13.5396 28.0307C12.9072 27.5027 12.5104 26.7451 12.4366 25.9246C11.3228 13.7043 25.6778 4.82523 26.2966 4.45398C26.8379 4.12314 27.4679 3.96671 28.1011 4.00591C28.7343 4.04511 29.3402 4.27804 29.8366 4.67313C30.3329 5.06821 30.6959 5.60636 30.8762 6.21464C31.0564 6.82291 31.0453 7.47191 30.8444 8.07367C29.4831 12.0646 28.3075 18.9018 29.9163 21.5624C30.0762 21.8482 30.3036 22.0906 30.5786 22.2685C30.8536 22.4465 31.1678 22.5545 31.4941 22.5834C32.2749 22.6934 32.9841 23.0975 33.477 23.7129C33.9699 24.3284 34.2092 25.1088 34.146 25.8948C34.0828 26.6807 33.7219 27.4129 33.137 27.9417C32.5521 28.4705 31.7874 28.756 30.9991 28.7399Z" fill="#25E1DE"/>
<path d="M77.4053 28.8872H77.096C76.6889 28.8485 76.2936 28.7296 75.9328 28.5372C75.572 28.3448 75.2529 28.0828 74.994 27.7664C74.7351 27.4499 74.5415 27.0853 74.4243 26.6935C74.3072 26.3018 74.2689 25.8907 74.3116 25.4841C74.1421 21.8062 72.5568 18.3364 69.8875 15.8006C70.384 19.2561 69.6971 22.7779 67.9385 25.7934C67.2472 26.7845 66.3189 27.5868 65.2382 28.1272C64.1574 28.6676 62.9586 28.9289 61.751 28.8872C60.9305 28.8872 60.1436 28.5612 59.5634 27.9811C58.9832 27.4009 58.6572 26.614 58.6572 25.7934C58.6572 24.9729 58.9832 24.186 59.5634 23.6058C60.1436 23.0256 60.9305 22.6997 61.751 22.6997C61.954 22.7383 62.1638 22.7181 62.3557 22.6414C62.5475 22.5646 62.7134 22.4346 62.8338 22.2666C64.5044 20.0081 63.2979 12.5213 61.9366 8.15907C61.7032 7.52281 61.6853 6.82753 61.8854 6.18006C62.0855 5.53259 62.4928 4.96875 63.0445 4.57518C63.5962 4.18161 64.2618 3.98008 64.9392 4.00155C65.6166 4.02303 66.2681 4.26633 66.7938 4.69407C68.3097 5.74594 81.551 15.3366 80.4991 26.1028C80.4221 26.8686 80.0625 27.5782 79.4905 28.093C78.9184 28.6079 78.175 28.891 77.4053 28.8872Z" fill="#9A4FC5"/>
<path d="M37.1861 50.5438C36.7789 50.5462 36.3753 50.4681 35.9984 50.3142C35.6214 50.1602 35.2786 49.9334 34.9895 49.6466L28.802 43.4591C28.2952 42.8673 28.0303 42.106 28.0604 41.3274C28.0905 40.5487 28.4133 39.8101 28.9642 39.2592C29.5152 38.7082 30.2538 38.3854 31.0324 38.3553C31.8111 38.3253 32.5724 38.5901 33.1642 39.0969L39.3517 45.2844C39.7757 45.7169 40.0634 46.2642 40.1793 46.8586C40.2951 47.453 40.2339 48.0683 40.0033 48.6283C39.7728 49.1883 39.3829 49.6683 38.8821 50.0088C38.3813 50.3493 37.7916 50.5353 37.1861 50.5438Z" fill="#26292F"/>
<path d="M55.749 50.5437C55.1345 50.5473 54.5328 50.3678 54.0207 50.0281C53.5087 49.6884 53.1094 49.2039 52.8737 48.6364C52.6381 48.0689 52.5768 47.444 52.6976 46.8415C52.8185 46.239 53.1161 45.6862 53.5524 45.2534L59.7399 39.0659C60.3317 38.5591 61.093 38.2943 61.8716 38.3243C62.6503 38.3544 63.3889 38.6772 63.9399 39.2282C64.4908 39.7791 64.8136 40.5177 64.8437 41.2964C64.8738 42.075 64.6089 42.8363 64.1021 43.4281L57.9146 49.6156C57.3434 50.1985 56.565 50.5321 55.749 50.5437Z" fill="#26292F"/>
<path d="M34.0928 56.7312C32.869 56.7312 31.6727 56.3683 30.6552 55.6884C29.6377 55.0085 28.8446 54.0422 28.3763 52.9116C27.908 51.7809 27.7854 50.5368 28.0242 49.3366C28.2629 48.1363 28.8522 47.0338 29.7176 46.1685C30.5829 45.3031 31.6854 44.7138 32.8857 44.4751C34.0859 44.2363 35.33 44.3589 36.4606 44.8272C37.5912 45.2955 38.5576 46.0886 39.2375 47.1061C39.9174 48.1236 40.2803 49.3199 40.2803 50.5437C40.2803 52.1847 39.6284 53.7585 38.468 54.9189C37.3076 56.0793 35.7338 56.7312 34.0928 56.7312Z" fill="#26292F"/>
<path d="M58.8428 56.7312C57.619 56.7312 56.4227 56.3683 55.4052 55.6884C54.3877 55.0085 53.5946 54.0422 53.1263 52.9116C52.658 51.7809 52.5354 50.5368 52.7742 49.3366C53.0129 48.1363 53.6022 47.0338 54.4676 46.1685C55.3329 45.3031 56.4354 44.7138 57.6357 44.4751C58.8359 44.2363 60.08 44.3589 61.2106 44.8272C62.3413 45.2955 63.3076 46.0886 63.9875 47.1061C64.6674 48.1236 65.0303 49.3199 65.0303 50.5437C65.0303 52.1847 64.3784 53.7585 63.218 54.9189C62.0576 56.0793 60.4838 56.7312 58.8428 56.7312Z" fill="#26292F"/>
</svg>
