<svg width="100" height="100" viewBox="0 0 100 100" fill="none" xmlns="http://www.w3.org/2000/svg">
<path d="M50.3101 90.1618C48.1919 90.1529 46.1621 89.3119 44.6582 87.8203L20.4358 63.5979C9.69717 52.5363 2.99564 33.9658 11.312 21.2086C13.5783 17.6251 16.6792 14.6441 20.3492 12.5208C24.0193 10.3975 28.1492 9.19515 32.3855 9.01668C38.818 8.79659 45.1357 10.7602 50.3101 14.5878C55.4874 10.7659 61.803 8.80296 68.2347 9.01668C72.4775 9.17348 76.6189 10.3574 80.3034 12.4669C83.988 14.5764 87.1057 17.5484 89.3889 21.1279C97.4631 33.9658 90.923 52.4555 80.3459 63.4364L56.1235 87.6588C55.373 88.446 54.4712 89.0735 53.4723 89.5037C52.4733 89.9338 51.3977 90.1576 50.3101 90.1618ZM33.4351 25.165H33.0314C31.3948 25.2621 29.806 25.7534 28.4002 26.5969C26.9943 27.4404 25.8132 28.6111 24.9573 30.0094C21.6469 35.0962 26.0069 46.1577 32.0625 52.2941L50.4716 70.7031L68.8806 52.1326C74.8555 45.9155 79.2155 35.0962 75.9051 29.9287C75.0492 28.5304 73.8681 27.3596 72.4623 26.5161C71.0564 25.6726 69.4676 25.1814 67.831 25.0842C65.7069 25.1061 63.6169 25.6207 61.7255 26.5874C59.834 27.5541 58.1928 28.9467 56.9309 30.6554C56.1774 31.6429 55.2062 32.4433 54.0929 32.9942C52.9795 33.5451 51.7541 33.8317 50.512 33.8317C49.2698 33.8317 48.0444 33.5451 46.931 32.9942C45.8177 32.4433 44.8465 31.6429 44.093 30.6554C42.8603 28.9802 41.2568 27.613 39.4079 26.6605C37.5589 25.708 35.5147 25.1962 33.4351 25.165Z" fill="white"/>
<path d="M50.3089 32.0162C52.0891 29.3684 55.0359 22.0082 57.8519 20.5082C60.6679 19.0082 63.2666 17.2083 66.4572 17.2083C69.6478 17.2083 72.7894 17.9928 75.6054 19.4928C78.4214 20.9928 80.8253 23.1622 82.6055 25.81C88.8226 35.3375 82.1211 50.0324 74.5314 58.1065L50.3089 82.329L26.0865 58.1065C18.4968 50.0324 11.7953 35.3375 18.0124 25.81C19.7926 23.1622 22.1965 20.9928 25.0125 19.4928C27.8285 17.9928 30.9701 17.2083 34.1607 17.2083C37.3512 17.2083 39.8938 19.0082 42.7098 20.5082C45.5258 22.0082 48.5288 29.3684 50.3089 32.0162Z" fill="#7CF0F0"/>
</svg>
