<svg width="100" height="100" viewBox="0 0 100 100" fill="none" xmlns="http://www.w3.org/2000/svg">
<path d="M49.6448 90C47.5309 89.9911 45.5051 89.1519 44.0042 87.6632L19.8301 63.489C9.11287 52.4495 2.4247 33.916 10.7245 21.1843C12.9863 17.6079 16.081 14.6328 19.7437 12.5138C23.4065 10.3947 27.5282 9.19476 31.756 9.01664C38.1757 8.79699 44.4807 10.7567 49.6448 14.5767C54.8119 10.7624 61.1149 8.80335 67.5337 9.01664C71.768 9.17313 75.9012 10.3547 79.5784 12.46C83.2556 14.5653 86.3671 17.5314 88.6458 21.1037C96.7038 33.916 90.1768 52.3689 79.6208 63.3279L55.4466 87.502C54.6977 88.2877 53.7977 88.9139 52.8007 89.3432C51.8037 89.7725 50.7303 89.9959 49.6448 90ZM32.8035 25.1327H32.4006C30.7673 25.2297 29.1816 25.72 27.7786 26.5618C26.3756 27.4036 25.1968 28.572 24.3426 29.9676C21.0388 35.0441 25.3901 46.0837 31.4337 52.2078L49.806 70.5801L68.1783 52.0466C74.1413 45.8419 78.4926 35.0441 75.1889 29.887C74.3347 28.4915 73.1559 27.323 71.7528 26.4812C70.3498 25.6394 68.7641 25.1491 67.1308 25.0522C65.011 25.074 62.9251 25.5875 61.0375 26.5523C59.1498 27.5171 57.5118 28.9069 56.2524 30.6122C55.5004 31.5978 54.5312 32.3965 53.4201 32.9463C52.309 33.4961 51.086 33.7822 49.8463 33.7822C48.6066 33.7822 47.3836 33.4961 46.2725 32.9463C45.1614 32.3965 44.1922 31.5978 43.4401 30.6122C42.2099 28.9404 40.6096 27.5759 38.7643 26.6253C36.9191 25.6747 34.879 25.1639 32.8035 25.1327Z" fill="#B1B1B1"/>
<path d="M49.644 31.9701C51.4206 29.3276 54.3615 21.982 57.1719 20.485C59.9823 18.988 62.5759 17.1917 65.7601 17.1917C68.9443 17.1917 72.0796 17.9746 74.89 19.4716C77.7004 20.9686 80.0995 23.1337 81.8762 25.7762C88.0809 35.2847 81.3927 49.9504 73.8181 58.0084L49.644 82.1826L25.4698 58.0084C17.8953 49.9504 11.2071 35.2847 17.4118 25.7762C19.1884 23.1337 21.5876 20.9686 24.3979 19.4716C27.2083 17.9746 30.3437 17.1917 33.5279 17.1917C36.7121 17.1917 39.2496 18.988 42.06 20.485C44.8703 21.982 47.8674 29.3276 49.644 31.9701Z" fill="#787878"/>
</svg>
