<svg width="101" height="100" viewBox="0 0 101 100" fill="none" xmlns="http://www.w3.org/2000/svg">
<rect x="18.5215" y="20.1738" width="64.8263" height="64.8263" fill="#9A4FC5"/>
<rect x="12.3481" y="14" width="64.8263" height="64.8263" fill="#25E1DE"/>
<rect x="15.4351" y="17.0869" width="64.8263" height="64.8263" fill="#FBFDFE"/>
<line x1="74.0879" y1="27.9348" x2="86.4358" y2="27.9348" stroke="#9A4FC5" stroke-width="3"/>
<line x1="74.0879" y1="27.9348" x2="86.4358" y2="27.9348" stroke="#9A4FC5" stroke-width="3"/>
<line x1="67.9136" y1="37.1958" x2="77.1745" y2="37.1958" stroke="#9A4FC5" stroke-width="3"/>
<line x1="67.9136" y1="37.1958" x2="77.1745" y2="37.1958" stroke="#9A4FC5" stroke-width="3"/>
<line x1="80.2617" y1="43.3696" x2="89.5226" y2="43.3696" stroke="#9A4FC5" stroke-width="3"/>
<line x1="80.2617" y1="43.3696" x2="89.5226" y2="43.3696" stroke="#9A4FC5" stroke-width="3"/>
<line x1="80.2617" y1="49.5435" x2="98.7835" y2="49.5435" stroke="#9A4FC5" stroke-width="3"/>
<line x1="80.2617" y1="49.5435" x2="98.7835" y2="49.5435" stroke="#9A4FC5" stroke-width="3"/>
<line x1="71.0005" y1="68.0652" x2="86.4353" y2="68.0652" stroke="#9A4FC5" stroke-width="3"/>
<line x1="71.0005" y1="68.0652" x2="86.4353" y2="68.0652" stroke="#9A4FC5" stroke-width="3"/>
<line x1="61.7402" y1="74.2393" x2="74.0881" y2="74.2393" stroke="#9A4FC5" stroke-width="3"/>
<line x1="61.7402" y1="74.2393" x2="74.0881" y2="74.2393" stroke="#9A4FC5" stroke-width="3"/>
<line x1="37.0444" y1="21.6736" x2="6.17479" y2="21.6736" stroke="#25E1DE" stroke-width="3"/>
<line x1="37.0444" y1="21.6736" x2="6.17479" y2="21.6736" stroke="#25E1DE" stroke-width="3"/>
<line x1="18.5215" y1="46.3696" x2="3.08666" y2="46.3696" stroke="#25E1DE" stroke-width="3"/>
<line x1="18.5215" y1="46.3696" x2="3.08666" y2="46.3696" stroke="#25E1DE" stroke-width="3"/>
<line x1="18.5215" y1="40.1956" x2="-0.000307083" y2="40.1956" stroke="#25E1DE" stroke-width="3"/>
<line x1="18.5215" y1="40.1956" x2="-0.000307083" y2="40.1956" stroke="#25E1DE" stroke-width="3"/>
<line x1="21.6094" y1="71.0649" x2="6.17455" y2="71.0649" stroke="#25E1DE" stroke-width="3"/>
<line x1="21.6094" y1="71.0649" x2="6.17455" y2="71.0649" stroke="#25E1DE" stroke-width="3"/>
<path d="M30.8701 39.1287C31.0382 38.0599 31.6153 37.0984 32.4794 36.4475C33.3435 35.7965 34.4269 35.5071 35.5006 35.6404C36.5742 35.5071 37.6576 35.7965 38.5217 36.4475C39.3859 37.0984 39.963 38.0599 40.131 39.1287" fill="#26292F"/>
<path d="M30.8701 39.1287C31.0382 38.0599 31.6153 37.0984 32.4794 36.4475C33.3435 35.7965 34.4269 35.5071 35.5006 35.6404C36.5742 35.5071 37.6576 35.7965 38.5217 36.4475C39.3859 37.0984 39.963 38.0599 40.131 39.1287" stroke="#26292F" stroke-width="5" stroke-linecap="round" stroke-linejoin="round"/>
<path d="M52.479 39.1287C52.6471 38.0599 53.2242 37.0984 54.0883 36.4475C54.9524 35.7965 56.0358 35.5071 57.1095 35.6404C58.1831 35.5071 59.2665 35.7965 60.1306 36.4475C60.9947 37.0984 61.5718 38.0599 61.7399 39.1287" fill="#26292F"/>
<path d="M52.479 39.1287C52.6471 38.0599 53.2242 37.0984 54.0883 36.4475C54.9524 35.7965 56.0358 35.5071 57.1095 35.6404C58.1831 35.5071 59.2665 35.7965 60.1306 36.4475C60.9947 37.0984 61.5718 38.0599 61.7399 39.1287" stroke="#26292F" stroke-width="5" stroke-linecap="round" stroke-linejoin="round"/>
<path d="M60.1964 47.9881C58.5223 47.9925 56.8958 48.5455 55.5659 49.5624C54.2406 48.5361 52.6118 47.9792 50.9355 47.9792C49.2592 47.9792 47.6304 48.5361 46.305 49.5624C44.9797 48.5361 43.3509 47.9792 41.6746 47.9792C39.9983 47.9792 38.3695 48.5361 37.0441 49.5624C35.7143 48.5455 34.0878 47.9925 32.4137 47.9881C30.3669 47.9881 28.404 48.8012 26.9567 50.2485C25.5094 51.6958 24.6963 53.6587 24.6963 55.7055V61.8794C24.6963 63.9262 25.5094 65.8892 26.9567 67.3365C28.404 68.7838 30.3669 69.5968 32.4137 69.5968C34.0878 69.5925 35.7143 69.0394 37.0441 68.0225C38.3695 69.0488 39.9983 69.6057 41.6746 69.6057C43.3509 69.6057 44.9797 69.0488 46.305 68.0225C47.6304 69.0488 49.2592 69.6057 50.9355 69.6057C52.6118 69.6057 54.2406 69.0488 55.5659 68.0225C56.8958 69.0394 58.5223 69.5925 60.1964 69.5968C62.2432 69.5968 64.2061 68.7838 65.6534 67.3365C67.1007 65.8892 67.9138 63.9262 67.9138 61.8794V55.7055C67.9138 53.6587 67.1007 51.6958 65.6534 50.2485C64.2061 48.8012 62.2432 47.9881 60.1964 47.9881ZM32.4137 63.4229C32.0068 63.415 31.6188 63.2499 31.331 62.9621C31.0433 62.6743 30.8781 62.2863 30.8702 61.8794V55.7055C30.8702 55.2961 31.0328 54.9035 31.3223 54.6141C31.6118 54.3246 32.0043 54.162 32.4137 54.162C32.8231 54.162 33.2157 54.3246 33.5051 54.6141C33.7946 54.9035 33.9572 55.2961 33.9572 55.7055V61.8794C33.9493 62.2863 33.7841 62.6743 33.4964 62.9621C33.2086 63.2499 32.8206 63.415 32.4137 63.4229ZM41.6746 63.4229C41.2677 63.415 40.8797 63.2499 40.5919 62.9621C40.3042 62.6743 40.139 62.2863 40.1311 61.8794V55.7055C40.1311 55.2961 40.2937 54.9035 40.5832 54.6141C40.8726 54.3246 41.2652 54.162 41.6746 54.162C42.084 54.162 42.4765 54.3246 42.766 54.6141C43.0555 54.9035 43.2181 55.2961 43.2181 55.7055V61.8794C43.2102 62.2863 43.045 62.6743 42.7573 62.9621C42.4695 63.2499 42.0815 63.415 41.6746 63.4229ZM50.9355 63.4229C50.5286 63.415 50.1406 63.2499 49.8528 62.9621C49.5651 62.6743 49.3999 62.2863 49.392 61.8794V55.7055C49.392 55.2961 49.5546 54.9035 49.8441 54.6141C50.1335 54.3246 50.5261 54.162 50.9355 54.162C51.3448 54.162 51.7374 54.3246 52.0269 54.6141C52.3164 54.9035 52.479 55.2961 52.479 55.7055V61.8794C52.4711 62.2863 52.3059 62.6743 52.0182 62.9621C51.7304 63.2499 51.3424 63.415 50.9355 63.4229ZM61.7399 61.8794C61.7399 62.2888 61.5773 62.6814 61.2878 62.9708C60.9983 63.2603 60.6057 63.4229 60.1964 63.4229C59.787 63.4229 59.3944 63.2603 59.105 62.9708C58.8155 62.6814 58.6529 62.2888 58.6529 61.8794V55.7055C58.6529 55.2961 58.8155 54.9035 59.105 54.6141C59.3944 54.3246 59.787 54.162 60.1964 54.162C60.6057 54.162 60.9983 54.3246 61.2878 54.6141C61.5773 54.9035 61.7399 55.2961 61.7399 55.7055V61.8794Z" fill="#26292F"/>
</svg>
