<svg width="101" height="100" viewBox="0 0 101 100" fill="none" xmlns="http://www.w3.org/2000/svg">
<rect x="19.7393" y="20.1741" width="64.8261" height="64.8261" fill="#9A4FC5"/>
<rect x="13.5659" y="14" width="64.8261" height="64.8261" fill="#25E1DE"/>
<rect x="16.6528" y="17.0872" width="64.8261" height="64.8261" fill="#FBFDFE"/>
<line x1="75.3042" y1="27.9348" x2="87.652" y2="27.9348" stroke="#9A4FC5" stroke-width="3"/>
<line x1="75.3042" y1="27.9348" x2="87.652" y2="27.9348" stroke="#9A4FC5" stroke-width="3"/>
<line x1="69.1304" y1="37.1958" x2="78.3912" y2="37.1958" stroke="#9A4FC5" stroke-width="3"/>
<line x1="69.1304" y1="37.1958" x2="78.3912" y2="37.1958" stroke="#9A4FC5" stroke-width="3"/>
<line x1="81.478" y1="43.3696" x2="90.7389" y2="43.3696" stroke="#9A4FC5" stroke-width="3"/>
<line x1="81.478" y1="43.3696" x2="90.7389" y2="43.3696" stroke="#9A4FC5" stroke-width="3"/>
<line x1="81.478" y1="49.5435" x2="99.9998" y2="49.5435" stroke="#9A4FC5" stroke-width="3"/>
<line x1="81.478" y1="49.5435" x2="99.9998" y2="49.5435" stroke="#9A4FC5" stroke-width="3"/>
<line x1="72.2173" y1="68.0652" x2="87.6521" y2="68.0652" stroke="#9A4FC5" stroke-width="3"/>
<line x1="72.2173" y1="68.0652" x2="87.6521" y2="68.0652" stroke="#9A4FC5" stroke-width="3"/>
<line x1="62.9565" y1="74.2393" x2="75.3044" y2="74.2393" stroke="#9A4FC5" stroke-width="3"/>
<line x1="62.9565" y1="74.2393" x2="75.3044" y2="74.2393" stroke="#9A4FC5" stroke-width="3"/>
<line x1="38.2607" y1="21.6741" x2="7.39118" y2="21.6741" stroke="#25E1DE" stroke-width="3"/>
<line x1="38.2607" y1="21.6741" x2="7.39118" y2="21.6741" stroke="#25E1DE" stroke-width="3"/>
<line x1="19.7393" y1="46.3696" x2="4.30447" y2="46.3696" stroke="#25E1DE" stroke-width="3"/>
<line x1="19.7393" y1="46.3696" x2="4.30447" y2="46.3696" stroke="#25E1DE" stroke-width="3"/>
<line x1="19.7393" y1="40.1958" x2="1.21752" y2="40.1958" stroke="#25E1DE" stroke-width="3"/>
<line x1="19.7393" y1="40.1958" x2="1.21752" y2="40.1958" stroke="#25E1DE" stroke-width="3"/>
<line x1="22.8262" y1="71.0652" x2="7.39139" y2="71.0652" stroke="#25E1DE" stroke-width="3"/>
<line x1="22.8262" y1="71.0652" x2="7.39139" y2="71.0652" stroke="#25E1DE" stroke-width="3"/>
<path d="M48.9096 69.9393C42.4347 69.6816 36.2447 67.2078 31.3757 62.9319C30.7739 62.3752 30.418 61.6023 30.3861 60.7831C30.3543 59.9639 30.6492 59.1657 31.2059 58.5639C31.7626 57.9621 32.5356 57.6062 33.3547 57.5744C34.1739 57.5425 34.9722 57.8374 35.5739 58.3941C39.3026 61.6105 43.9926 63.4995 48.9096 63.7654C53.8318 63.4812 58.5259 61.5948 62.2761 58.3941C62.5761 58.1205 62.927 57.9086 63.3089 57.7706C63.6908 57.6326 64.0961 57.5712 64.5017 57.5898C64.9073 57.6084 65.3053 57.7068 65.6729 57.8792C66.0405 58.0516 66.3705 58.2948 66.6441 58.5948C66.9178 58.8948 67.1296 59.2457 67.2677 59.6276C67.4057 60.0094 67.4671 60.4147 67.4485 60.8203C67.4298 61.226 67.3315 61.6239 67.1591 61.9915C66.9866 62.3591 66.7435 62.6892 66.4435 62.9628C61.5558 67.204 55.3749 69.6633 48.9096 69.9393Z" fill="#26292F"/>
<path d="M76.6923 32.8958C76.6923 32.0771 76.3671 31.2919 75.7882 30.713C75.2092 30.1341 74.4241 29.8088 73.6053 29.8088H64.3445C58.9114 29.8088 55.2688 31.2288 53.4475 33.9454C52.0397 33.2557 50.4928 32.8971 48.9251 32.8971C47.3575 32.8971 45.8105 33.2557 44.4027 33.9454C42.5506 31.2288 38.9079 29.8088 33.4749 29.8088H24.214C23.3953 29.8088 22.6101 30.1341 22.0312 30.713C21.4523 31.2919 21.1271 32.0771 21.1271 32.8958C21.1375 33.665 21.4347 34.4026 21.9606 34.9641C21.3877 36.2558 21.1033 37.6569 21.1271 39.0697C20.947 42.3446 22.0751 45.5568 24.2635 47.9998C26.4518 50.4429 29.5209 51.9165 32.7958 52.0967C36.0706 52.2768 39.2829 51.1486 41.7259 48.9603C44.1689 46.772 45.6426 43.7028 45.8227 40.428C46.2426 39.9977 46.7443 39.6557 47.2983 39.4222C47.8523 39.1887 48.4474 39.0685 49.0486 39.0685C49.6498 39.0685 50.2449 39.1887 50.7989 39.4222C51.3529 39.6557 51.8546 39.9977 52.2745 40.428C52.8517 43.3488 54.4649 45.9626 56.8168 47.7882C59.1687 49.6138 62.1011 50.528 65.0738 50.3627C68.0465 50.1973 70.8593 48.9635 72.9943 46.8883C75.1293 44.8132 76.4426 42.0365 76.6923 39.0697C76.7161 37.6569 76.4317 36.2558 75.8588 34.9641C76.3846 34.4026 76.6819 33.665 76.6923 32.8958Z" fill="#26292F"/>
</svg>
