<svg width="101" height="100" viewBox="0 0 101 100" fill="none" xmlns="http://www.w3.org/2000/svg">
<rect x="20" y="21.0002" width="63" height="63" fill="#9A4FC5"/>
<rect x="14" y="15" width="63" height="63" fill="#25E1DE"/>
<rect x="17" y="18.0002" width="63" height="63" fill="#FBFDFE"/>
<line x1="74" y1="28.5" x2="86" y2="28.5" stroke="#9A4FC5" stroke-width="3"/>
<line x1="74" y1="28.5" x2="86" y2="28.5" stroke="#9A4FC5" stroke-width="3"/>
<line x1="68" y1="37.5002" x2="77" y2="37.5002" stroke="#9A4FC5" stroke-width="3"/>
<line x1="68" y1="37.5002" x2="77" y2="37.5002" stroke="#9A4FC5" stroke-width="3"/>
<line x1="80" y1="43.5" x2="89" y2="43.5" stroke="#9A4FC5" stroke-width="3"/>
<line x1="80" y1="43.5" x2="89" y2="43.5" stroke="#9A4FC5" stroke-width="3"/>
<line x1="80" y1="49.5" x2="98" y2="49.5" stroke="#9A4FC5" stroke-width="3"/>
<line x1="80" y1="49.5" x2="98" y2="49.5" stroke="#9A4FC5" stroke-width="3"/>
<line x1="71" y1="67.5" x2="86" y2="67.5" stroke="#9A4FC5" stroke-width="3"/>
<line x1="71" y1="67.5" x2="86" y2="67.5" stroke="#9A4FC5" stroke-width="3"/>
<line x1="62" y1="73.5002" x2="74" y2="73.5002" stroke="#9A4FC5" stroke-width="3"/>
<line x1="62" y1="73.5002" x2="74" y2="73.5002" stroke="#9A4FC5" stroke-width="3"/>
<line x1="38" y1="22.5002" x2="8" y2="22.5002" stroke="#25E1DE" stroke-width="3"/>
<line x1="38" y1="22.5002" x2="8" y2="22.5002" stroke="#25E1DE" stroke-width="3"/>
<line x1="20" y1="46.5" x2="5" y2="46.5" stroke="#25E1DE" stroke-width="3"/>
<line x1="20" y1="46.5" x2="5" y2="46.5" stroke="#25E1DE" stroke-width="3"/>
<line x1="20" y1="40.5002" x2="2" y2="40.5002" stroke="#25E1DE" stroke-width="3"/>
<line x1="20" y1="40.5002" x2="2" y2="40.5002" stroke="#25E1DE" stroke-width="3"/>
<line x1="22.9995" y1="70.5" x2="7.99951" y2="70.5" stroke="#25E1DE" stroke-width="3"/>
<line x1="22.9995" y1="70.5" x2="7.99951" y2="70.5" stroke="#25E1DE" stroke-width="3"/>
<path d="M62 60.0002H32C31.2044 60.0002 30.4413 59.6842 29.8787 59.1216C29.3161 58.559 29 57.7959 29 57.0002C29 56.2046 29.3161 55.4415 29.8787 54.8789C30.4413 54.3163 31.2044 54.0002 32 54.0002H62C62.7957 54.0002 63.5587 54.3163 64.1213 54.8789C64.6839 55.4415 65 56.2046 65 57.0002C65 57.7959 64.6839 58.559 64.1213 59.1216C63.5587 59.6842 62.7957 60.0002 62 60.0002Z" fill="#26292F"/>
<path d="M41 39H32C31.2044 39 30.4413 38.6839 29.8787 38.1213C29.3161 37.5587 29 36.7956 29 36C29 35.2044 29.3161 34.4413 29.8787 33.8787C30.4413 33.3161 31.2044 33 32 33H41C41.7956 33 42.5587 33.3161 43.1213 33.8787C43.6839 34.4413 44 35.2044 44 36C44 36.7956 43.6839 37.5587 43.1213 38.1213C42.5587 38.6839 41.7956 39 41 39Z" fill="#26292F"/>
<path d="M62 39H53C52.2044 39 51.4413 38.6839 50.8787 38.1213C50.3161 37.5587 50 36.7956 50 36C50 35.2044 50.3161 34.4413 50.8787 33.8787C51.4413 33.3161 52.2044 33 53 33H62C62.7956 33 63.5587 33.3161 64.1213 33.8787C64.6839 34.4413 65 35.2044 65 36C65 36.7956 64.6839 37.5587 64.1213 38.1213C63.5587 38.6839 62.7956 39 62 39Z" fill="#26292F"/>
</svg>
