<svg width="101" height="100" viewBox="0 0 101 100" fill="none" xmlns="http://www.w3.org/2000/svg">
<rect x="19.5625" y="20.375" width="64.9688" height="64.9688" fill="#9A4FC5"/>
<rect x="13.3755" y="14.1875" width="64.9688" height="64.9688" fill="#25E1DE"/>
<rect x="16.4692" y="17.2815" width="64.9688" height="64.9688" fill="#FBFDFE"/>
<line x1="75.25" y1="28.1562" x2="87.625" y2="28.1562" stroke="#9A4FC5" stroke-width="3"/>
<line x1="75.25" y1="28.1562" x2="87.625" y2="28.1562" stroke="#9A4FC5" stroke-width="3"/>
<line x1="69.0625" y1="37.4375" x2="78.3438" y2="37.4375" stroke="#9A4FC5" stroke-width="3"/>
<line x1="69.0625" y1="37.4375" x2="78.3438" y2="37.4375" stroke="#9A4FC5" stroke-width="3"/>
<line x1="81.4375" y1="43.625" x2="90.7188" y2="43.625" stroke="#9A4FC5" stroke-width="3"/>
<line x1="81.4375" y1="43.625" x2="90.7188" y2="43.625" stroke="#9A4FC5" stroke-width="3"/>
<line x1="81.4375" y1="49.8125" x2="100" y2="49.8125" stroke="#9A4FC5" stroke-width="3"/>
<line x1="81.4375" y1="49.8125" x2="100" y2="49.8125" stroke="#9A4FC5" stroke-width="3"/>
<line x1="72.1562" y1="68.375" x2="87.625" y2="68.375" stroke="#9A4FC5" stroke-width="3"/>
<line x1="72.1562" y1="68.375" x2="87.625" y2="68.375" stroke="#9A4FC5" stroke-width="3"/>
<line x1="62.875" y1="74.5625" x2="75.25" y2="74.5625" stroke="#9A4FC5" stroke-width="3"/>
<line x1="62.875" y1="74.5625" x2="75.25" y2="74.5625" stroke="#9A4FC5" stroke-width="3"/>
<line x1="38.125" y1="21.875" x2="7.1875" y2="21.875" stroke="#25E1DE" stroke-width="3"/>
<line x1="38.125" y1="21.875" x2="7.1875" y2="21.875" stroke="#25E1DE" stroke-width="3"/>
<line x1="19.5625" y1="46.625" x2="4.09375" y2="46.625" stroke="#25E1DE" stroke-width="3"/>
<line x1="19.5625" y1="46.625" x2="4.09375" y2="46.625" stroke="#25E1DE" stroke-width="3"/>
<line x1="19.5625" y1="40.4375" x2="1" y2="40.4375" stroke="#25E1DE" stroke-width="3"/>
<line x1="19.5625" y1="40.4375" x2="1" y2="40.4375" stroke="#25E1DE" stroke-width="3"/>
<line x1="22.6562" y1="71.375" x2="7.1875" y2="71.375" stroke="#25E1DE" stroke-width="3"/>
<line x1="22.6562" y1="71.375" x2="7.1875" y2="71.375" stroke="#25E1DE" stroke-width="3"/>
<path d="M81.4375 35.843C78.976 35.843 76.6152 34.8651 74.8747 33.1246C73.1341 31.384 72.1563 29.0233 72.1562 26.5617C72.1562 19.8483 78.1581 10.4433 78.8387 9.39141C79.1205 8.9638 79.5041 8.61282 79.9549 8.36998C80.4058 8.12713 80.9099 8 81.422 8C81.9341 8 82.4382 8.12713 82.8891 8.36998C83.34 8.61282 83.7235 8.9638 84.0053 9.39141C84.7169 10.4433 90.7188 19.8483 90.7188 26.5617C90.7188 29.0233 89.7409 31.384 88.0003 33.1246C86.2598 34.8651 83.899 35.843 81.4375 35.843ZM81.4375 17.2805C79.785 20.1313 78.7322 23.2896 78.3438 26.5617C78.3438 27.3822 78.6697 28.1691 79.2499 28.7493C79.8301 29.3295 80.617 29.6555 81.4375 29.6555C82.258 29.6555 83.0449 29.3295 83.6251 28.7493C84.2053 28.1691 84.5312 27.3822 84.5312 26.5617C84.1428 23.2896 83.09 20.1313 81.4375 17.2805Z" fill="#25E1DE"/>
<path d="M81.4375 11.093C81.4375 11.093 87.625 20.5599 87.625 26.5618C87.625 28.2028 86.9731 29.7766 85.8127 30.937C84.6523 32.0974 83.0785 32.7493 81.4375 32.7493C79.7965 32.7493 78.2227 32.0974 77.0623 30.937C75.9019 29.7766 75.25 28.2028 75.25 26.5618C75.25 20.5599 81.4375 11.093 81.4375 11.093Z" fill="#C7E7F5"/>
<path d="M62.875 60.593H31.9375C31.117 60.593 30.3301 60.2671 29.7499 59.6869C29.1697 59.1067 28.8438 58.3198 28.8438 57.4993C28.8438 56.6788 29.1697 55.8918 29.7499 55.3117C30.3301 54.7315 31.117 54.4055 31.9375 54.4055H62.875C63.6955 54.4055 64.4824 54.7315 65.0626 55.3117C65.6428 55.8918 65.9688 56.6788 65.9688 57.4993C65.9688 58.3198 65.6428 59.1067 65.0626 59.6869C64.4824 60.2671 63.6955 60.593 62.875 60.593Z" fill="#26292F"/>
<path d="M31.9375 38.9368L38.125 35.843" stroke="#26292F" stroke-width="5" stroke-linecap="round" stroke-linejoin="round"/>
<path d="M56.6875 35.843L62.875 38.9368" stroke="#26292F" stroke-width="5" stroke-linecap="round" stroke-linejoin="round"/>
</svg>
