<svg width="100" height="100" viewBox="0 0 100 100" fill="none" xmlns="http://www.w3.org/2000/svg">
<rect x="19.6294" y="20.0869" width="63.9131" height="63.9131" fill="#9A4FC5"/>
<rect x="13.542" y="14" width="63.9131" height="63.9131" fill="#25E1DE"/>
<rect x="16.5859" y="17.0435" width="63.9131" height="63.9131" fill="#FBFDFE"/>
<line x1="74.4116" y1="27.7175" x2="86.5855" y2="27.7175" stroke="#9A4FC5" stroke-width="3"/>
<line x1="74.4116" y1="27.7175" x2="86.5855" y2="27.7175" stroke="#9A4FC5" stroke-width="3"/>
<line x1="68.3247" y1="36.8479" x2="77.4551" y2="36.8479" stroke="#9A4FC5" stroke-width="3"/>
<line x1="68.3247" y1="36.8479" x2="77.4551" y2="36.8479" stroke="#9A4FC5" stroke-width="3"/>
<line x1="80.4985" y1="42.9348" x2="89.629" y2="42.9348" stroke="#9A4FC5" stroke-width="3"/>
<line x1="80.4985" y1="42.9348" x2="89.629" y2="42.9348" stroke="#9A4FC5" stroke-width="3"/>
<line x1="80.4985" y1="49.0217" x2="98.7594" y2="49.0217" stroke="#9A4FC5" stroke-width="3"/>
<line x1="80.4985" y1="49.0217" x2="98.7594" y2="49.0217" stroke="#9A4FC5" stroke-width="3"/>
<line x1="71.3682" y1="67.2825" x2="86.5856" y2="67.2825" stroke="#9A4FC5" stroke-width="3"/>
<line x1="71.3682" y1="67.2825" x2="86.5856" y2="67.2825" stroke="#9A4FC5" stroke-width="3"/>
<line x1="62.2378" y1="73.3699" x2="74.4117" y2="73.3699" stroke="#9A4FC5" stroke-width="3"/>
<line x1="62.2378" y1="73.3699" x2="74.4117" y2="73.3699" stroke="#9A4FC5" stroke-width="3"/>
<line x1="37.8896" y1="21.5869" x2="7.45487" y2="21.5869" stroke="#25E1DE" stroke-width="3"/>
<line x1="37.8896" y1="21.5869" x2="7.45487" y2="21.5869" stroke="#25E1DE" stroke-width="3"/>
<line x1="19.6294" y1="45.9348" x2="4.412" y2="45.9348" stroke="#25E1DE" stroke-width="3"/>
<line x1="19.6294" y1="45.9348" x2="4.412" y2="45.9348" stroke="#25E1DE" stroke-width="3"/>
<line x1="19.6294" y1="39.8479" x2="1.36852" y2="39.8479" stroke="#25E1DE" stroke-width="3"/>
<line x1="19.6294" y1="39.8479" x2="1.36852" y2="39.8479" stroke="#25E1DE" stroke-width="3"/>
<line x1="22.6729" y1="70.2825" x2="7.45546" y2="70.2825" stroke="#25E1DE" stroke-width="3"/>
<line x1="22.6729" y1="70.2825" x2="7.45546" y2="70.2825" stroke="#25E1DE" stroke-width="3"/>
<path d="M38.2082 39.9161C37.6036 39.9196 37.0118 39.743 36.508 39.4088C36.0043 39.0746 35.6114 38.598 35.3796 38.0397C35.1478 37.4814 35.0875 36.8667 35.2064 36.274C35.3253 35.6813 35.6181 35.1374 36.0473 34.7117C36.6204 34.1386 37.3977 33.8167 38.2082 33.8167C39.0186 33.8167 39.7959 34.1386 40.369 34.7117C40.9421 35.2848 41.2641 36.0621 41.2641 36.8726C41.2641 37.6831 40.9421 38.4604 40.369 39.0335C39.7858 39.5896 39.014 39.9048 38.2082 39.9161Z" fill="#26292F"/>
<path d="M41.2507 36.8732C40.764 36.8751 40.2839 36.7603 39.8507 36.5384C39.8507 36.5384 34.4638 33.8906 30.7203 36.3558C30.3913 36.6329 30.0073 36.8371 29.5936 36.9549C29.1799 37.0728 28.7459 37.1016 28.3203 37.0394C27.8946 36.9773 27.487 36.8257 27.1242 36.5945C26.7615 36.3634 26.4518 36.0579 26.2157 35.6984C25.9796 35.3388 25.8224 34.9333 25.7545 34.5085C25.6866 34.0838 25.7094 33.6494 25.8216 33.2342C25.9338 32.8189 26.1327 32.4321 26.4053 32.0994C26.6779 31.7666 27.0179 31.4954 27.4029 31.3036C34.129 26.7993 42.316 30.9688 42.6203 31.121C43.2269 31.4317 43.7116 31.937 43.9968 32.556C44.282 33.1749 44.3513 33.8717 44.1934 34.5347C44.0356 35.1976 43.6598 35.7885 43.1262 36.2125C42.5927 36.6365 41.9322 36.8691 41.2507 36.8732Z" fill="#26292F"/>
<path d="M62.5553 39.9161C61.9508 39.9196 61.359 39.743 60.8552 39.4088C60.3514 39.0746 59.9586 38.598 59.7268 38.0397C59.495 37.4814 59.4347 36.8667 59.5536 36.274C59.6725 35.6813 59.9652 35.1374 60.3945 34.7117C60.9676 34.1386 61.7448 33.8167 62.5553 33.8167C63.3658 33.8167 64.1431 34.1386 64.7162 34.7117C65.2893 35.2848 65.6113 36.0621 65.6113 36.8726C65.6113 37.6831 65.2893 38.4604 64.7162 39.0335C64.133 39.5896 63.3611 39.9048 62.5553 39.9161Z" fill="#26292F"/>
<path d="M65.5977 36.8732C65.111 36.8751 64.6309 36.7603 64.1977 36.5384C64.1977 36.5384 58.8107 33.8906 55.0672 36.3558C54.7365 36.6046 54.3584 36.7833 53.9562 36.881C53.554 36.9787 53.1362 36.9933 52.7281 36.924C52.3201 36.8547 51.9305 36.7029 51.5831 36.4778C51.2357 36.2528 50.9379 35.9593 50.7078 35.6152C50.4778 35.2712 50.3203 34.8838 50.2451 34.4768C50.1698 34.0698 50.1784 33.6518 50.2702 33.2482C50.362 32.8446 50.5352 32.464 50.7792 32.1297C51.0231 31.7953 51.3327 31.5142 51.689 31.3036C58.4151 26.7993 66.602 30.9688 66.9064 31.121C67.5088 31.4291 67.9914 31.9291 68.2778 32.5421C68.5643 33.1551 68.6383 33.8461 68.4882 34.5058C68.3381 35.1656 67.9724 35.7565 67.449 36.1853C66.9255 36.614 66.2741 36.856 65.5977 36.8732Z" fill="#26292F"/>
<path d="M52.877 61.8599C50.8293 61.8368 48.7895 61.6022 46.79 61.1599C44.3667 60.5865 42.0103 59.7602 39.7596 58.6947C36.4422 57.2643 35.1944 56.8382 33.8857 57.6904C33.5531 57.9454 33.1714 58.129 32.7645 58.2296C32.3577 58.3303 31.9344 58.3458 31.5213 58.2752C31.1081 58.2046 30.714 58.0495 30.3636 57.8195C30.0133 57.5895 29.7142 57.2897 29.4851 56.9387C29.256 56.5877 29.1019 56.1932 29.0324 55.7799C28.9629 55.3665 28.9795 54.9433 29.0812 54.5367C29.1829 54.1301 29.3675 53.7489 29.6233 53.417C29.8792 53.0851 30.2009 52.8096 30.5683 52.6077C34.7378 49.899 38.6944 51.6034 42.1944 53.1556C44.0764 54.0445 46.0447 54.738 48.0683 55.2251C53.6987 56.4425 57.3509 55.4686 58.7509 54.2817C59.062 54.0177 59.2966 53.6752 59.4304 53.2899C59.5642 52.9045 59.5923 52.4903 59.5118 52.0904C59.5118 51.2832 59.8324 50.5091 60.4032 49.9383C60.9739 49.3675 61.7481 49.0469 62.5552 49.0469C63.3624 49.0469 64.1365 49.3675 64.7073 49.9383C65.2781 50.5091 65.5987 51.2832 65.5987 52.0904C65.6705 53.4046 65.4325 54.7173 64.9038 55.9226C64.3752 57.1279 63.5707 58.1922 62.5552 59.0295C59.7557 61.0681 56.3338 62.0688 52.877 61.8599Z" fill="#26292F"/>
</svg>
