<svg width="100" height="100" viewBox="0 0 100 100" fill="none" xmlns="http://www.w3.org/2000/svg">
<rect x="18.75" y="20.25" width="65.625" height="65.625" fill="#9A4FC5"/>
<rect x="12.5005" y="14" width="65.625" height="65.625" fill="#25E1DE"/>
<rect x="15.6255" y="17.125" width="65.625" height="65.625" fill="#FBFDFE"/>
<line x1="75" y1="28.125" x2="87.5" y2="28.125" stroke="#9A4FC5" stroke-width="3"/>
<line x1="75" y1="28.125" x2="87.5" y2="28.125" stroke="#9A4FC5" stroke-width="3"/>
<line x1="68.75" y1="37.5" x2="78.125" y2="37.5" stroke="#9A4FC5" stroke-width="3"/>
<line x1="68.75" y1="37.5" x2="78.125" y2="37.5" stroke="#9A4FC5" stroke-width="3"/>
<line x1="81.25" y1="43.75" x2="90.625" y2="43.75" stroke="#9A4FC5" stroke-width="3"/>
<line x1="81.25" y1="43.75" x2="90.625" y2="43.75" stroke="#9A4FC5" stroke-width="3"/>
<line x1="81.25" y1="50" x2="100" y2="50" stroke="#9A4FC5" stroke-width="3"/>
<line x1="81.25" y1="50" x2="100" y2="50" stroke="#9A4FC5" stroke-width="3"/>
<line x1="71.875" y1="68.75" x2="87.5" y2="68.75" stroke="#9A4FC5" stroke-width="3"/>
<line x1="71.875" y1="68.75" x2="87.5" y2="68.75" stroke="#9A4FC5" stroke-width="3"/>
<line x1="62.5" y1="75" x2="75" y2="75" stroke="#9A4FC5" stroke-width="3"/>
<line x1="62.5" y1="75" x2="75" y2="75" stroke="#9A4FC5" stroke-width="3"/>
<line x1="37.5" y1="21.75" x2="6.25" y2="21.75" stroke="#25E1DE" stroke-width="3"/>
<line x1="37.5" y1="21.75" x2="6.25" y2="21.75" stroke="#25E1DE" stroke-width="3"/>
<line x1="18.75" y1="46.75" x2="3.125" y2="46.75" stroke="#25E1DE" stroke-width="3"/>
<line x1="18.75" y1="46.75" x2="3.125" y2="46.75" stroke="#25E1DE" stroke-width="3"/>
<line x1="18.75" y1="40.5" y2="40.5" stroke="#25E1DE" stroke-width="3"/>
<line x1="18.75" y1="40.5" y2="40.5" stroke="#25E1DE" stroke-width="3"/>
<line x1="21.875" y1="71.75" x2="6.25" y2="71.75" stroke="#25E1DE" stroke-width="3"/>
<line x1="21.875" y1="71.75" x2="6.25" y2="71.75" stroke="#25E1DE" stroke-width="3"/>
<path d="M37.5009 45.0952C37.0897 45.0976 36.682 45.0187 36.3012 44.8632C35.9205 44.7077 35.5742 44.4786 35.2822 44.1889L29.0322 37.9389C28.5202 37.3411 28.2527 36.5721 28.2831 35.7856C28.3135 34.9991 28.6395 34.2531 29.1961 33.6965C29.7526 33.14 30.4987 32.814 31.2851 32.7836C32.0716 32.7532 32.8406 33.0207 33.4384 33.5327L39.6884 39.7827C40.1167 40.2195 40.4073 40.7723 40.5243 41.3727C40.6413 41.9732 40.5796 42.5947 40.3467 43.1603C40.1138 43.726 39.72 44.2108 39.2141 44.5547C38.7083 44.8987 38.1126 45.0866 37.5009 45.0952Z" fill="#26292F"/>
<path d="M56.2501 45.0952C55.6294 45.0988 55.0217 44.9175 54.5044 44.5743C53.9872 44.2312 53.5838 43.7418 53.3458 43.1686C53.1078 42.5953 53.0459 41.9641 53.168 41.3555C53.2901 40.747 53.5906 40.1885 54.0314 39.7514L60.2814 33.5014C60.8792 32.9895 61.6482 32.722 62.4347 32.7523C63.2211 32.7827 63.9672 33.1087 64.5237 33.6653C65.0803 34.2218 65.4063 34.9679 65.4367 35.7544C65.4671 36.5409 65.1996 37.3099 64.6876 37.9077L58.4376 44.1577C57.8606 44.7465 57.0744 45.0834 56.2501 45.0952Z" fill="#26292F"/>
<path d="M59.3752 66.9698C58.7764 66.9683 58.1907 66.7947 57.6877 66.4698C54.4504 64.4769 50.666 63.5581 46.8752 63.8448C43.0844 63.5581 39.3 64.4769 36.0627 66.4698C35.718 66.6935 35.3326 66.847 34.9285 66.9217C34.5244 66.9965 34.1096 66.9909 33.7077 66.9053C33.3058 66.8197 32.9247 66.6557 32.5861 66.4228C32.2476 66.1899 31.9582 65.8927 31.7346 65.5479C31.5109 65.2032 31.3573 64.8178 31.2826 64.4137C31.2079 64.0097 31.2135 63.5948 31.2991 63.1929C31.3847 62.791 31.5487 62.4099 31.7815 62.0714C32.0144 61.7328 32.3117 61.4435 32.6564 61.2198C36.9096 58.5759 41.8754 57.3099 46.8752 57.5948C51.8645 57.3164 56.8184 58.5822 61.0627 61.2198C61.6288 61.5854 62.0615 62.1243 62.2963 62.7559C62.5311 63.3876 62.5554 64.0782 62.3657 64.7248C62.1759 65.3714 61.7822 65.9394 61.2433 66.344C60.7043 66.7485 60.0491 66.9681 59.3752 66.9698Z" fill="#26292F"/>
<path d="M34.375 51.3452C33.1389 51.3452 31.9305 50.9787 30.9027 50.2919C29.8749 49.6051 29.0738 48.629 28.6008 47.487C28.1277 46.345 28.0039 45.0883 28.2451 43.8759C28.4863 42.6635 29.0815 41.5499 29.9556 40.6758C30.8297 39.8017 31.9433 39.2065 33.1557 38.9653C34.3681 38.7242 35.6247 38.8479 36.7668 39.321C37.9088 39.794 38.8849 40.5951 39.5717 41.6229C40.2584 42.6507 40.625 43.8591 40.625 45.0952C40.625 46.7528 39.9665 48.3425 38.7944 49.5146C37.6223 50.6867 36.0326 51.3452 34.375 51.3452Z" fill="#26292F"/>
<path d="M59.3755 51.3452C58.1394 51.3452 56.931 50.9787 55.9032 50.2919C54.8754 49.6051 54.0743 48.629 53.6012 47.487C53.1282 46.345 53.0044 45.0883 53.2456 43.8759C53.4867 42.6635 54.082 41.5499 54.9561 40.6758C55.8302 39.8017 56.9438 39.2065 58.1562 38.9653C59.3686 38.7242 60.6252 38.8479 61.7673 39.321C62.9093 39.794 63.8854 40.5951 64.5722 41.6229C65.2589 42.6507 65.6255 43.8591 65.6255 45.0952C65.6255 46.7528 64.967 48.3425 63.7949 49.5146C62.6228 50.6867 61.0331 51.3452 59.3755 51.3452Z" fill="#26292F"/>
</svg>
