<svg width="101" height="100" viewBox="0 0 101 100" fill="none" xmlns="http://www.w3.org/2000/svg">
<rect x="20.375" y="20.1128" width="64.3125" height="64.3125" fill="#9A4FC5"/>
<rect x="14.25" y="13.9878" width="64.3125" height="64.3125" fill="#25E1DE"/>
<rect x="17.3125" y="17.0505" width="64.3125" height="64.3125" fill="#FBFDFE"/>
<line x1="75.5" y1="27.8003" x2="87.75" y2="27.8003" stroke="#9A4FC5" stroke-width="3"/>
<line x1="75.5" y1="27.8003" x2="87.75" y2="27.8003" stroke="#9A4FC5" stroke-width="3"/>
<line x1="69.3745" y1="36.9878" x2="78.562" y2="36.9878" stroke="#9A4FC5" stroke-width="3"/>
<line x1="69.3745" y1="36.9878" x2="78.562" y2="36.9878" stroke="#9A4FC5" stroke-width="3"/>
<line x1="81.625" y1="43.1128" x2="90.8125" y2="43.1128" stroke="#9A4FC5" stroke-width="3"/>
<line x1="81.625" y1="43.1128" x2="90.8125" y2="43.1128" stroke="#9A4FC5" stroke-width="3"/>
<line x1="81.625" y1="49.2378" x2="100" y2="49.2378" stroke="#9A4FC5" stroke-width="3"/>
<line x1="81.625" y1="49.2378" x2="100" y2="49.2378" stroke="#9A4FC5" stroke-width="3"/>
<line x1="72.437" y1="67.6128" x2="87.7495" y2="67.6128" stroke="#9A4FC5" stroke-width="3"/>
<line x1="72.437" y1="67.6128" x2="87.7495" y2="67.6128" stroke="#9A4FC5" stroke-width="3"/>
<line x1="63.2495" y1="73.7378" x2="75.4995" y2="73.7378" stroke="#9A4FC5" stroke-width="3"/>
<line x1="63.2495" y1="73.7378" x2="75.4995" y2="73.7378" stroke="#9A4FC5" stroke-width="3"/>
<line x1="38.75" y1="21.6128" x2="8.125" y2="21.6128" stroke="#25E1DE" stroke-width="3"/>
<line x1="38.75" y1="21.6128" x2="8.125" y2="21.6128" stroke="#25E1DE" stroke-width="3"/>
<line x1="20.375" y1="46.1128" x2="5.0625" y2="46.1128" stroke="#25E1DE" stroke-width="3"/>
<line x1="20.375" y1="46.1128" x2="5.0625" y2="46.1128" stroke="#25E1DE" stroke-width="3"/>
<line x1="20.375" y1="39.9878" x2="2" y2="39.9878" stroke="#25E1DE" stroke-width="3"/>
<line x1="20.375" y1="39.9878" x2="2" y2="39.9878" stroke="#25E1DE" stroke-width="3"/>
<line x1="23.437" y1="70.6128" x2="8.12451" y2="70.6128" stroke="#25E1DE" stroke-width="3"/>
<line x1="23.437" y1="70.6128" x2="8.12451" y2="70.6128" stroke="#25E1DE" stroke-width="3"/>
<path d="M32.625 69.1128C30.1883 69.1128 27.8514 68.1448 26.1285 66.4218C24.4055 64.6988 23.4375 62.3619 23.4375 59.9253C23.4375 53.2796 29.3787 43.9696 30.0525 42.9284C30.3314 42.5051 30.7111 42.1577 31.1574 41.9173C31.6037 41.6769 32.1027 41.551 32.6097 41.551C33.1166 41.551 33.6156 41.6769 34.062 41.9173C34.5083 42.1577 34.8879 42.5051 35.1669 42.9284C35.8713 43.9696 41.8125 53.2796 41.8125 59.9253C41.8125 62.3619 40.8445 64.6988 39.1215 66.4218C37.3986 68.1448 35.0617 69.1128 32.625 69.1128ZM32.625 50.7378C30.9891 53.5597 29.947 56.6862 29.5625 59.9253C29.5625 60.7375 29.8852 61.5164 30.4595 62.0908C31.0338 62.6651 31.8128 62.9878 32.625 62.9878C33.4372 62.9878 34.2162 62.6651 34.7905 62.0908C35.3648 61.5164 35.6875 60.7375 35.6875 59.9253C35.303 56.6862 34.2609 53.5597 32.625 50.7378Z" fill="#25E1DE"/>
<path d="M32.625 44.6128C32.625 44.6128 38.75 53.984 38.75 59.9253C38.75 61.5497 38.1047 63.1077 36.956 64.2563C35.8074 65.405 34.2495 66.0503 32.625 66.0503C31.0005 66.0503 29.4426 65.405 28.294 64.2563C27.1453 63.1077 26.5 61.5497 26.5 59.9253C26.5 53.984 32.625 44.6128 32.625 44.6128Z" fill="#C7E7F5"/>
<path d="M57.125 56.8628H38.75C37.9378 56.8628 37.1588 56.5401 36.5845 55.9658C36.0102 55.3915 35.6875 54.6125 35.6875 53.8003C35.6875 52.9881 36.0102 52.2091 36.5845 51.6348C37.1588 51.0604 37.9378 50.7378 38.75 50.7378H57.125C57.9372 50.7378 58.7162 51.0604 59.2905 51.6348C59.8648 52.2091 60.1875 52.9881 60.1875 53.8003C60.1875 54.6125 59.8648 55.3915 59.2905 55.9658C58.7162 56.5401 57.9372 56.8628 57.125 56.8628Z" fill="#26292F"/>
<path d="M32.625 35.4253L38.75 32.3628" stroke="#26292F" stroke-width="5" stroke-linecap="round" stroke-linejoin="round"/>
<path d="M57.125 32.3628L63.25 35.4253" stroke="#26292F" stroke-width="5" stroke-linecap="round" stroke-linejoin="round"/>
</svg>
