<svg width="100" height="100" viewBox="0 0 100 100" fill="none" xmlns="http://www.w3.org/2000/svg">
<rect x="16.377" y="5.70264" width="68.9048" height="66.9908" fill="#FBFDFE"/>
<rect x="17.334" y="4.74561" width="67.9478" height="17.2262" fill="#ABFFFF"/>
<mask id="path-3-inside-1_880_6001" fill="white">
<path d="M15.4839 3H80.5161V68.0322H15.4839V3Z"/>
</mask>
<path d="M15.4839 3V0H12.4839V3H15.4839ZM15.4839 6H80.5161V0H15.4839V6ZM18.4839 68.0322V3H12.4839V68.0322H18.4839Z" fill="#25E1DE" mask="url(#path-3-inside-1_880_6001)"/>
<mask id="path-5-inside-2_880_6001" fill="white">
<path d="M21.6772 9.1936H86.7095V74.2258H21.6772V9.1936Z"/>
</mask>
<path d="M86.7095 74.2258V77.2258H89.7095V74.2258H86.7095ZM83.7095 9.1936V74.2258H89.7095V9.1936H83.7095ZM86.7095 71.2258H21.6772V77.2258H86.7095V71.2258Z" fill="#9A4FC5" mask="url(#path-5-inside-2_880_6001)"/>
<line x1="77.4199" y1="16.9839" x2="89.807" y2="16.9839" stroke="#9A4FC5" stroke-width="3"/>
<line x1="77.4199" y1="16.9839" x2="89.807" y2="16.9839" stroke="#9A4FC5" stroke-width="3"/>
<line x1="71.2261" y1="26.2744" x2="80.5164" y2="26.2744" stroke="#9A4FC5" stroke-width="3"/>
<line x1="71.2261" y1="26.2744" x2="80.5164" y2="26.2744" stroke="#9A4FC5" stroke-width="3"/>
<line x1="83.6133" y1="32.4678" x2="92.9036" y2="32.4678" stroke="#9A4FC5" stroke-width="3"/>
<line x1="83.6133" y1="32.4678" x2="92.9036" y2="32.4678" stroke="#9A4FC5" stroke-width="3"/>
<path d="M83.6133 38.6614L99.5 38.6614" stroke="#9A4FC5" stroke-width="3"/>
<path d="M83.6133 38.6614L99.5 38.6614" stroke="#9A4FC5" stroke-width="3"/>
<line x1="74.3232" y1="57.2419" x2="89.8071" y2="57.2419" stroke="#9A4FC5" stroke-width="3"/>
<line x1="74.3232" y1="57.2419" x2="89.8071" y2="57.2419" stroke="#9A4FC5" stroke-width="3"/>
<line x1="65.0322" y1="63.4355" x2="77.4193" y2="63.4355" stroke="#9A4FC5" stroke-width="3"/>
<line x1="65.0322" y1="63.4355" x2="77.4193" y2="63.4355" stroke="#9A4FC5" stroke-width="3"/>
<line x1="40.2583" y1="10.6936" x2="9.29057" y2="10.6936" stroke="#25E1DE" stroke-width="3"/>
<line x1="40.2583" y1="10.6936" x2="9.29057" y2="10.6936" stroke="#25E1DE" stroke-width="3"/>
<line x1="21.6772" y1="35.4678" x2="6.19338" y2="35.4678" stroke="#25E1DE" stroke-width="3"/>
<line x1="21.6772" y1="35.4678" x2="6.19338" y2="35.4678" stroke="#25E1DE" stroke-width="3"/>
<line x1="21.6772" y1="29.2744" x2="3.09661" y2="29.2744" stroke="#25E1DE" stroke-width="3"/>
<line x1="21.6772" y1="29.2744" x2="3.09661" y2="29.2744" stroke="#25E1DE" stroke-width="3"/>
<line x1="24.7739" y1="60.2419" x2="9.29006" y2="60.2419" stroke="#25E1DE" stroke-width="3"/>
<line x1="24.7739" y1="60.2419" x2="9.29006" y2="60.2419" stroke="#25E1DE" stroke-width="3"/>
<path d="M12.387 79.6861V99H30.9676V76.4671L21.6773 63.5912V52.325C23.2257 49.106 10.8386 34.6204 3.09668 50.7153V66.8102L12.387 79.6861Z" fill="white"/>
<path d="M86.7092 78.6132V99.0001H68.1286V75.2154L77.4189 61.6241V49.7321C75.8705 46.3342 88.2576 31.0439 95.9995 48.0329V65.0219L86.7092 78.6132Z" fill="white"/>
<path d="M30.9677 98.9999C30.1464 98.9999 29.3587 98.6736 28.778 98.0929C28.1972 97.5121 27.871 96.7244 27.871 95.9031V76.3006C27.871 75.6305 27.6536 74.9785 27.2516 74.4425L20.4387 65.338C19.2326 63.7299 18.5806 61.7739 18.5806 59.7638V49.4515C18.5806 47.8089 17.9281 46.2336 16.7666 45.072C15.6051 43.9105 14.0297 43.258 12.3871 43.258C10.7445 43.258 9.16911 43.9105 8.00759 45.072C6.84608 46.2336 6.19355 47.8089 6.19355 49.4515V62.8606C6.19355 63.5306 6.41087 64.1826 6.8129 64.7186L13.6258 73.7922C14.8319 75.4003 15.4839 77.3562 15.4839 79.3664V95.9031C15.4839 96.7244 15.1576 97.5121 14.5768 98.0929C13.9961 98.6736 13.2084 98.9999 12.3871 98.9999C11.5658 98.9999 10.7781 98.6736 10.1973 98.0929C9.61658 97.5121 9.29032 96.7244 9.29032 95.9031V79.3973C9.29032 78.7273 9.07299 78.0753 8.67096 77.5393L1.85806 68.4348C0.651975 66.8266 0 64.8707 0 62.8606L0 49.4515C0 46.1663 1.30507 43.0156 3.6281 40.6925C5.95113 38.3695 9.10183 37.0645 12.3871 37.0645C15.6724 37.0645 18.8231 38.3695 21.1461 40.6925C23.4691 43.0156 24.7742 46.1663 24.7742 49.4515V59.7638C24.7742 60.4338 24.9915 61.0858 25.3935 61.6219L32.2064 70.6954C33.4125 72.3035 34.0645 74.2594 34.0645 76.2696V95.9031C34.0645 96.7244 33.7382 97.5121 33.1575 98.0929C32.5767 98.6736 31.789 98.9999 30.9677 98.9999Z" fill="#26292F"/>
<path d="M86.7091 98.9999C85.8878 98.9999 85.1002 98.6736 84.5194 98.0929C83.9386 97.5121 83.6124 96.7244 83.6124 95.9031V79.3973C83.6124 77.3872 84.2644 75.4313 85.4704 73.8231L92.2833 64.7496C92.6854 64.2136 92.9027 63.5616 92.9027 62.8915V49.4515C92.9027 47.8089 92.2502 46.2336 91.0886 45.072C89.9271 43.9105 88.3518 43.258 86.7091 43.258C85.0665 43.258 83.4912 43.9105 82.3297 45.072C81.1681 46.2336 80.5156 47.8089 80.5156 49.4515V59.7638C80.5156 61.7739 79.8636 63.7299 78.6575 65.338L71.8446 74.4115C71.4426 74.9476 71.2253 75.5995 71.2253 76.2696V95.9031C71.2253 96.7244 70.899 97.5121 70.3183 98.0929C69.7375 98.6736 68.9498 98.9999 68.1285 98.9999C67.3072 98.9999 66.5195 98.6736 65.9388 98.0929C65.358 97.5121 65.0317 96.7244 65.0317 95.9031V76.3006C65.0317 74.2904 65.6837 72.3345 66.8898 70.7264L73.7027 61.6528C74.1047 61.1168 74.3221 60.4648 74.3221 59.7948V49.4515C74.3221 46.1663 75.6271 43.0156 77.9502 40.6925C80.2732 38.3695 83.4239 37.0645 86.7091 37.0645C89.9944 37.0645 93.1451 38.3695 95.4681 40.6925C97.7912 43.0156 99.0962 46.1663 99.0962 49.4515V62.8606C99.0962 64.8707 98.4443 66.8266 97.2382 68.4348L90.4253 77.5083C90.0232 78.0443 89.8059 78.6963 89.8059 79.3664V95.9031C89.8059 96.7244 89.4797 97.5121 88.8989 98.0929C88.3181 98.6736 87.5305 98.9999 86.7091 98.9999Z" fill="#26292F"/>
<path d="M55.7417 43.2579C43.7262 43.2579 42.6114 43.7534 41.1868 42.3599C40.5009 43.7762 40.186 45.3435 40.2716 46.9148C40.3572 48.4862 40.8405 50.01 41.6763 51.3434C42.5121 52.6768 43.6728 53.776 45.0497 54.538C46.4266 55.3 47.9745 55.6997 49.5481 55.6997C51.1218 55.6997 52.6697 55.3 54.0466 54.538C55.4235 53.776 56.5842 52.6768 57.42 51.3434C58.2557 50.01 58.7391 48.4862 58.8247 46.9148C58.9103 45.3435 58.5954 43.7762 57.9094 42.3599C57.3326 42.932 56.5541 43.2545 55.7417 43.2579Z" fill="#26292F"/>
<path d="M49.5482 33.9678C47.0983 33.9678 44.7034 34.6943 42.6663 36.0554C40.6293 37.4165 39.0416 39.3511 38.104 41.6145C37.1665 43.878 36.9212 46.3686 37.3992 48.7715C37.8771 51.1743 39.0569 53.3815 40.7892 55.1139C42.5216 56.8462 44.7288 58.026 47.1316 58.5039C49.5345 58.9819 52.0251 58.7366 54.2886 57.799C56.552 56.8615 58.4866 55.2738 59.8477 53.2368C61.2088 51.1997 61.9353 48.8048 61.9353 46.3549C61.9353 43.0696 60.6303 39.9189 58.3072 37.5959C55.9842 35.2728 52.8335 33.9678 49.5482 33.9678ZM49.5482 52.5484C48.4642 52.5419 47.4009 52.251 46.4645 51.7047C45.5282 51.1584 44.7516 50.376 44.2124 49.4355C43.6732 48.4951 43.3903 47.4296 43.3919 46.3456C43.3936 45.2615 43.6797 44.1969 44.2218 43.2581H54.8747C55.4167 44.1969 55.7029 45.2615 55.7045 46.3456C55.7062 47.4296 55.4233 48.4951 54.8841 49.4355C54.3449 50.376 53.5683 51.1584 52.6319 51.7047C51.6956 52.251 50.6323 52.5419 49.5482 52.5484Z" fill="#26292F"/>
<path d="M37.1608 30.871C35.9359 30.871 34.7384 30.5077 33.7199 29.8272C32.7014 29.1466 31.9075 28.1793 31.4387 27.0476C30.97 25.9159 30.8473 24.6706 31.0863 23.4691C31.3253 22.2677 31.9152 21.1641 32.7813 20.2979C33.6475 19.4318 34.7511 18.8419 35.9525 18.6029C37.154 18.3639 38.3993 18.4866 39.531 18.9553C40.6627 19.4241 41.63 20.218 42.3106 21.2365C42.9911 22.255 43.3544 23.4525 43.3544 24.6774C43.3544 26.3201 42.7018 27.8954 41.5403 29.0569C40.3788 30.2184 38.8035 30.871 37.1608 30.871Z" fill="#26292F"/>
<path d="M61.9352 30.871C60.7103 30.871 59.5128 30.5077 58.4943 29.8272C57.4758 29.1466 56.6819 28.1793 56.2132 27.0476C55.7444 25.9159 55.6217 24.6706 55.8607 23.4691C56.0997 22.2677 56.6896 21.1641 57.5558 20.2979C58.4219 19.4318 59.5255 18.8419 60.7269 18.6029C61.9284 18.3639 63.1737 18.4866 64.3054 18.9553C65.4371 19.4241 66.4044 20.218 67.085 21.2365C67.7655 22.255 68.1288 23.4525 68.1288 24.6774C68.1288 26.3201 67.4763 27.8954 66.3147 29.0569C65.1532 30.2184 63.5779 30.871 61.9352 30.871Z" fill="#26292F"/>
</svg>
