<svg width="100" height="100" viewBox="0 0 100 100" fill="none" xmlns="http://www.w3.org/2000/svg">
<rect x="18.5215" y="20.1741" width="64.8261" height="64.8261" fill="#9A4FC5"/>
<rect x="12.3477" y="14" width="64.8261" height="64.8261" fill="#25E1DE"/>
<rect x="15.4346" y="17.0869" width="64.8261" height="64.8261" fill="#FBFDFE"/>
<line x1="74.0869" y1="27.9348" x2="86.4347" y2="27.9348" stroke="#9A4FC5" stroke-width="3"/>
<line x1="74.0869" y1="27.9348" x2="86.4347" y2="27.9348" stroke="#9A4FC5" stroke-width="3"/>
<line x1="67.9131" y1="37.1958" x2="77.174" y2="37.1958" stroke="#9A4FC5" stroke-width="3"/>
<line x1="67.9131" y1="37.1958" x2="77.174" y2="37.1958" stroke="#9A4FC5" stroke-width="3"/>
<line x1="80.2607" y1="43.3696" x2="89.5216" y2="43.3696" stroke="#9A4FC5" stroke-width="3"/>
<line x1="80.2607" y1="43.3696" x2="89.5216" y2="43.3696" stroke="#9A4FC5" stroke-width="3"/>
<line x1="80.2607" y1="49.5435" x2="98.7825" y2="49.5435" stroke="#9A4FC5" stroke-width="3"/>
<line x1="80.2607" y1="49.5435" x2="98.7825" y2="49.5435" stroke="#9A4FC5" stroke-width="3"/>
<line x1="71" y1="68.0652" x2="86.4348" y2="68.0652" stroke="#9A4FC5" stroke-width="3"/>
<line x1="71" y1="68.0652" x2="86.4348" y2="68.0652" stroke="#9A4FC5" stroke-width="3"/>
<line x1="61.7393" y1="74.2393" x2="74.0871" y2="74.2393" stroke="#9A4FC5" stroke-width="3"/>
<line x1="61.7393" y1="74.2393" x2="74.0871" y2="74.2393" stroke="#9A4FC5" stroke-width="3"/>
<line x1="37.0435" y1="21.6741" x2="6.17389" y2="21.6741" stroke="#25E1DE" stroke-width="3"/>
<line x1="37.0435" y1="21.6741" x2="6.17389" y2="21.6741" stroke="#25E1DE" stroke-width="3"/>
<line x1="18.5215" y1="46.3696" x2="3.0867" y2="46.3696" stroke="#25E1DE" stroke-width="3"/>
<line x1="18.5215" y1="46.3696" x2="3.0867" y2="46.3696" stroke="#25E1DE" stroke-width="3"/>
<line x1="18.5215" y1="40.1958" x2="-0.000255585" y2="40.1958" stroke="#25E1DE" stroke-width="3"/>
<line x1="18.5215" y1="40.1958" x2="-0.000255585" y2="40.1958" stroke="#25E1DE" stroke-width="3"/>
<line x1="21.6089" y1="71.0652" x2="6.1741" y2="71.0652" stroke="#25E1DE" stroke-width="3"/>
<line x1="21.6089" y1="71.0652" x2="6.1741" y2="71.0652" stroke="#25E1DE" stroke-width="3"/>
<path d="M52.4782 54.1303C40.5009 54.1303 39.3895 54.6242 37.9695 53.2351C37.2858 54.6469 36.9718 56.2093 37.0572 57.7756C37.1425 59.342 37.6243 60.861 38.4574 62.1902C39.2905 63.5193 40.4476 64.6151 41.8202 65.3747C43.1927 66.1342 44.7357 66.5327 46.3043 66.5327C47.873 66.5327 49.416 66.1342 50.7885 65.3747C52.161 64.6151 53.3181 63.5193 54.1512 62.1902C54.9843 60.861 55.4661 59.342 55.5515 57.7756C55.6368 56.2093 55.3229 54.6469 54.6391 53.2351C54.0641 53.8054 53.2881 54.1269 52.4782 54.1303Z" fill="#26292F"/>
<path d="M46.3044 44.8696C43.8622 44.8696 41.4749 45.5938 39.4443 46.9506C37.4137 48.3074 35.831 50.2359 34.8965 52.4921C33.9619 54.7484 33.7174 57.2312 34.1938 59.6264C34.6703 62.0216 35.8463 64.2218 37.5731 65.9487C39.3 67.6756 41.5002 68.8516 43.8954 69.328C46.2907 69.8045 48.7734 69.5599 51.0297 68.6254C53.286 67.6908 55.2144 66.1081 56.5712 64.0775C57.928 62.0469 58.6522 59.6596 58.6522 57.2175C58.6522 53.9426 57.3513 50.8019 55.0356 48.4862C52.7199 46.1706 49.5792 44.8696 46.3044 44.8696ZM46.3044 63.3914C45.2238 63.3849 44.1638 63.0949 43.2304 62.5503C42.2971 62.0058 41.5229 61.2258 40.9855 60.2884C40.448 59.3509 40.166 58.2888 40.1676 57.2082C40.1692 56.1276 40.4545 55.0663 40.9948 54.1305H51.6139C52.1543 55.0663 52.4395 56.1276 52.4411 57.2082C52.4428 58.2888 52.1608 59.3509 51.6233 60.2884C51.0858 61.2258 50.3117 62.0058 49.3783 62.5503C48.4449 63.0949 47.385 63.3849 46.3044 63.3914Z" fill="#26292F"/>
<path d="M33.9566 41.7826C32.7355 41.7826 31.5419 41.4206 30.5266 40.7422C29.5113 40.0638 28.72 39.0995 28.2527 37.9714C27.7854 36.8432 27.6631 35.6019 27.9013 34.4043C28.1396 33.2066 28.7276 32.1066 29.591 31.2431C30.4545 30.3797 31.5545 29.7917 32.7522 29.5534C33.9498 29.3152 35.1911 29.4375 36.3193 29.9048C37.4474 30.3721 38.4117 31.1634 39.0901 32.1787C39.7685 33.194 40.1305 34.3876 40.1305 35.6087C40.1305 37.2462 39.4801 38.8165 38.3222 39.9743C37.1644 41.1322 35.5941 41.7826 33.9566 41.7826Z" fill="#26292F"/>
<path d="M58.6519 41.7826C57.4309 41.7826 56.2372 41.4206 55.2219 40.7422C54.2066 40.0638 53.4153 39.0995 52.948 37.9714C52.4807 36.8432 52.3584 35.6019 52.5967 34.4043C52.8349 33.2066 53.4229 32.1066 54.2863 31.2431C55.1498 30.3797 56.2499 29.7917 57.4475 29.5534C58.6451 29.3152 59.8865 29.4375 61.0146 29.9048C62.1427 30.3721 63.107 31.1634 63.7854 32.1787C64.4638 33.194 64.8259 34.3876 64.8259 35.6087C64.8259 37.2462 64.1754 38.8165 63.0176 39.9743C61.8597 41.1322 60.2894 41.7826 58.6519 41.7826Z" fill="#26292F"/>
</svg>
