<svg width="100" height="100" viewBox="0 0 100 100" fill="none" xmlns="http://www.w3.org/2000/svg">
<rect x="18.5215" y="20.1738" width="64.8262" height="64.8262" fill="#9A4FC5"/>
<rect x="12.3477" y="14" width="64.8262" height="64.8262" fill="#25E1DE"/>
<rect x="15.4346" y="17.0869" width="64.8262" height="64.8262" fill="#FBFDFE"/>
<line x1="74.0869" y1="27.9346" x2="86.4348" y2="27.9346" stroke="#9A4FC5" stroke-width="3"/>
<line x1="74.0869" y1="27.9346" x2="86.4348" y2="27.9346" stroke="#9A4FC5" stroke-width="3"/>
<line x1="67.9131" y1="37.1956" x2="77.174" y2="37.1956" stroke="#9A4FC5" stroke-width="3"/>
<line x1="67.9131" y1="37.1956" x2="77.174" y2="37.1956" stroke="#9A4FC5" stroke-width="3"/>
<line x1="80.2607" y1="43.3694" x2="89.5216" y2="43.3694" stroke="#9A4FC5" stroke-width="3"/>
<line x1="80.2607" y1="43.3694" x2="89.5216" y2="43.3694" stroke="#9A4FC5" stroke-width="3"/>
<line x1="80.2607" y1="49.5435" x2="98.7825" y2="49.5435" stroke="#9A4FC5" stroke-width="3"/>
<line x1="80.2607" y1="49.5435" x2="98.7825" y2="49.5435" stroke="#9A4FC5" stroke-width="3"/>
<line x1="71" y1="68.0654" x2="86.4348" y2="68.0654" stroke="#9A4FC5" stroke-width="3"/>
<line x1="71" y1="68.0654" x2="86.4348" y2="68.0654" stroke="#9A4FC5" stroke-width="3"/>
<line x1="61.7388" y1="74.239" x2="74.0866" y2="74.239" stroke="#9A4FC5" stroke-width="3"/>
<line x1="61.7388" y1="74.239" x2="74.0866" y2="74.239" stroke="#9A4FC5" stroke-width="3"/>
<line x1="37.0435" y1="21.6738" x2="6.17386" y2="21.6738" stroke="#25E1DE" stroke-width="3"/>
<line x1="37.0435" y1="21.6738" x2="6.17386" y2="21.6738" stroke="#25E1DE" stroke-width="3"/>
<line x1="18.5215" y1="46.3694" x2="3.08669" y2="46.3694" stroke="#25E1DE" stroke-width="3"/>
<line x1="18.5215" y1="46.3694" x2="3.08669" y2="46.3694" stroke="#25E1DE" stroke-width="3"/>
<line x1="18.5215" y1="40.1956" x2="-0.000274658" y2="40.1956" stroke="#25E1DE" stroke-width="3"/>
<line x1="18.5215" y1="40.1956" x2="-0.000274658" y2="40.1956" stroke="#25E1DE" stroke-width="3"/>
<line x1="21.6089" y1="71.0654" x2="6.17409" y2="71.0654" stroke="#25E1DE" stroke-width="3"/>
<line x1="21.6089" y1="71.0654" x2="6.17409" y2="71.0654" stroke="#25E1DE" stroke-width="3"/>
<path d="M46.3045 66.4785C36.0866 66.4785 27.7827 59.5638 27.7827 51.0437C27.7827 50.225 28.1079 49.4399 28.6869 48.8609C29.2658 48.282 30.051 47.9568 30.8697 47.9568C31.6884 47.9568 32.4736 48.282 33.0525 48.8609C33.6314 49.4399 33.9566 50.225 33.9566 51.0437C33.9566 56.1372 39.4823 60.3046 46.3045 60.3046C53.1267 60.3046 58.6523 56.1372 58.6523 51.0437C58.6523 50.225 58.9775 49.4399 59.5565 48.8609C60.1354 48.282 60.9206 47.9568 61.7393 47.9568C62.558 47.9568 63.3432 48.282 63.9221 48.8609C64.501 49.4399 64.8262 50.225 64.8262 51.0437C64.8262 59.5638 56.5223 66.4785 46.3045 66.4785Z" fill="#26292F"/>
<path d="M33.9566 41.7827C32.7356 41.7827 31.5419 41.4206 30.5266 40.7422C29.5113 40.0638 28.72 39.0995 28.2527 37.9714C27.7854 36.8433 27.6631 35.6019 27.9013 34.4043C28.1396 33.2066 28.7276 32.1066 29.591 31.2431C30.4545 30.3797 31.5545 29.7917 32.7522 29.5534C33.9498 29.3152 35.1912 29.4375 36.3193 29.9048C37.4474 30.3721 38.4117 31.1634 39.0901 32.1787C39.7685 33.194 40.1306 34.3877 40.1306 35.6087C40.1306 37.2462 39.4801 38.8165 38.3223 39.9744C37.1644 41.1322 35.5941 41.7827 33.9566 41.7827Z" fill="#26292F"/>
<path d="M61.7393 41.7828H52.4785C51.8653 41.7864 51.265 41.6072 50.754 41.2683C50.2431 40.9293 49.8446 40.4459 49.6095 39.8796C49.3744 39.3133 49.3132 38.6899 49.4338 38.0887C49.5544 37.4875 49.8514 36.9359 50.2867 36.5041L56.4606 30.3302C57.0512 29.8244 57.8108 29.5602 58.5877 29.5902C59.3646 29.6202 60.1016 29.9423 60.6514 30.492C61.2011 31.0418 61.5232 31.7788 61.5532 32.5557C61.5832 33.3326 61.319 34.0922 60.8132 34.6828L59.918 35.6089H61.7393C62.558 35.6089 63.3432 35.9341 63.9221 36.513C64.5011 37.0919 64.8263 37.8771 64.8263 38.6958C64.8263 39.5145 64.5011 40.2997 63.9221 40.8786C63.3432 41.4576 62.558 41.7828 61.7393 41.7828Z" fill="#26292F"/>
</svg>
