<svg width="101" height="100" viewBox="0 0 101 100" fill="none" xmlns="http://www.w3.org/2000/svg">
<rect x="19.5625" y="20.1877" width="64.9688" height="64.9688" fill="#9A4FC5"/>
<rect x="13.375" y="14" width="64.9688" height="64.9688" fill="#25E1DE"/>
<rect x="16.4688" y="17.094" width="64.9688" height="64.9688" fill="#FBFDFE"/>
<line x1="75.25" y1="27.9688" x2="87.625" y2="27.9688" stroke="#9A4FC5" stroke-width="3"/>
<line x1="75.25" y1="27.9688" x2="87.625" y2="27.9688" stroke="#9A4FC5" stroke-width="3"/>
<line x1="69.0625" y1="37.2502" x2="78.3438" y2="37.2502" stroke="#9A4FC5" stroke-width="3"/>
<line x1="69.0625" y1="37.2502" x2="78.3438" y2="37.2502" stroke="#9A4FC5" stroke-width="3"/>
<line x1="81.4375" y1="43.4375" x2="90.7188" y2="43.4375" stroke="#9A4FC5" stroke-width="3"/>
<line x1="81.4375" y1="43.4375" x2="90.7188" y2="43.4375" stroke="#9A4FC5" stroke-width="3"/>
<line x1="81.4375" y1="49.625" x2="100" y2="49.625" stroke="#9A4FC5" stroke-width="3"/>
<line x1="81.4375" y1="49.625" x2="100" y2="49.625" stroke="#9A4FC5" stroke-width="3"/>
<line x1="72.1562" y1="68.1875" x2="87.625" y2="68.1875" stroke="#9A4FC5" stroke-width="3"/>
<line x1="72.1562" y1="68.1875" x2="87.625" y2="68.1875" stroke="#9A4FC5" stroke-width="3"/>
<line x1="62.875" y1="74.3752" x2="75.25" y2="74.3752" stroke="#9A4FC5" stroke-width="3"/>
<line x1="62.875" y1="74.3752" x2="75.25" y2="74.3752" stroke="#9A4FC5" stroke-width="3"/>
<line x1="38.125" y1="21.6877" x2="7.1875" y2="21.6877" stroke="#25E1DE" stroke-width="3"/>
<line x1="38.125" y1="21.6877" x2="7.1875" y2="21.6877" stroke="#25E1DE" stroke-width="3"/>
<line x1="19.5625" y1="46.4375" x2="4.09375" y2="46.4375" stroke="#25E1DE" stroke-width="3"/>
<line x1="19.5625" y1="46.4375" x2="4.09375" y2="46.4375" stroke="#25E1DE" stroke-width="3"/>
<line x1="19.5625" y1="40.2502" x2="1" y2="40.2502" stroke="#25E1DE" stroke-width="3"/>
<line x1="19.5625" y1="40.2502" x2="1" y2="40.2502" stroke="#25E1DE" stroke-width="3"/>
<line x1="22.6562" y1="71.1875" x2="7.1875" y2="71.1875" stroke="#25E1DE" stroke-width="3"/>
<line x1="22.6562" y1="71.1875" x2="7.1875" y2="71.1875" stroke="#25E1DE" stroke-width="3"/>
<path d="M56.6875 49.5781C56.6875 47.5268 55.8726 45.5596 54.4222 44.1091C52.9717 42.6586 51.0044 41.8438 48.9531 41.8438H47.4062C46.5857 41.8438 45.7988 42.1697 45.2186 42.7499C44.6384 43.3301 44.3125 44.117 44.3125 44.9375C44.3125 45.758 44.6384 46.5449 45.2186 47.1251C45.7988 47.7053 46.5857 48.0312 47.4062 48.0312H48.9531C49.3634 48.0312 49.7568 48.1942 50.0469 48.4843C50.337 48.7744 50.5 49.1679 50.5 49.5781C50.5 49.9884 50.337 50.3818 50.0469 50.6719C49.7568 50.962 49.3634 51.125 48.9531 51.125C48.1326 51.125 47.3457 51.4509 46.7655 52.0311C46.1853 52.6113 45.8594 53.3982 45.8594 54.2188C45.8594 55.0393 46.1853 55.8262 46.7655 56.4064C47.3457 56.9866 48.1326 57.3125 48.9531 57.3125C49.3634 57.3125 49.7568 57.4755 50.0469 57.7656C50.337 58.0557 50.5 58.4491 50.5 58.8594C50.5 59.2696 50.337 59.6631 50.0469 59.9532C49.7568 60.2433 49.3634 60.4062 48.9531 60.4062H47.4062C46.5857 60.4062 45.7988 60.7322 45.2186 61.3124C44.6384 61.8926 44.3125 62.6795 44.3125 63.5C44.3125 64.3205 44.6384 65.1074 45.2186 65.6876C45.7988 66.2678 46.5857 66.5938 47.4062 66.5938H48.9531C51.0044 66.5938 52.9717 65.7789 54.4222 64.3284C55.8726 62.8779 56.6875 60.9107 56.6875 58.8594C56.6831 57.1816 56.1289 55.5515 55.1097 54.2188C56.1289 52.886 56.6831 51.2559 56.6875 49.5781Z" fill="#26292F"/>
<path d="M41.2188 35.6562H31.9375C31.117 35.6562 30.3301 35.3303 29.7499 34.7501C29.1697 34.1699 28.8438 33.383 28.8438 32.5625C28.8438 31.742 29.1697 30.9551 29.7499 30.3749C30.3301 29.7947 31.117 29.4687 31.9375 29.4688H41.2188C42.0393 29.4687 42.8262 29.7947 43.4064 30.3749C43.9866 30.9551 44.3125 31.742 44.3125 32.5625C44.3125 33.383 43.9866 34.1699 43.4064 34.7501C42.8262 35.3303 42.0393 35.6562 41.2188 35.6562Z" fill="#26292F"/>
<path d="M62.875 35.6562H53.5938C52.7732 35.6562 51.9863 35.3303 51.4061 34.7501C50.8259 34.1699 50.5 33.383 50.5 32.5625C50.5 31.742 50.8259 30.9551 51.4061 30.3749C51.9863 29.7947 52.7732 29.4687 53.5938 29.4688H62.875C63.6955 29.4687 64.4824 29.7947 65.0626 30.3749C65.6428 30.9551 65.9688 31.742 65.9688 32.5625C65.9688 33.383 65.6428 34.1699 65.0626 34.7501C64.4824 35.3303 63.6955 35.6562 62.875 35.6562Z" fill="#26292F"/>
</svg>
