<svg width="84" height="67" viewBox="0 0 84 67" fill="none" xmlns="http://www.w3.org/2000/svg">
<g id="Group 1177">
<path id="Vector 22" d="M48 22H36.5L34.5 25.5H30L21 20L10.5 22L3 33.5L5 42.5L8.5 62.5L14 64.5L18.5 62.5L26 50.5L33.5 45H52L58.5 50.5L66.5 62.5L72 64.5L76.5 61L78 46L80.5 38V30L75 22L63.5 20L53.5 25.5H48V22Z" fill="white" stroke="white" stroke-width="2" stroke-linejoin="round"/>
<circle id="Ellipse 45" cx="33.5" cy="39.5" r="4.5" fill="#513B61"/>
<circle id="Ellipse 46" cx="49.5" cy="39.5" r="4.5" fill="#513B61"/>
<path id="Vector 21" d="M43 20.8178C45.0407 17.2074 44.145 15.855 47 13C48.5683 11.4317 52.4509 10.3548 52.5 8C52.518 7.1338 52.3815 5.25345 50 4C49.4484 3.70968 43.8304 1.4956 43.5 1" stroke="white" stroke-linecap="round"/>
<path id="Vector 23" d="M41 20.8178C43.0407 17.2074 42.0882 15.355 44.9431 12.5C46.5114 10.9317 50.3941 9.85483 50.4431 7.5C50.4612 6.6338 49.8815 5.75345 47.5 4.5C46.9484 4.20968 41.3304 1.9956 41 1.5" stroke="white" stroke-linecap="round"/>
<path id="Vector 18" d="M42.2589 22.0134H37.7388C36.707 22.0134 35.8705 22.8499 35.8705 23.8817V23.8817C35.8705 24.9135 35.0341 25.75 34.0022 25.75H32.1205C31.4203 25.75 30.734 25.5539 30.1394 25.184L22.4293 20.3866C21.0087 19.5026 19.2835 19.252 17.6701 19.6953L11.5506 21.3765C10.0625 21.7853 8.78911 22.7518 7.99511 24.0751L3.50776 31.554C2.5563 33.1398 2.38925 35.0757 3.055 36.801L5.79018 43.8893C5.92973 44.2509 6.03391 44.6253 6.10125 45.007L8.65623 59.4913C9.2116 62.6397 12.3374 64.6426 15.4298 63.8315V63.8315C16.7608 63.4824 17.9113 62.6444 18.6518 61.4847L24.8078 51.8442C25.1889 51.2474 25.6726 50.7228 26.2365 50.2946L30.2843 47.2213C31.3279 46.429 32.6022 46 33.9125 46H42.2589" stroke="white" stroke-width="4" stroke-linejoin="round"/>
<path id="Vector 19" d="M42.2589 22.0134H46.779C47.8108 22.0134 48.6473 22.8499 48.6473 23.8817V23.8817C48.6473 24.9135 49.4838 25.75 50.5156 25.75H52.3973C53.0976 25.75 53.7838 25.5539 54.3784 25.184L62.0885 20.3866C63.5091 19.5026 65.2343 19.252 66.8478 19.6953L72.9672 21.3765C74.4553 21.7853 75.7287 22.7518 76.5227 24.0751L81.1111 31.7224C82.0047 33.2118 82.2091 35.0153 81.6713 36.6669L79.2977 43.9575C79.1946 44.274 79.1181 44.5985 79.0689 44.9277L76.9488 59.1057C76.4392 62.514 73.1143 64.7501 69.7655 63.9368V63.9368C68.3479 63.5925 67.1096 62.7323 66.2923 61.5241L59.6879 51.7609C59.321 51.2186 58.8679 50.74 58.3464 50.3441L54.2335 47.2213C53.1899 46.429 51.9156 46 50.6053 46H42.2589" stroke="white" stroke-width="4" stroke-linejoin="round"/>
<circle id="Ellipse 41" cx="63.7723" cy="33.317" r="2.77232" fill="#4F385F"/>
<circle id="Ellipse 43" cx="68.317" cy="37.7723" r="2.77232" fill="#4F385F"/>
<circle id="Ellipse 44" cx="68.317" cy="28.7723" r="2.77232" fill="#4F385F"/>
<circle id="Ellipse 42" cx="72.7723" cy="33.317" r="2.77232" fill="#4F385F"/>
<rect id="Rectangle 2868" x="13.7009" y="25" width="4.09821" height="13.5" rx="2.04911" fill="#574166"/>
<rect id="Rectangle 2869" x="22.5" y="29.7009" width="4.09821" height="13.5" rx="2.04911" transform="rotate(90 22.5 29.7009)" fill="#574166"/>
</g>
</svg>
