<svg width="65" height="37" viewBox="0 0 65 37" fill="none" xmlns="http://www.w3.org/2000/svg">
<path d="M0.0875627 13.968H12.6636C13.3996 13.968 13.9756 13.728 14.3916 13.248C14.8076 12.768 15.0156 12.176 15.0156 11.472C15.0156 10.736 14.8076 10.144 14.3916 9.696C13.9756 9.248 13.3996 9.024 12.6636 9.024H0.0875627L9.54356 0.48H14.4876C17.3676 0.48 19.7516 1.504 21.6396 3.552C23.5596 5.568 24.5196 8.208 24.5196 11.472C24.5196 13.04 24.1356 14.416 23.3676 15.6C22.6316 16.752 21.6396 17.664 20.3916 18.336C21.5756 18.688 22.5516 19.504 23.3196 20.784C24.1196 22.032 24.5196 23.424 24.5196 24.96C24.5196 28.256 23.5436 30.928 21.5916 32.976C19.6716 34.992 17.3036 36 14.4876 36H0.0875627V27.456H12.6636C13.3996 27.456 13.9756 27.216 14.3916 26.736C14.8076 26.256 15.0156 25.664 15.0156 24.96C15.0156 24.224 14.8076 23.632 14.3916 23.184C13.9756 22.736 13.3996 22.512 12.6636 22.512H0.0875627V13.968ZM47.5483 -2.86102e-06C52.5723 -2.86102e-06 56.6523 1.584 59.7883 4.752C63.0523 8.048 64.6843 12.544 64.6843 18.24C64.6843 23.872 63.0203 28.368 59.6923 31.728C56.5563 34.896 52.5083 36.48 47.5483 36.48C42.6203 36.48 38.5883 34.896 35.4523 31.728C32.1563 28.4 30.5083 23.904 30.5083 18.24C30.5083 12.576 32.1563 8.08 35.4523 4.752C38.5883 1.584 42.6203 -2.86102e-06 47.5483 -2.86102e-06ZM55.2283 18.24C55.2283 15.456 54.6363 13.2 53.4523 11.472C52.1083 9.52 50.1403 8.544 47.5483 8.544C44.9243 8.544 42.9563 9.504 41.6443 11.424C40.5243 13.088 39.9643 15.36 39.9643 18.24C39.9643 21.088 40.5403 23.36 41.6923 25.056C43.0043 26.976 44.9563 27.936 47.5483 27.936C50.2043 27.936 52.1883 26.976 53.5003 25.056C54.6523 23.392 55.2283 21.12 55.2283 18.24Z" fill="white"/>
</svg>
