<svg width="90" height="55" viewBox="0 0 90 55" fill="none" xmlns="http://www.w3.org/2000/svg">
<path d="M88.9365 1.19067V44.6506H30.8629V1.19067H88.9365Z" stroke="white" stroke-width="2" stroke-linejoin="round"/>
<path d="M85.2513 4.87585V35.9459H34.2939V4.87585H85.2513Z" fill="#807070" stroke="white" stroke-width="2" stroke-linejoin="round"/>
<rect x="35" y="5" width="50" height="30" fill="white"/>
<path d="M31 1V44.5" stroke="white" stroke-linejoin="round"/>
<line x1="88.9365" y1="40.9487" x2="30.7358" y2="40.9487" stroke="white" stroke-width="2"/>
<path d="M76.6226 49.5608H83V54H38V49.5608H48.7484M76.6226 49.5608L74.9029 45H50.3248L48.7484 49.5608M76.6226 49.5608H48.7484" stroke="white" stroke-width="2" stroke-linejoin="round"/>
<path d="M30 10.5H14.5V46.5H28.5V50H19.5V53.5H38" stroke="white" stroke-linejoin="round"/>
<path d="M30.5 14H17V39H30.5M14.5 43.5H30.5M14.5 19.5H0.5V47.5H12.5V50.5H6V53H20M14.5 21.5H3V42H14.5" stroke="white" stroke-linejoin="round"/>
</svg>
