<svg width="757" height="274" viewBox="0 0 757 274" fill="none" xmlns="http://www.w3.org/2000/svg">
<g filter="url(#filter0_d_113_12827)">
<path d="M119.007 130.534L150.51 101.783H176.129L141.116 135.183L156.582 149.322V173.613L127.452 147.519L119.007 155.205V172H100.314V147.234V117.155L119.007 100.265V130.534ZM172.407 117.25L191.099 100.359V131.198L223.456 101.783H239.492V172H220.799V129.68L172.407 173.234V147.234V117.25ZM269.129 118.673V155.11H289.53C290.985 155.11 292.124 154.667 292.946 153.781C293.769 152.896 294.18 151.694 294.18 150.176C294.18 148.721 293.769 147.55 292.946 146.665C292.124 145.779 290.985 145.336 289.53 145.336H273.21V128.446H293.231C298.798 128.446 303.447 130.439 307.18 134.424C310.975 138.346 312.873 143.534 312.873 149.986C312.873 155.806 310.944 160.93 307.085 165.358C303.226 169.786 298.64 172 293.326 172H250.436V118.673L269.129 101.783H325.493L306.8 118.673H269.129ZM324.378 172V128.446V118.673L343.071 101.783H391.274L372.581 118.673H343.071V128.446H372.581V145.336H343.071V155.11H372.581V172H324.378ZM442.848 128.446C442.848 136.733 439.812 143.439 433.739 148.563C428.552 152.927 422.7 155.11 416.185 155.11H412.199V138.22H416.185C418.842 138.22 421.119 137.334 423.017 135.563C424.978 133.728 425.958 131.356 425.958 128.446C425.958 125.6 424.978 123.259 423.017 121.425C421.056 119.59 418.778 118.673 416.185 118.673H407.834V172H389.142V118.673L407.834 101.783H416.28C422.795 101.783 428.647 103.997 433.834 108.425C439.843 113.549 442.848 120.223 442.848 128.446ZM518.88 172H500.187V126.738L448.283 173.518V148.752L500.187 101.783H518.88V172ZM530 172V128.446V118.673L548.693 101.783H596.896L578.203 118.673H548.693V128.446H578.203V145.336H548.693V155.11H578.203V172H530ZM638.127 172H632.908C621.712 172 612.318 168.647 604.727 161.942C597.199 155.173 593.435 146.823 593.435 136.891C593.435 127.023 597.231 118.704 604.822 111.936C612.413 105.167 621.775 101.783 632.908 101.783H656.82L638.127 118.673H634.237C627.974 118.673 622.724 120.412 618.485 123.892C614.247 127.371 612.128 131.704 612.128 136.891C612.128 142.015 614.247 146.349 618.485 149.891C622.787 153.37 628.038 155.11 634.237 155.11H638.127V172Z" fill="#EED8FF" fill-opacity="0.1" shape-rendering="crispEdges"/>
<path d="M119.007 130.534H111.007V148.666L124.4 136.443L119.007 130.534ZM150.51 101.783V93.7827H147.408L145.117 95.8737L150.51 101.783ZM176.129 101.783L181.651 107.571L196.106 93.7827H176.129V101.783ZM141.116 135.183L135.594 129.395L129.395 135.308L135.718 141.088L141.116 135.183ZM156.582 149.322H164.582V145.796L161.98 143.417L156.582 149.322ZM156.582 173.613L151.245 179.572L164.582 191.519V173.613H156.582ZM127.452 147.519L132.79 141.56L127.409 136.74L122.067 141.602L127.452 147.519ZM119.007 155.205L113.622 149.288L111.007 151.669V155.205H119.007ZM119.007 172V180H127.007V172H119.007ZM100.314 172H92.3137V180H100.314V172ZM100.314 117.155L94.9504 111.219L92.3137 113.601V117.155H100.314ZM119.007 100.265H127.007V82.2542L113.643 94.3287L119.007 100.265ZM124.4 136.443L155.902 107.692L145.117 95.8737L113.614 124.625L124.4 136.443ZM150.51 109.783H176.129V93.7827H150.51V109.783ZM170.607 95.9941L135.594 129.395L146.638 140.972L181.651 107.571L170.607 95.9941ZM135.718 141.088L151.185 155.226L161.98 143.417L146.513 129.279L135.718 141.088ZM148.582 149.322V173.613H164.582V149.322H148.582ZM161.92 167.654L132.79 141.56L122.114 153.478L151.245 179.572L161.92 167.654ZM122.067 141.602L113.622 149.288L124.391 161.121L132.836 153.435L122.067 141.602ZM111.007 155.205V172H127.007V155.205H111.007ZM119.007 164H100.314V180H119.007V164ZM108.314 172V147.234H92.3137V172H108.314ZM108.314 147.234V117.155H92.3137V147.234H108.314ZM105.677 123.09L124.37 106.2L113.643 94.3287L94.9504 111.219L105.677 123.09ZM111.007 100.265V130.534H127.007V100.265H111.007ZM172.407 117.25L167.043 111.314L164.407 113.696V117.25H172.407ZM191.099 100.359H199.099V82.3491L185.736 94.4236L191.099 100.359ZM191.099 131.198H183.099V149.282L196.481 137.118L191.099 131.198ZM223.456 101.783V93.7827H220.364L218.075 95.8632L223.456 101.783ZM239.492 101.783H247.492V93.7827H239.492V101.783ZM239.492 172V180H247.492V172H239.492ZM220.799 172H212.799V180H220.799V172ZM220.799 129.68H228.799V111.717L215.448 123.734L220.799 129.68ZM172.407 173.234H164.407V191.196L177.758 179.18L172.407 173.234ZM177.77 123.185L196.463 106.295L185.736 94.4236L167.043 111.314L177.77 123.185ZM183.099 100.359V131.198H199.099V100.359H183.099ZM196.481 137.118L228.838 107.702L218.075 95.8632L185.718 125.279L196.481 137.118ZM223.456 109.783H239.492V93.7827H223.456V109.783ZM231.492 101.783V172H247.492V101.783H231.492ZM239.492 164H220.799V180H239.492V164ZM228.799 172V129.68H212.799V172H228.799ZM215.448 123.734L167.055 167.287L177.758 179.18L226.151 135.626L215.448 123.734ZM180.407 173.234V147.234H164.407V173.234H180.407ZM180.407 147.234V117.25H164.407V147.234H180.407ZM269.129 118.673V110.673H261.129V118.673H269.129ZM269.129 155.11H261.129V163.11H269.129V155.11ZM292.946 153.781L298.809 159.225L292.946 153.781ZM292.946 146.665L298.809 141.221L292.946 146.665ZM273.21 145.336H265.21V153.336H273.21V145.336ZM273.21 128.446V120.446H265.21V128.446H273.21ZM307.18 134.424L301.34 139.893L301.385 139.941L301.431 139.988L307.18 134.424ZM307.085 165.358L301.053 160.102L307.085 165.358ZM250.436 172H242.436V180H250.436V172ZM250.436 118.673L245.073 112.737L242.436 115.119V118.673H250.436ZM269.129 101.783V93.7827H266.051L263.766 95.8469L269.129 101.783ZM325.493 101.783L330.856 107.719L346.28 93.7827H325.493V101.783ZM306.8 118.673V126.673H309.879L312.163 124.609L306.8 118.673ZM261.129 118.673V155.11H277.129V118.673H261.129ZM269.129 163.11H289.53V147.11H269.129V163.11ZM289.53 163.11C292.719 163.11 296.168 162.069 298.809 159.225L287.084 148.338C287.505 147.885 288.031 147.534 288.576 147.322C289.089 147.122 289.451 147.11 289.53 147.11V163.11ZM298.809 159.225C301.333 156.507 302.18 153.174 302.18 150.176H286.18C286.18 150.221 286.173 150.003 286.302 149.626C286.441 149.222 286.694 148.758 287.084 148.338L298.809 159.225ZM302.18 150.176C302.18 147.137 301.275 143.877 298.809 141.221L287.084 152.108C286.728 151.725 286.473 151.282 286.324 150.859C286.183 150.459 286.18 150.199 286.18 150.176H302.18ZM298.809 141.221C296.168 138.378 292.719 137.336 289.53 137.336V153.336C289.451 153.336 289.089 153.324 288.576 153.125C288.031 152.913 287.505 152.562 287.084 152.108L298.809 141.221ZM289.53 137.336H273.21V153.336H289.53V137.336ZM281.21 145.336V128.446H265.21V145.336H281.21ZM273.21 136.446H293.231V120.446H273.21V136.446ZM293.231 136.446C296.634 136.446 299.154 137.558 301.34 139.893L313.019 128.956C307.741 123.32 300.962 120.446 293.231 120.446V136.446ZM301.431 139.988C303.523 142.15 304.873 145.205 304.873 149.986H320.873C320.873 141.862 318.427 134.543 312.928 128.861L301.431 139.988ZM304.873 149.986C304.873 153.854 303.656 157.116 301.053 160.102L313.116 170.614C318.231 164.744 320.873 157.758 320.873 149.986H304.873ZM301.053 160.102C298.534 162.993 296.067 164 293.326 164V180C301.212 180 307.918 176.579 313.116 170.614L301.053 160.102ZM293.326 164H250.436V180H293.326V164ZM258.436 172V118.673H242.436V172H258.436ZM255.8 124.609L274.493 107.719L263.766 95.8469L245.073 112.737L255.8 124.609ZM269.129 109.783H325.493V93.7827H269.129V109.783ZM320.13 95.8469L301.437 112.737L312.163 124.609L330.856 107.719L320.13 95.8469ZM306.8 110.673H269.129V126.673H306.8V110.673ZM324.378 172H316.378V180H324.378V172ZM324.378 118.673L319.015 112.737L316.378 115.119V118.673H324.378ZM343.071 101.783V93.7827H339.992L337.708 95.8469L343.071 101.783ZM391.274 101.783L396.638 107.719L412.061 93.7827H391.274V101.783ZM372.581 118.673V126.673H375.66L377.945 124.609L372.581 118.673ZM343.071 118.673V110.673H335.071V118.673H343.071ZM343.071 128.446H335.071V136.446H343.071V128.446ZM372.581 128.446H380.581V120.446H372.581V128.446ZM372.581 145.336V153.336H380.581V145.336H372.581ZM343.071 145.336V137.336H335.071V145.336H343.071ZM343.071 155.11H335.071V163.11H343.071V155.11ZM372.581 155.11H380.581V147.11H372.581V155.11ZM372.581 172V180H380.581V172H372.581ZM332.378 172V128.446H316.378V172H332.378ZM332.378 128.446V118.673H316.378V128.446H332.378ZM329.741 124.609L348.434 107.719L337.708 95.8469L319.015 112.737L329.741 124.609ZM343.071 109.783H391.274V93.7827H343.071V109.783ZM385.911 95.8469L367.218 112.737L377.945 124.609L396.638 107.719L385.911 95.8469ZM372.581 110.673H343.071V126.673H372.581V110.673ZM335.071 118.673V128.446H351.071V118.673H335.071ZM343.071 136.446H372.581V120.446H343.071V136.446ZM364.581 128.446V145.336H380.581V128.446H364.581ZM372.581 137.336H343.071V153.336H372.581V137.336ZM335.071 145.336V155.11H351.071V145.336H335.071ZM343.071 163.11H372.581V147.11H343.071V163.11ZM364.581 155.11V172H380.581V155.11H364.581ZM372.581 164H324.378V180H372.581V164ZM433.739 148.563L438.89 154.684L438.898 154.677L433.739 148.563ZM412.199 155.11H404.199V163.11H412.199V155.11ZM412.199 138.22V130.22H404.199V138.22H412.199ZM423.017 135.563L428.475 141.411L428.482 141.405L423.017 135.563ZM423.017 121.425L428.482 115.582V115.582L423.017 121.425ZM407.834 118.673V110.673H399.834V118.673H407.834ZM407.834 172V180H415.834V172H407.834ZM389.142 172H381.142V180H389.142V172ZM389.142 118.673L383.778 112.737L381.142 115.119V118.673H389.142ZM407.834 101.783V93.7827H404.756L402.471 95.8469L407.834 101.783ZM433.834 108.425L428.64 114.509L428.643 114.513L433.834 108.425ZM434.848 128.446C434.848 134.492 432.764 138.918 428.58 142.448L438.898 154.677C446.859 147.96 450.848 138.974 450.848 128.446H434.848ZM428.588 142.441C424.78 145.646 420.734 147.11 416.185 147.11V163.11C424.666 163.11 432.324 160.209 438.89 154.684L428.588 142.441ZM416.185 147.11H412.199V163.11H416.185V147.11ZM420.199 155.11V138.22H404.199V155.11H420.199ZM412.199 146.22H416.185V130.22H412.199V146.22ZM416.185 146.22C420.815 146.22 425.058 144.601 428.475 141.411L417.558 129.714C417.18 130.068 416.868 130.22 416.185 130.22V146.22ZM428.482 141.405C432.205 137.922 433.958 133.364 433.958 128.446H417.958C417.958 129.348 417.75 129.534 417.551 129.721L428.482 141.405ZM433.958 128.446C433.958 123.535 432.166 119.029 428.482 115.582L417.551 127.267C417.756 127.458 417.815 127.579 417.844 127.647C417.877 127.726 417.958 127.955 417.958 128.446H433.958ZM428.482 115.582C425.097 112.416 420.886 110.673 416.185 110.673V126.673C416.671 126.673 417.014 126.765 417.551 127.267L428.482 115.582ZM416.185 110.673H407.834V126.673H416.185V110.673ZM399.834 118.673V172H415.834V118.673H399.834ZM407.834 164H389.142V180H407.834V164ZM397.142 172V118.673H381.142V172H397.142ZM394.505 124.609L413.198 107.719L402.471 95.8469L383.778 112.737L394.505 124.609ZM407.834 109.783H416.28V93.7827H407.834V109.783ZM416.28 109.783C420.796 109.783 424.827 111.255 428.64 114.509L439.028 102.34C432.466 96.7389 424.794 93.7827 416.28 93.7827V109.783ZM428.643 114.513C432.788 118.046 434.848 122.455 434.848 128.446H450.848C450.848 117.991 446.899 109.052 439.024 102.337L428.643 114.513ZM518.88 172V180H526.88V172H518.88ZM500.187 172H492.187V180H500.187V172ZM500.187 126.738H508.187V108.758L494.831 120.796L500.187 126.738ZM448.283 173.518H440.283V191.498L453.639 179.461L448.283 173.518ZM448.283 148.752L442.915 142.821L440.283 145.203V148.752H448.283ZM500.187 101.783V93.7827H497.104L494.819 95.851L500.187 101.783ZM518.88 101.783H526.88V93.7827H518.88V101.783ZM518.88 164H500.187V180H518.88V164ZM508.187 172V126.738H492.187V172H508.187ZM494.831 120.796L442.927 167.576L453.639 179.461L505.543 132.681L494.831 120.796ZM456.283 173.518V148.752H440.283V173.518H456.283ZM453.651 154.684L505.554 107.715L494.819 95.851L442.915 142.821L453.651 154.684ZM500.187 109.783H518.88V93.7827H500.187V109.783ZM510.88 101.783V172H526.88V101.783H510.88ZM530 172H522V180H530V172ZM530 118.673L524.637 112.737L522 115.119V118.673H530ZM548.693 101.783V93.7827H545.614L543.33 95.8469L548.693 101.783ZM596.896 101.783L602.26 107.719L617.683 93.7827H596.896V101.783ZM578.203 118.673V126.673H581.282L583.567 124.609L578.203 118.673ZM548.693 118.673V110.673H540.693V118.673H548.693ZM548.693 128.446H540.693V136.446H548.693V128.446ZM578.203 128.446H586.203V120.446H578.203V128.446ZM578.203 145.336V153.336H586.203V145.336H578.203ZM548.693 145.336V137.336H540.693V145.336H548.693ZM548.693 155.11H540.693V163.11H548.693V155.11ZM578.203 155.11H586.203V147.11H578.203V155.11ZM578.203 172V180H586.203V172H578.203ZM538 172V128.446H522V172H538ZM538 128.446V118.673H522V128.446H538ZM535.363 124.609L554.056 107.719L543.33 95.8469L524.637 112.737L535.363 124.609ZM548.693 109.783H596.896V93.7827H548.693V109.783ZM591.533 95.8469L572.84 112.737L583.567 124.609L602.26 107.719L591.533 95.8469ZM578.203 110.673H548.693V126.673H578.203V110.673ZM540.693 118.673V128.446H556.693V118.673H540.693ZM548.693 136.446H578.203V120.446H548.693V136.446ZM570.203 128.446V145.336H586.203V128.446H570.203ZM578.203 137.336H548.693V153.336H578.203V137.336ZM540.693 145.336V155.11H556.693V145.336H540.693ZM548.693 163.11H578.203V147.11H548.693V163.11ZM570.203 155.11V172H586.203V155.11H570.203ZM578.203 164H530V180H578.203V164ZM638.127 172V180H646.127V172H638.127ZM604.727 161.942L599.378 167.891L599.404 167.914L599.43 167.938L604.727 161.942ZM604.822 111.936L610.146 117.907L604.822 111.936ZM656.82 101.783L662.184 107.719L677.607 93.7827H656.82V101.783ZM638.127 118.673V126.673H641.206L643.491 124.609L638.127 118.673ZM618.485 123.892L613.409 117.708L618.485 123.892ZM618.485 149.891L613.355 156.029L613.404 156.071L613.455 156.111L618.485 149.891ZM638.127 155.11H646.127V147.11H638.127V155.11ZM638.127 164H632.908V180H638.127V164ZM632.908 164C623.441 164 615.994 161.221 610.023 155.946L599.43 167.938C608.641 176.074 619.982 180 632.908 180V164ZM610.076 155.993C604.198 150.708 601.435 144.504 601.435 136.891H585.435C585.435 149.142 590.2 159.638 599.378 167.891L610.076 155.993ZM601.435 136.891C601.435 129.382 604.198 123.211 610.146 117.907L599.497 105.965C590.263 114.198 585.435 124.664 585.435 136.891H601.435ZM610.146 117.907C616.128 112.573 623.537 109.783 632.908 109.783V93.7827C620.012 93.7827 608.697 97.7614 599.497 105.965L610.146 117.907ZM632.908 109.783H656.82V93.7827H632.908V109.783ZM651.457 95.8469L632.764 112.737L643.491 124.609L662.184 107.719L651.457 95.8469ZM638.127 110.673H634.237V126.673H638.127V110.673ZM634.237 110.673C626.401 110.673 619.28 112.89 613.409 117.708L623.561 130.075C626.168 127.935 629.548 126.673 634.237 126.673V110.673ZM613.409 117.708C607.441 122.607 604.128 129.156 604.128 136.891H620.128C620.128 134.252 621.053 132.134 623.561 130.075L613.409 117.708ZM604.128 136.891C604.128 144.588 607.46 151.102 613.355 156.029L623.616 143.753C621.035 141.595 620.128 139.442 620.128 136.891H604.128ZM613.455 156.111C619.352 160.881 626.44 163.11 634.237 163.11V147.11C629.635 147.11 626.222 145.86 623.516 143.671L613.455 156.111ZM634.237 163.11H638.127V147.11H634.237V163.11ZM630.127 155.11V172H646.127V155.11H630.127Z" fill="white"/>
</g>
<defs>
<filter id="filter0_d_113_12827" x="0.313965" y="0.264648" width="756.506" height="273.348" filterUnits="userSpaceOnUse" color-interpolation-filters="sRGB">
<feFlood flood-opacity="0" result="BackgroundImageFix"/>
<feColorMatrix in="SourceAlpha" type="matrix" values="0 0 0 0 0 0 0 0 0 0 0 0 0 0 0 0 0 0 127 0" result="hardAlpha"/>
<feOffset/>
<feGaussianBlur stdDeviation="50"/>
<feComposite in2="hardAlpha" operator="out"/>
<feColorMatrix type="matrix" values="0 0 0 0 1 0 0 0 0 1 0 0 0 0 1 0 0 0 1 0"/>
<feBlend mode="normal" in2="BackgroundImageFix" result="effect1_dropShadow_113_12827"/>
<feBlend mode="normal" in="SourceGraphic" in2="effect1_dropShadow_113_12827" result="shape"/>
</filter>
</defs>
</svg>
